<?xml version="1.0" encoding="UTF-8"?>
<svg xmlns="http://www.w3.org/2000/svg" xmlns:xlink="http://www.w3.org/1999/xlink" width="375pt" height="374.999991pt" viewBox="0 0 375 374.999991" version="1.2">
<defs>
<clipPath id="clip1">
  <path d="M 97 84.691406 L 283.8125 84.691406 L 283.8125 272 L 97 272 Z M 97 84.691406 "/>
</clipPath>
<clipPath id="clip2">
  <path d="M 59.5625 243 L 76 243 L 76 260 L 59.5625 260 Z M 59.5625 243 "/>
</clipPath>
<clipPath id="clip3">
  <path d="M 117 279 L 142 279 L 142 290.191406 L 117 290.191406 Z M 117 279 "/>
</clipPath>
</defs>
<g id="surface1">
<path style=" stroke:none;fill-rule:nonzero;fill:rgb(0%,0%,0%);fill-opacity:1;" d="M 188.148438 0 C 185.089844 0 182.035156 0.0742188 178.980469 0.226562 C 175.925781 0.375 172.875 0.601562 169.832031 0.898438 C 166.789062 1.199219 163.753906 1.574219 160.730469 2.023438 C 157.707031 2.472656 154.695312 2.992188 151.695312 3.589844 C 148.695312 4.1875 145.710938 4.855469 142.746094 5.601562 C 139.78125 6.34375 136.832031 7.15625 133.90625 8.046875 C 130.980469 8.933594 128.078125 9.890625 125.199219 10.921875 C 122.320312 11.953125 119.46875 13.054688 116.640625 14.222656 C 113.816406 15.394531 111.023438 16.632812 108.257812 17.941406 C 105.492188 19.246094 102.761719 20.621094 100.066406 22.0625 C 97.367188 23.503906 94.707031 25.011719 92.085938 26.582031 C 89.464844 28.15625 86.878906 29.792969 84.335938 31.492188 C 81.796875 33.1875 79.296875 34.949219 76.839844 36.769531 C 74.382812 38.59375 71.972656 40.472656 69.609375 42.414062 C 67.246094 44.355469 64.929688 46.351562 62.664062 48.402344 C 60.398438 50.457031 58.183594 52.566406 56.023438 54.726562 C 53.859375 56.890625 51.753906 59.105469 49.699219 61.371094 C 47.644531 63.636719 45.648438 65.949219 43.707031 68.316406 C 41.769531 70.679688 39.886719 73.089844 38.066406 75.542969 C 36.246094 78 34.484375 80.5 32.785156 83.042969 C 31.085938 85.585938 29.449219 88.167969 27.878906 90.792969 C 26.304688 93.414062 24.800781 96.074219 23.359375 98.769531 C 21.917969 101.46875 20.542969 104.199219 19.234375 106.960938 C 17.925781 109.726562 16.6875 112.523438 15.519531 115.347656 C 14.347656 118.171875 13.246094 121.023438 12.21875 123.902344 C 11.1875 126.78125 10.226562 129.6875 9.339844 132.613281 C 8.453125 135.539062 7.636719 138.484375 6.894531 141.449219 C 6.152344 144.417969 5.480469 147.398438 4.886719 150.398438 C 4.289062 153.398438 3.765625 156.410156 3.316406 159.4375 C 2.867188 162.460938 2.496094 165.496094 2.195312 168.539062 C 1.894531 171.582031 1.667969 174.628906 1.519531 177.683594 C 1.371094 180.738281 1.292969 183.792969 1.292969 186.851562 C 1.292969 189.910156 1.371094 192.964844 1.519531 196.019531 C 1.667969 199.074219 1.894531 202.125 2.195312 205.167969 C 2.496094 208.210938 2.867188 211.246094 3.316406 214.269531 C 3.765625 217.292969 4.289062 220.304688 4.886719 223.304688 C 5.480469 226.304688 6.152344 229.289062 6.894531 232.253906 C 7.636719 235.21875 8.453125 238.167969 9.339844 241.09375 C 10.226562 244.019531 11.1875 246.921875 12.21875 249.800781 C 13.246094 252.679688 14.347656 255.53125 15.519531 258.359375 C 16.6875 261.183594 17.925781 263.976562 19.234375 266.742188 C 20.542969 269.507812 21.917969 272.238281 23.359375 274.933594 C 24.800781 277.632812 26.304688 280.292969 27.878906 282.914062 C 29.449219 285.535156 31.085938 288.121094 32.785156 290.664062 C 34.484375 293.203125 36.246094 295.703125 38.066406 298.160156 C 39.886719 300.617188 41.769531 303.027344 43.707031 305.390625 C 45.648438 307.753906 47.644531 310.070312 49.699219 312.335938 C 51.753906 314.601562 53.859375 316.816406 56.023438 318.976562 C 58.183594 321.140625 60.398438 323.246094 62.664062 325.300781 C 64.929688 327.355469 67.246094 329.351562 69.609375 331.292969 C 71.972656 333.230469 74.382812 335.113281 76.839844 336.933594 C 79.296875 338.753906 81.796875 340.515625 84.335938 342.214844 C 86.878906 343.914062 89.464844 345.550781 92.085938 347.121094 C 94.707031 348.695312 97.367188 350.199219 100.066406 351.640625 C 102.761719 353.082031 105.492188 354.457031 108.257812 355.765625 C 111.023438 357.074219 113.816406 358.3125 116.640625 359.480469 C 119.46875 360.652344 122.320312 361.753906 125.199219 362.78125 C 128.078125 363.8125 130.980469 364.773438 133.90625 365.660156 C 136.832031 366.546875 139.78125 367.363281 142.746094 368.105469 C 145.710938 368.847656 148.695312 369.519531 151.695312 370.113281 C 154.695312 370.710938 157.707031 371.234375 160.730469 371.683594 C 163.753906 372.132812 166.789062 372.503906 169.832031 372.804688 C 172.875 373.105469 175.925781 373.332031 178.980469 373.480469 C 182.035156 373.628906 185.089844 373.707031 188.148438 373.707031 C 191.207031 373.707031 194.261719 373.628906 197.316406 373.480469 C 200.371094 373.332031 203.417969 373.105469 206.460938 372.804688 C 209.503906 372.503906 212.539062 372.132812 215.5625 371.683594 C 218.589844 371.234375 221.601562 370.710938 224.601562 370.113281 C 227.601562 369.519531 230.582031 368.847656 233.546875 368.105469 C 236.515625 367.363281 239.460938 366.546875 242.386719 365.660156 C 245.3125 364.773438 248.21875 363.8125 251.097656 362.78125 C 253.976562 361.753906 256.828125 360.652344 259.652344 359.480469 C 262.476562 358.3125 265.273438 357.074219 268.035156 355.765625 C 270.800781 354.457031 273.53125 353.082031 276.230469 351.640625 C 278.925781 350.199219 281.585938 348.695312 284.207031 347.121094 C 286.832031 345.550781 289.414062 343.914062 291.957031 342.214844 C 294.5 340.515625 297 338.753906 299.457031 336.933594 C 301.910156 335.113281 304.320312 333.230469 306.683594 331.292969 C 309.050781 329.351562 311.363281 327.355469 313.628906 325.300781 C 315.894531 323.246094 318.109375 321.140625 320.273438 318.976562 C 322.433594 316.816406 324.542969 314.601562 326.597656 312.335938 C 328.648438 310.070312 330.644531 307.753906 332.585938 305.390625 C 334.527344 303.027344 336.40625 300.617188 338.230469 298.160156 C 340.050781 295.703125 341.8125 293.203125 343.507812 290.664062 C 345.207031 288.121094 346.84375 285.535156 348.417969 282.914062 C 349.988281 280.292969 351.496094 277.632812 352.9375 274.933594 C 354.378906 272.238281 355.753906 269.507812 357.058594 266.742188 C 358.367188 263.976562 359.605469 261.183594 360.777344 258.359375 C 361.945312 255.53125 363.046875 252.679688 364.078125 249.800781 C 365.109375 246.921875 366.066406 244.019531 366.953125 241.09375 C 367.84375 238.167969 368.65625 235.21875 369.398438 232.253906 C 370.144531 229.289062 370.8125 226.304688 371.410156 223.304688 C 372.007812 220.304688 372.527344 217.292969 372.976562 214.269531 C 373.425781 211.246094 373.800781 208.210938 374.101562 205.167969 C 374.398438 202.125 374.625 199.074219 374.773438 196.019531 C 374.925781 192.964844 375 189.910156 375 186.851562 C 375 183.792969 374.925781 180.738281 374.773438 177.683594 C 374.625 174.628906 374.398438 171.582031 374.101562 168.539062 C 373.800781 165.496094 373.425781 162.460938 372.976562 159.4375 C 372.527344 156.410156 372.007812 153.398438 371.410156 150.398438 C 370.8125 147.398438 370.144531 144.417969 369.398438 141.449219 C 368.65625 138.484375 367.84375 135.539062 366.953125 132.613281 C 366.066406 129.6875 365.109375 126.78125 364.078125 123.902344 C 363.046875 121.023438 361.945312 118.171875 360.777344 115.347656 C 359.605469 112.523438 358.367188 109.726562 357.058594 106.960938 C 355.753906 104.199219 354.378906 101.46875 352.9375 98.769531 C 351.496094 96.074219 349.988281 93.414062 348.417969 90.792969 C 346.84375 88.167969 345.207031 85.585938 343.507812 83.042969 C 341.8125 80.5 340.050781 78 338.230469 75.542969 C 336.40625 73.089844 334.527344 70.679688 332.585938 68.316406 C 330.644531 65.949219 328.648438 63.636719 326.597656 61.371094 C 324.542969 59.105469 322.433594 56.890625 320.273438 54.726562 C 318.109375 52.566406 315.894531 50.457031 313.628906 48.402344 C 311.363281 46.351562 309.050781 44.355469 306.683594 42.414062 C 304.320312 40.472656 301.910156 38.59375 299.457031 36.769531 C 297 34.949219 294.5 33.1875 291.957031 31.492188 C 289.414062 29.792969 286.832031 28.15625 284.207031 26.582031 C 281.585938 25.011719 278.925781 23.503906 276.230469 22.0625 C 273.53125 20.621094 270.800781 19.246094 268.035156 17.941406 C 265.273438 16.632812 262.476562 15.394531 259.652344 14.222656 C 256.828125 13.054688 253.976562 11.953125 251.097656 10.921875 C 248.21875 9.890625 245.3125 8.933594 242.386719 8.046875 C 239.460938 7.15625 236.515625 6.34375 233.546875 5.601562 C 230.582031 4.855469 227.601562 4.1875 224.601562 3.589844 C 221.601562 2.992188 218.589844 2.472656 215.5625 2.023438 C 212.539062 1.574219 209.503906 1.199219 206.460938 0.898438 C 203.417969 0.601562 200.371094 0.375 197.316406 0.226562 C 194.261719 0.0742188 191.207031 0 188.148438 0 Z M 188.148438 0 "/>
<g clip-path="url(#clip1)" clip-rule="nonzero">
<path style=" stroke:none;fill-rule:nonzero;fill:rgb(100%,100%,100%);fill-opacity:1;" d="M 283.46875 87.925781 C 283.414062 87.765625 283.394531 87.625 283.328125 87.476562 C 283.050781 86.867188 282.683594 86.296875 282.144531 85.832031 C 282.070312 85.765625 281.976562 85.746094 281.902344 85.691406 C 281.855469 85.652344 281.84375 85.597656 281.796875 85.570312 C 281.703125 85.503906 281.59375 85.523438 281.5 85.46875 C 280.902344 85.101562 280.265625 84.886719 279.59375 84.8125 C 279.464844 84.804688 279.339844 84.757812 279.210938 84.757812 C 278.4375 84.738281 277.679688 84.925781 276.980469 85.300781 C 276.914062 85.328125 276.847656 85.308594 276.78125 85.347656 L 99.335938 188.097656 C 97.746094 189.019531 96.839844 190.785156 97.039062 192.609375 C 97.222656 194.4375 98.457031 195.980469 100.203125 196.558594 L 154.027344 214.503906 L 171.96875 268.335938 C 172.003906 268.4375 172.105469 268.484375 172.144531 268.578125 C 172.453125 269.34375 172.890625 270.0625 173.59375 270.585938 C 173.601562 270.59375 173.621094 270.585938 173.636719 270.605469 C 174.421875 271.183594 175.375 271.527344 176.394531 271.527344 C 176.488281 271.527344 176.589844 271.527344 176.683594 271.519531 C 176.804688 271.511719 176.890625 271.40625 177.011719 271.390625 C 177.757812 271.285156 178.4375 270.996094 179.066406 270.539062 C 179.28125 270.378906 179.464844 270.25 179.652344 270.054688 C 179.800781 269.902344 180 269.828125 180.128906 269.660156 L 200.863281 242.011719 L 206.632812 234.316406 L 249.269531 252.464844 C 249.855469 252.714844 250.492188 252.847656 251.109375 252.847656 C 251.144531 252.847656 251.175781 252.820312 251.203125 252.820312 C 251.941406 252.808594 252.667969 252.640625 253.320312 252.285156 C 254.582031 251.605469 255.460938 250.390625 255.703125 248.988281 L 283.722656 90.195312 C 283.742188 90.101562 283.683594 90.015625 283.695312 89.921875 C 283.769531 89.25 283.695312 88.578125 283.46875 87.925781 Z M 242.535156 132.601562 L 181.933594 217.453125 C 181.539062 217.996094 181.304688 218.59375 181.175781 219.210938 C 181.175781 219.21875 181.15625 219.238281 181.15625 219.246094 L 175.265625 248.710938 L 163.058594 212.082031 Z M 185.003906 247.597656 L 189.140625 226.890625 L 197.773438 230.558594 Z M 185.003906 247.597656 "/>
</g>
<g clip-path="url(#clip2)" clip-rule="nonzero">
<path style=" stroke:none;fill-rule:nonzero;fill:rgb(100%,100%,100%);fill-opacity:1;" d="M 67.617188 244.878906 C 65.796875 243.066406 62.835938 243.058594 61.015625 244.886719 C 59.195312 246.710938 59.195312 249.671875 61.015625 251.492188 C 63.277344 253.753906 65.5625 255.957031 67.890625 258.097656 C 68.796875 258.917969 69.925781 259.328125 71.054688 259.328125 C 72.316406 259.328125 73.578125 258.824219 74.492188 257.816406 C 76.238281 255.921875 76.117188 252.960938 74.222656 251.210938 C 71.988281 249.167969 69.792969 247.046875 67.617188 244.878906 Z M 67.617188 244.878906 "/>
</g>
<g clip-path="url(#clip3)" clip-rule="nonzero">
<path style=" stroke:none;fill-rule:nonzero;fill:rgb(100%,100%,100%);fill-opacity:1;" d="M 136.832031 280.75 L 134.730469 280.785156 C 134.710938 280.785156 134.695312 280.785156 134.675781 280.785156 C 130.890625 280.785156 127.007812 280.382812 123.121094 279.589844 C 120.617188 279.09375 118.125 280.691406 117.601562 283.234375 C 117.089844 285.765625 118.714844 288.230469 121.246094 288.746094 C 125.746094 289.667969 130.277344 290.136719 134.675781 290.136719 C 134.695312 290.136719 134.722656 290.136719 134.738281 290.136719 L 137.179688 290.089844 C 139.746094 289.996094 141.761719 287.828125 141.671875 285.25 C 141.578125 282.671875 139.875 280.582031 136.832031 280.75 Z M 136.832031 280.75 "/>
</g>
<path style=" stroke:none;fill-rule:nonzero;fill:rgb(100%,100%,100%);fill-opacity:1;" d="M 103.371094 272.371094 C 99.363281 270.296875 95.253906 267.792969 91.132812 264.925781 C 89.035156 263.457031 86.121094 263.960938 84.644531 266.09375 C 83.167969 268.210938 83.683594 271.128906 85.8125 272.59375 C 90.257812 275.6875 94.710938 278.394531 99.0625 280.65625 C 99.753906 281.011719 100.484375 281.179688 101.210938 281.179688 C 102.902344 281.179688 104.519531 280.261719 105.347656 278.65625 C 106.554688 276.375 105.667969 273.566406 103.371094 272.371094 Z M 103.371094 272.371094 "/>
<path style=" stroke:none;fill-rule:nonzero;fill:rgb(100%,100%,100%);fill-opacity:1;" d="M 164.683594 272.191406 C 162.078125 273.734375 159.453125 275.050781 156.863281 276.152344 C 154.492188 277.171875 153.390625 279.917969 154.398438 282.289062 C 155.15625 284.054688 156.882812 285.121094 158.695312 285.121094 C 159.300781 285.121094 159.9375 285 160.527344 284.746094 C 163.542969 283.457031 166.539062 281.933594 169.417969 280.234375 C 171.640625 278.925781 172.378906 276.058594 171.070312 273.835938 C 169.753906 271.613281 166.894531 270.882812 164.683594 272.191406 Z M 164.683594 272.191406 "/>
</g>
</svg>
