<?xml version="1.0" encoding="UTF-8"?><svg version="1.1" xmlns="http://www.w3.org/2000/svg" xmlns:xlink="http://www.w3.org/1999/xlink" viewBox="0 0 1280 720" width="1280" height="720" x="0px" y="0px">
              
              <!-- ITEM 0 -->
<g>
    <defs>
        
        <clipPath id="clip-path-id-viewbox-item-0">
            <rect x="0.0" y="0.0" width="344.194" height="408.599"/>
        </clipPath>
    </defs>
    <g transform="translate(794.0 39.0) rotate(5.605065788063471 88.0 104.5) scale(0.5113395352620905 0.5115039439646206)">
      <g clip-path="url(#clip-path-id-viewbox-item-0)" transform="translate(-0.0 -0.0)">
      
<g>
	<g>
		<path fill="#428DFC" d="M315.557,215.609c-3.59,0-6.5-2.91-6.5-6.5v-6c0-16.265-13.233-29.498-29.499-29.498h-19.499    c-3.59,0-6.5-2.91-6.5-6.5s2.91-6.5,6.5-6.5h19.499c23.434,0,42.499,19.064,42.499,42.498v6    C322.057,212.699,319.146,215.609,315.557,215.609z"/>
	</g>
	<path fill="#428DFC" d="M339.757,408.03h-9.143l-3.178-47.648c-1.373-20.588-10.421-39.912-25.354-54.152l-26.115-24.902   l0.544-57.299h32l-0.018,32.044c-0.009,16.472,5.951,32.39,16.776,44.805l10.421,11.952c5.969,6.846,9.001,15.769,8.438,24.835   L339.757,408.03z"/>
	<polygon fill="#428DFC" points="151.064,408.03 141.921,408.03 130.493,224.03 162.493,224.03  "/>
	<g>
		<g>
			
				<linearGradient id="SVGID_1_-i0" gradientUnits="userSpaceOnUse" x1="611.6466" y1="718.5193" x2="876.2509" y2="718.5193" gradientTransform="matrix(1 0 0 1 -567.0567 -459.0459)">
				<stop offset="0" style="stop-color:#A1C3FC"/>
				<stop offset="0.6955" style="stop-color:#81AEF2"/>
				<stop offset="1" style="stop-color:#78A9EF"/>
			</linearGradient>
			<path fill="url(#SVGID_1_-i0)" d="M309.194,221.502v-24.217c0-22.621-18.338-40.96-40.96-40.96H129.261     c-11.25,0-21.326-6.964-25.302-17.488l-10.765-28.49H44.59v64.38c0,17.838,7.428,34.87,20.5,47.007l33.173,30.8l9.658,155.496     h9.143l8.261-133h130.341c0.097,0,0.191-0.007,0.288-0.007c1.247,7.136,3.88,13.993,7.788,20.169l9.791,15.469     c7.591,11.995,12.063,25.697,13.008,39.861l3.874,58.076h9.143l4.829-77.753c0.277-4.465-0.316-8.942-1.746-13.181l-7.129-21.13     c-3.332-9.876-5.029-20.23-5.023-30.653l0.002-3.748C301.934,252.318,309.194,237.762,309.194,221.502z"/>
		</g>
	</g>
	<g>
		<g>
			<path fill="#A1C3FC" d="M48.175,60.262c-1.311,0-2.58-0.704-3.242-1.94c-2.804-5.237-9.439-8.988-16.465-12.959     C16.985,38.873,3.973,31.517,0.096,14.781c-0.459-1.978,0.773-3.951,2.75-4.409c1.984-0.46,3.951,0.773,4.409,2.75     c3.148,13.587,14.171,19.816,24.83,25.842c7.98,4.511,15.517,8.772,19.327,15.887c0.957,1.79,0.284,4.016-1.504,4.975     C49.355,60.121,48.761,60.262,48.175,60.262z"/>
		</g>
		<g>
			<path fill="#A1C3FC" d="M52.482,70.557c-1.399,0-2.737-0.804-3.351-2.162C40.483,49.274,35.432,27.569,34.112,3.881     c-0.113-2.025,1.439-3.76,3.464-3.873c1.996-0.137,3.76,1.439,3.873,3.464c1.268,22.776,6.106,43.601,14.378,61.891     c0.835,1.849,0.015,4.026-1.834,4.864C53.502,70.451,52.987,70.557,52.482,70.557z"/>
		</g>
		<g>
			<path fill="#A1C3FC" d="M89.118,60.262c-0.585,0-1.18-0.141-1.733-0.437c-1.789-0.958-2.462-3.185-1.504-4.975     c3.811-7.115,11.348-11.375,19.327-15.887c10.659-6.026,21.681-12.255,24.83-25.842c0.459-1.977,2.421-3.207,4.409-2.75     c1.977,0.459,3.209,2.431,2.75,4.409c-3.877,16.735-16.89,24.092-28.372,30.581c-7.026,3.971-13.66,7.722-16.465,12.959     C91.698,59.558,90.428,60.262,89.118,60.262z"/>
		</g>
		<g>
			<path fill="#A1C3FC" d="M84.812,70.557c-0.506,0-1.02-0.106-1.511-0.328c-1.849-0.836-2.669-3.015-1.834-4.864     c8.272-18.29,13.109-39.115,14.378-61.891c0.113-2.027,1.855-3.605,3.873-3.464c2.027,0.113,3.579,1.848,3.464,3.873     c-1.318,23.686-6.372,45.392-15.019,64.513C87.548,69.753,86.211,70.557,84.812,70.557z"/>
		</g>
		<path fill="#81AEF2" d="M54.4,72.544L33.838,87.008c-0.8,0.563-1.858,0.601-2.696,0.098L9.583,74.172    c-1.532-0.919-1.611-3.107-0.15-4.135l20.561-14.464c0.8-0.563,1.858-0.601,2.696-0.098L54.25,68.409    C55.78,69.328,55.861,71.515,54.4,72.544z"/>
		<path fill="#81AEF2" d="M127.861,72.544L107.3,87.008c-0.8,0.563-1.856,0.601-2.696,0.098L83.045,74.172    c-1.532-0.919-1.611-3.107-0.15-4.135l20.561-14.464c0.8-0.563,1.858-0.601,2.696-0.098l21.559,12.934    C129.241,69.328,129.321,71.515,127.861,72.544z"/>
		
			<linearGradient id="SVGID_2_-i0" gradientUnits="userSpaceOnUse" x1="67.6194" y1="1372.5529" x2="111.7139" y2="1372.5529" gradientTransform="matrix(1 0 0 -1 -21.02 1470.4327)">
			<stop offset="0" style="stop-color:#A1C3FC"/>
			<stop offset="1" style="stop-color:#89B3F4"/>
		</linearGradient>
		<path fill="url(#SVGID_2_-i0)" d="M90.694,62.471H46.599v48.826c0,1.895,0.645,3.641,1.689,4.574l18.72,16.735    c1.017,0.91,2.262,0.91,3.279,0l18.72-16.735c1.042-0.933,1.687-2.681,1.687-4.574V62.471z"/>
		
			<linearGradient id="SVGID_3_-i0" gradientUnits="userSpaceOnUse" x1="-695.8197" y1="890.8605" x2="-638.8283" y2="890.8605" gradientTransform="matrix(4.489700e-011 1 1 -4.489700e-011 -822.2139 782.1404)">
			<stop offset="0.6582" style="stop-color:#EEEEEE"/>
			<stop offset="1" style="stop-color:#D6D7D8"/>
		</linearGradient>
		<path fill="url(#SVGID_3_-i0)" d="M44.814,99.724L67.493,86.63c0.714-0.413,1.595-0.413,2.308,0L92.48,99.724    c0.714,0.412,1.154,1.174,1.154,1.999v26.188c0,0.825-0.439,1.586-1.154,1.999L69.8,143.002c-0.714,0.413-1.595,0.413-2.308,0    l-22.679-13.093c-0.714-0.413-1.154-1.176-1.154-2v-26.186C43.66,100.898,44.099,100.135,44.814,99.724z"/>
		
			<radialGradient id="SVGID_4_-i0" cx="124.6061" cy="1838.2651" r="31.2039" gradientTransform="matrix(0.6667 0 0 -0.5944 -18.8354 1201.2925)" gradientUnits="userSpaceOnUse">
			<stop offset="0" style="stop-color:#E94A47"/>
			<stop offset="0.8602" style="stop-color:#D62929"/>
			<stop offset="1" style="stop-color:#E94A47"/>
		</radialGradient>
		<ellipse fill="url(#SVGID_4_-i0)" cx="68.647" cy="109.505" rx="14.698" ry="8.819"/>
	</g>
</g>
<path id="texture_4_-i0" opacity="0.51" fill="#FFFFFF" enable-background="new    " d="M286.808,234.611  c0.049,0.297-0.173,0.557-0.457,0.563c-0.297,0.049-0.557-0.173-0.563-0.457c-0.049-0.297,0.173-0.557,0.457-0.563l0,0  C286.542,234.106,286.802,234.327,286.808,234.611L286.808,234.611z M274.183,235.771c0.006,0.284-0.173,0.557-0.47,0.606  c-0.284,0.006-0.544-0.216-0.55-0.5c-0.062-0.254,0.117-0.528,0.414-0.577c0,0,0.043,0.013,0.056-0.03  C273.903,235.308,274.177,235.487,274.183,235.771L274.183,235.771z M261.574,237.03c0.049,0.297-0.173,0.557-0.457,0.563l0,0  c-0.284,0.006-0.557-0.173-0.606-0.47c-0.006-0.284,0.216-0.544,0.513-0.593C261.307,236.524,261.525,236.733,261.574,237.03z   M270.95,285.287c0.231,0.165,0.266,0.505,0.101,0.736l0,0c-0.166,0.231-0.463,0.279-0.693,0.114c0,0-0.043-0.013-0.03-0.056  c-0.231-0.166-0.266-0.505-0.101-0.736C270.38,285.157,270.72,285.122,270.95,285.287L270.95,285.287L270.95,285.287z   M272.627,211.087c0.118,0.225,0.055,0.581-0.213,0.686c-0.268,0.105-0.581,0.055-0.686-0.213s-0.055-0.581,0.213-0.686l0,0  C272.166,210.756,272.479,210.806,272.627,211.087C272.584,211.073,272.584,211.073,272.627,211.087L272.627,211.087z   M261.437,217.015c0.132,0.182,0.052,0.439-0.13,0.571l-0.013,0.043c-0.013,0.043-0.027,0.086-0.069,0.072  c-0.168,0.089-0.31,0.092-0.469-0.004c-0.129-0.04-0.188-0.152-0.26-0.222c-0.118-0.225-0.055-0.581,0.213-0.686  C260.933,216.671,261.276,216.777,261.437,217.015L261.437,217.015z M277.328,259.116c0.257,0.08,0.435,0.417,0.355,0.674  c-0.093,0.3-0.417,0.435-0.674,0.355c-0.3-0.093-0.448-0.374-0.355-0.674C276.747,259.171,277.071,259.036,277.328,259.116z   M265.225,255.409c0.257,0.08,0.392,0.403,0.312,0.661l0,0c-0.08,0.257-0.331,0.461-0.588,0.382l-0.043-0.013  c-0.3-0.093-0.435-0.417-0.355-0.674C264.645,255.464,264.925,255.316,265.225,255.409z M289.865,182.174  c0.28,0.463,0.136,1.076-0.326,1.356c-0.463,0.279-1.076,0.136-1.356-0.326l0,0c-0.279-0.463-0.136-1.076,0.326-1.356l0,0  C288.929,181.555,289.543,181.698,289.865,182.174L289.865,182.174z M269.433,194.87c0.279,0.463,0.136,1.076-0.326,1.356  c-0.463,0.279-1.076,0.136-1.356-0.326c-0.279-0.463-0.136-1.076,0.326-1.356C268.497,194.251,269.11,194.394,269.433,194.87  C269.403,194.814,269.39,194.856,269.433,194.87L269.433,194.87z M299.611,245.302c0.528,0.117,0.88,0.649,0.72,1.163l-0.013,0.043  c-0.117,0.528-0.593,0.85-1.134,0.776l-0.043-0.013c-0.514-0.16-0.866-0.692-0.75-1.219  C298.565,245.494,299.083,245.185,299.611,245.302z M276.226,239.788c0.528,0.117,0.866,0.692,0.75,1.219  c-0.117,0.528-0.692,0.866-1.219,0.75l0,0c-0.528-0.117-0.88-0.649-0.763-1.177l0,0C275.124,240.01,275.642,239.701,276.226,239.788  L276.226,239.788L276.226,239.788z M252.828,234.318c0.528,0.117,0.88,0.649,0.763,1.177c-0.117,0.528-0.649,0.88-1.177,0.763  l-0.043-0.013c-0.528-0.117-0.837-0.635-0.763-1.177l0,0C251.725,234.54,252.257,234.188,252.828,234.318L252.828,234.318z   M290.082,213.445c0.068,0.538-0.332,1.072-0.87,1.14c-0.538,0.068-1.042-0.276-1.11-0.814c-0.111-0.551,0.247-1.098,0.785-1.166  C289.438,212.494,289.985,212.851,290.082,213.445L290.082,213.445z M266.327,217.31c0.111,0.551-0.233,1.055-0.785,1.166  c0,0,0,0-0.043-0.013c-0.551,0.111-1.042-0.276-1.166-0.785c-0.111-0.551,0.276-1.042,0.785-1.166l0.043,0.013  c0.508-0.124,1.013,0.22,1.094,0.715C266.284,217.296,266.327,217.31,266.327,217.31L266.327,217.31z M297.305,280.772  c0.418,0.318,0.546,0.968,0.228,1.387c-0.318,0.418-0.968,0.546-1.387,0.228c-0.418-0.318-0.559-0.925-0.228-1.387l0,0  C296.249,280.539,296.886,280.454,297.305,280.772L297.305,280.772L297.305,280.772z M277.787,266.73  c0.432,0.275,0.572,0.882,0.241,1.344l-0.013,0.043c-0.288,0.475-0.925,0.559-1.357,0.284l-0.043-0.013  c-0.461-0.331-0.546-0.968-0.228-1.387C276.731,266.497,277.368,266.412,277.787,266.73L277.787,266.73z M258.268,252.688  c0.418,0.318,0.546,0.968,0.228,1.387c-0.275,0.432-0.882,0.572-1.344,0.241l-0.043-0.013c-0.461-0.331-0.559-0.925-0.271-1.4  C257.2,252.497,257.807,252.357,258.268,252.688L258.268,252.688z M291.214,192.978c0.201,0.109,0.333,0.291,0.408,0.503  c0.138,0.466-0.151,0.94-0.616,1.078c-0.466,0.138-0.983-0.164-1.121-0.63l0,0c-0.092-0.31,0.001-0.611,0.21-0.828l0.013-0.043  c0.083-0.115,0.251-0.204,0.406-0.25C290.726,192.733,290.983,192.812,291.214,192.978L291.214,192.978z M270.852,198.929  c0.138,0.466-0.164,0.983-0.659,1.064c-0.466,0.138-0.94-0.151-1.064-0.659c-0.138-0.466,0.151-0.94,0.616-1.078  C270.197,198.162,270.715,198.463,270.852,198.929L270.852,198.929L270.852,198.929z M250.07,204.42  c0.124,0.508-0.207,0.97-0.659,1.064c-0.452,0.095-0.94-0.151-1.078-0.616c-0.138-0.466,0.164-0.983,0.629-1.121  S249.946,203.911,250.07,204.42C250.083,204.377,250.083,204.377,250.07,204.42z M301.979,260.699  c0.389,0.262,0.556,0.783,0.281,1.215c-0.219,0.402-0.74,0.569-1.185,0.337l-0.043-0.013c-0.445-0.232-0.556-0.783-0.337-1.185l0,0  C301.026,260.591,301.577,260.48,301.979,260.699L301.979,260.699z M283.437,249.873c0.445,0.232,0.556,0.783,0.337,1.185l0,0  c-0.219,0.402-0.74,0.569-1.143,0.351c-0.043-0.013-0.043-0.013-0.086-0.027c-0.445-0.232-0.556-0.783-0.337-1.185l0,0  C282.471,249.808,282.992,249.641,283.437,249.873L283.437,249.873z M264.925,239.103c0.432,0.275,0.543,0.826,0.281,1.215  s-0.783,0.556-1.215,0.281c-0.389-0.262-0.556-0.783-0.324-1.228C263.929,238.982,264.48,238.871,264.925,239.103L264.925,239.103z   M303.531,221.752c0.455,0.047,0.791,0.48,0.744,0.936l-0.013,0.043c-0.061,0.498-0.494,0.834-0.992,0.773s-0.834-0.494-0.773-0.992  C302.6,222.027,303.033,221.691,303.531,221.752L303.531,221.752z M282.246,218.863c0.498,0.061,0.834,0.494,0.773,0.992  c-0.061,0.498-0.494,0.834-0.992,0.773c-0.498-0.061-0.834-0.494-0.773-0.992C281.315,219.138,281.748,218.803,282.246,218.863z   M260.961,215.974c0.498,0.061,0.834,0.494,0.773,0.992c-0.037,0.271-0.202,0.501-0.44,0.662l-0.013,0.043  c-0.168,0.089-0.367,0.121-0.551,0.111c-0.485-0.103-0.821-0.536-0.76-1.035C260.072,216.263,260.519,215.884,260.961,215.974  L260.961,215.974z M284.598,296.287c0.306,0.377,0.246,0.875-0.131,1.181c0,0-0.013,0.043-0.056,0.03  c-0.377,0.306-0.918,0.232-1.224-0.145c0,0,0,0-0.043-0.013c-0.293-0.42-0.176-0.948,0.201-1.254  C283.764,295.793,284.305,295.867,284.598,296.287L284.598,296.287L284.598,296.287z M271.617,279.197  c0.306,0.377,0.219,0.961-0.158,1.267c-0.42,0.293-0.961,0.219-1.254-0.201c-0.263-0.364-0.189-0.905,0.145-1.224  C270.727,278.733,271.268,278.807,271.617,279.197C271.575,279.184,271.617,279.197,271.617,279.197L271.617,279.197z   M281.874,168.088c0.105,0.268,0.012,0.568-0.269,0.716c-0.268,0.105-0.568,0.012-0.716-0.269c-0.105-0.268-0.012-0.568,0.269-0.715  l0,0C281.426,167.714,281.769,167.82,281.874,168.088z M284.62,221.056c0.257,0.08,0.392,0.403,0.312,0.661  c-0.08,0.257-0.403,0.392-0.661,0.312c-0.257-0.08-0.392-0.403-0.312-0.661C284.096,221.082,284.376,220.934,284.62,221.056  L284.62,221.056z M272.72,216.849c0.287,0.136,0.392,0.403,0.299,0.704c-0.08,0.257-0.403,0.392-0.661,0.312l0,0  c-0.257-0.08-0.405-0.361-0.325-0.618l0.013-0.043C272.126,216.946,272.42,216.756,272.72,216.849  C272.677,216.835,272.72,216.849,272.72,216.849L272.72,216.849z M260.75,212.713c0.257,0.08,0.405,0.361,0.312,0.661  c-0.08,0.257-0.361,0.405-0.661,0.312l0,0c-0.257-0.08-0.405-0.361-0.325-0.618l0.013-0.043  C260.169,212.768,260.45,212.62,260.75,212.713L260.75,212.713L260.75,212.713z M281.917,194.465c0.006,0.284-0.202,0.501-0.5,0.55  c-0.284,0.006-0.514-0.16-0.563-0.457c0,0,0,0,0.013-0.043c-0.006-0.284,0.16-0.514,0.457-0.563l0.043,0.013  C281.651,193.96,281.869,194.168,281.917,194.465L281.917,194.465z M269.24,195.186c0.006,0.284-0.202,0.501-0.5,0.55  c-0.284,0.006-0.544-0.216-0.55-0.5c-0.049-0.297,0.16-0.514,0.414-0.577c0,0,0,0,0.043,0.013  C268.974,194.681,269.234,194.902,269.24,195.186L269.24,195.186L269.24,195.186z M266.151,240c0.217,0.208,0.266,0.505,0.058,0.723  c-0.208,0.217-0.505,0.266-0.723,0.058c-0.231-0.166-0.279-0.463-0.114-0.693c0,0,0.013-0.043,0.056-0.03  C265.593,239.827,265.933,239.792,266.151,240C266.108,239.987,266.151,240,266.151,240L266.151,240z M256.689,231.567  c0.217,0.208,0.253,0.548,0.044,0.766c-0.208,0.217-0.492,0.223-0.71,0.015l0,0c-0.231-0.166-0.279-0.463-0.114-0.693  c0,0,0.013-0.043,0.056-0.03C256.131,231.395,256.471,231.359,256.689,231.567L256.689,231.567L256.689,231.567z M282.632,167.007  c0.092,0.31-0.114,0.67-0.424,0.761c-0.31,0.092-0.67-0.114-0.761-0.424l0,0c-0.092-0.31,0.1-0.627,0.411-0.718l0,0  C282.181,166.492,282.511,166.641,282.632,167.007C282.645,166.964,282.645,166.964,282.632,167.007L282.632,167.007z   M288.754,223.184c0.287,0.136,0.365,0.489,0.243,0.733c-0.013,0.043-0.013,0.043-0.027,0.086c-0.179,0.274-0.532,0.352-0.819,0.216  c-0.274-0.179-0.395-0.545-0.259-0.832C288.071,223.113,288.467,223.048,288.754,223.184L288.754,223.184L288.754,223.184z   M276.223,216.008c0.274,0.179,0.395,0.545,0.216,0.819l0,0c-0.179,0.273-0.532,0.352-0.819,0.216  c-0.274-0.179-0.395-0.545-0.259-0.832C275.527,215.98,275.893,215.859,276.223,216.008L276.223,216.008z M263.58,208.892  c0.287,0.136,0.421,0.46,0.285,0.746c-0.013,0.043-0.013,0.043-0.027,0.086c-0.179,0.274-0.532,0.352-0.819,0.216  c-0.274-0.179-0.395-0.545-0.259-0.832C262.94,208.834,263.307,208.713,263.58,208.892L263.58,208.892z M291.214,192.978  c0.016,0.099,0.046,0.155,0.019,0.241c-0.05,0.313-0.315,0.56-0.628,0.51l0,0c-0.313-0.05-0.56-0.315-0.51-0.628l0.013-0.043  c0.05-0.313,0.315-0.56,0.628-0.51l0,0C290.964,192.571,291.151,192.724,291.214,192.978L291.214,192.978z M276.345,190.763  c0.327,0.007,0.56,0.315,0.51,0.628l0,0c-0.05,0.313-0.315,0.56-0.641,0.553c-0.313-0.05-0.547-0.358-0.54-0.684  C275.725,190.947,276.032,190.713,276.345,190.763L276.345,190.763z M262.054,188.963c0.313,0.05,0.547,0.358,0.497,0.671  c-0.05,0.313-0.358,0.547-0.671,0.497c-0.313-0.05-0.547-0.358-0.497-0.671l0,0C261.433,189.146,261.697,188.899,262.054,188.963  L262.054,188.963L262.054,188.963z M264.172,241.078c0.204,0.251,0.141,0.608-0.111,0.812l0,0c-0.251,0.204-0.608,0.141-0.812-0.111  c-0.204-0.251-0.197-0.578,0.055-0.782l0.013-0.043C263.568,240.75,263.968,240.827,264.172,241.078L264.172,241.078z M255.3,229.68  c0.204,0.251,0.154,0.565-0.055,0.782c0,0-0.013,0.043-0.056,0.03c-0.251,0.204-0.578,0.197-0.782-0.055l-0.043-0.013  c-0.204-0.251-0.17-0.664,0.081-0.868C254.74,229.365,255.096,229.429,255.3,229.68L255.3,229.68L255.3,229.68z M281.432,178.149  c0.541,0.074,0.936,0.619,0.862,1.16c-0.074,0.541-0.576,0.949-1.16,0.862c-0.541-0.074-0.936-0.619-0.862-1.16  C280.359,178.427,280.848,178.062,281.432,178.149z M287.42,259.003c0.322,0.476,0.222,1.103-0.211,1.438  c-0.433,0.336-1.116,0.265-1.438-0.211c-0.336-0.433-0.265-1.116,0.211-1.438l0,0C286.458,258.47,287.084,258.57,287.42,259.003  L287.42,259.003z M272.621,239.14c0.336,0.433,0.222,1.103-0.211,1.438c-0.476,0.322-1.103,0.222-1.481-0.224  c-0.322-0.476-0.222-1.103,0.254-1.425C271.658,238.607,272.285,238.707,272.621,239.14z M257.821,219.277  c0.336,0.433,0.222,1.103-0.211,1.438c-0.476,0.322-1.103,0.222-1.481-0.224c-0.336-0.433-0.235-1.06,0.198-1.395l0,0  c0.433-0.336,1.03-0.291,1.366,0.142C257.792,219.221,257.792,219.221,257.821,219.277L257.821,219.277z M307.177,218.935  c0.475,0.288,0.645,0.952,0.357,1.426l0,0c-0.288,0.475-0.896,0.615-1.37,0.327l0,0c-0.475-0.288-0.658-0.909-0.37-1.384  C306.082,218.83,306.69,218.69,307.177,218.935z M285.871,206.265c0.475,0.288,0.658,0.909,0.37,1.384l0,0  c-0.288,0.475-0.909,0.658-1.397,0.413c-0.475-0.288-0.658-0.909-0.413-1.397C284.733,206.147,285.354,205.964,285.871,206.265  L285.871,206.265z M264.621,193.565c0.475,0.288,0.602,0.939,0.314,1.413c-0.288,0.475-0.896,0.615-1.37,0.327  c-0.475-0.288-0.658-0.909-0.37-1.384C263.482,193.447,264.103,193.264,264.621,193.565L264.621,193.565L264.621,193.565z   M297.087,196.162c0.475,0.288,0.658,0.909,0.413,1.397c-0.245,0.488-0.866,0.671-1.354,0.426c-0.488-0.245-0.671-0.866-0.426-1.354  l0,0C295.979,196.1,296.599,195.917,297.087,196.162L297.087,196.162z M275.346,184.438c0.488,0.245,0.685,0.823,0.439,1.311  l-0.013,0.043c-0.245,0.488-0.866,0.671-1.397,0.413c-0.488-0.245-0.671-0.866-0.413-1.397  C274.238,184.376,274.858,184.193,275.346,184.438z M299.022,250.383c0.336,0.433,0.265,1.116-0.168,1.452  c-0.433,0.336-1.073,0.278-1.409-0.155c-0.349-0.39-0.334-1.044,0.099-1.379c0,0,0.013-0.043,0.056-0.03  C298.004,249.879,298.644,249.936,299.022,250.383C299.036,250.34,299.022,250.383,299.022,250.383z M283.443,231.218  c0.336,0.433,0.265,1.116-0.168,1.452s-1.073,0.278-1.409-0.155c-0.349-0.39-0.334-1.044,0.099-1.379c0,0,0.013-0.043,0.056-0.03  C282.424,230.714,283.064,230.771,283.443,231.218C283.456,231.175,283.443,231.218,283.443,231.218z M267.863,212.053  c0.336,0.433,0.265,1.116-0.168,1.452c-0.433,0.336-1.073,0.278-1.409-0.155c-0.379-0.446-0.321-1.086,0.125-1.465  C266.844,211.549,267.527,211.62,267.863,212.053L267.863,212.053z M299.669,207.537c0.333,0.291,0.371,0.773,0.08,1.106  c-0.278,0.29-0.717,0.342-1.063,0.093c-0.346-0.248-0.384-0.73-0.15-1.033c0.013-0.043,0.013-0.043,0.069-0.072  C298.841,207.327,299.323,207.288,299.669,207.537L299.669,207.537z M285.502,195.483c0.333,0.291,0.371,0.773,0.08,1.106  c-0.291,0.333-0.773,0.371-1.106,0.08l0,0c-0.333-0.291-0.371-0.773-0.093-1.063c0,0,0,0,0.013-0.043  C284.688,195.23,285.17,195.192,285.502,195.483L285.502,195.483z M271.336,183.429c0.333,0.291,0.371,0.773,0.08,1.106  c-0.291,0.333-0.773,0.371-1.106,0.08c-0.333-0.291-0.371-0.773-0.08-1.106l0,0C270.521,183.177,271.003,183.138,271.336,183.429  L271.336,183.429z M264.259,224.281c0.22,0.35,0.074,0.822-0.319,1.029l0,0c-0.35,0.22-0.822,0.074-1.042-0.276l-0.03-0.056  c-0.164-0.38-0.018-0.851,0.362-1.016C263.666,223.768,264.094,223.901,264.259,224.281L264.259,224.281z M255.818,207.706  c0.207,0.393,0.018,0.851-0.375,1.058c-0.38,0.164-0.809,0.031-1.029-0.319c-0.207-0.393-0.061-0.865,0.332-1.072  C255.139,207.167,255.611,207.313,255.818,207.706L255.818,207.706z M283.921,168.911c0.234,0.307,0.2,0.72-0.108,0.953l0,0  c-0.265,0.247-0.677,0.213-0.881-0.038l-0.03-0.056c-0.247-0.265-0.256-0.69,0.009-0.937c0,0,0.013-0.043,0.056-0.03  C283.19,168.543,283.602,168.577,283.921,168.911C283.892,168.855,283.892,168.855,283.921,168.911L283.921,168.911z"/>
<g>
	<path fill="#23286B" d="M83.617,80.68c-2.149,0-4.652-0.472-7.503-1.418c-0.524-0.174-0.808-0.74-0.634-1.264   c0.174-0.523,0.741-0.807,1.264-0.634c7.604,2.523,12.096,1.418,13.739-3.375c0.179-0.522,0.747-0.803,1.27-0.622   c0.522,0.179,0.801,0.748,0.622,1.27C90.996,78.661,88.061,80.68,83.617,80.68z"/>
</g>
<g>
	<path fill="#23286B" d="M53.479,80.525c-4.444,0-7.379-2.019-8.758-6.043c-0.179-0.522,0.1-1.091,0.622-1.271   c0.523-0.179,1.091,0.1,1.271,0.622c1.642,4.795,6.136,5.898,13.739,3.375c0.526-0.174,1.091,0.11,1.264,0.634   c0.174,0.524-0.11,1.09-0.634,1.264C58.132,80.053,55.629,80.525,53.479,80.525z"/>
</g>

      </g>
    </g>
</g>

<!-- ITEM 1 -->
<g>
    <defs>
        
        <clipPath id="clip-path-id-viewbox-item-1">
            <rect x="0.0" y="0.0" width="748.435" height="959.83"/>
        </clipPath>
    </defs>
    <g transform="translate(-43.0 181.0) rotate(-6.529545763682079 225.0 288.5) scale(0.6012546179694964 0.6011481199795797)">
      <g clip-path="url(#clip-path-id-viewbox-item-1)" transform="translate(-0.0 -0.0)">
      
<pattern x="-1565.627" y="-1347.164" width="270.62" height="299.62" patternUnits="userSpaceOnUse" id="New_Pattern_2-i1" viewBox="0 -339.239 270.62 299.62" overflow="visible">
	<g>
		<polygon fill="none" points="0,-339.239 270.62,-339.239 270.62,-39.62 0,-39.62   "/>
		<g>
			<g>
				
					<polyline fill="none" stroke="#E3EDFE" stroke-width="10" stroke-linecap="round" stroke-linejoin="round" stroke-miterlimit="10" points="      9.043,-285.951 59.951,-285.951 59.951,-235.043     "/>
				
					<polyline fill="none" stroke="#E3EDFE" stroke-width="10" stroke-linecap="round" stroke-linejoin="round" stroke-miterlimit="10" points="      41.271,-318.179 92.179,-318.179 92.179,-267.271     "/>
				
					<line fill="none" stroke="#E3EDFE" stroke-width="10" stroke-linecap="round" stroke-linejoin="round" stroke-miterlimit="10" x1="108.239" y1="-334.239" x2="5" y2="-231"/>
			</g>
			<g>
				
					<polyline fill="none" stroke="#E3EDFE" stroke-width="10" stroke-linecap="round" stroke-linejoin="round" stroke-miterlimit="10" points="      181.289,-147.043 181.289,-197.951 232.196,-197.951     "/>
				
					<polyline fill="none" stroke="#E3EDFE" stroke-width="10" stroke-linecap="round" stroke-linejoin="round" stroke-miterlimit="10" points="      149.061,-179.271 149.061,-230.179 199.968,-230.179     "/>
				
					<line fill="none" stroke="#E3EDFE" stroke-width="10" stroke-linecap="round" stroke-linejoin="round" stroke-miterlimit="10" x1="133" y1="-246.239" x2="236.239" y2="-143"/>
			</g>
			<g>
				
					<polyline fill="none" stroke="#E3EDFE" stroke-width="10" stroke-linecap="round" stroke-linejoin="round" stroke-miterlimit="10" points="      9.043,-147.951 59.951,-147.951 59.951,-97.043     "/>
				
					<polyline fill="none" stroke="#E3EDFE" stroke-width="10" stroke-linecap="round" stroke-linejoin="round" stroke-miterlimit="10" points="      41.271,-180.179 92.179,-180.179 92.179,-129.271     "/>
				
					<line fill="none" stroke="#E3EDFE" stroke-width="10" stroke-linecap="round" stroke-linejoin="round" stroke-miterlimit="10" x1="108.239" y1="-196.239" x2="5" y2="-93"/>
			</g>
			<g>
				
					<polyline fill="none" stroke="#E3EDFE" stroke-width="10" stroke-linecap="round" stroke-linejoin="round" stroke-miterlimit="10" points="      181.289,-9.043 181.289,-59.951 232.196,-59.951     "/>
				
					<polyline fill="none" stroke="#E3EDFE" stroke-width="10" stroke-linecap="round" stroke-linejoin="round" stroke-miterlimit="10" points="      149.061,-41.271 149.061,-92.179 199.968,-92.179     "/>
				
					<line fill="none" stroke="#E3EDFE" stroke-width="10" stroke-linecap="round" stroke-linejoin="round" stroke-miterlimit="10" x1="133" y1="-108.239" x2="236.239" y2="-5"/>
			</g>
		</g>
		<g>
			<g>
				
					<polyline fill="none" stroke="#E3EDFE" stroke-width="10" stroke-linecap="round" stroke-linejoin="round" stroke-miterlimit="10" points="      181.289,-308.663 181.289,-359.57 232.196,-359.57     "/>
				
					<polyline fill="none" stroke="#E3EDFE" stroke-width="10" stroke-linecap="round" stroke-linejoin="round" stroke-miterlimit="10" points="      149.061,-340.891 149.061,-391.798 199.968,-391.798     "/>
				
					<line fill="none" stroke="#E3EDFE" stroke-width="10" stroke-linecap="round" stroke-linejoin="round" stroke-miterlimit="10" x1="133" y1="-407.859" x2="236.239" y2="-304.62"/>
			</g>
		</g>
	</g>
</pattern>
<linearGradient id="SVGID_1_-i1" gradientUnits="userSpaceOnUse" x1="0" y1="673.3669" x2="748.4352" y2="673.3669">
	<stop offset="0" style="stop-color:#BBD4FD"/>
	<stop offset="1" style="stop-color:#81AEF2"/>
</linearGradient>
<path fill="url(#SVGID_1_-i1)" d="M0,852.305l374.218-465.401l374.218,465.401C497.801,995,248.312,996.341,0,852.305z"/>
<path fill="#A1C3FC" d="M0,688.739l374.218-465.401l374.218,465.401C497.801,831.434,248.312,832.774,0,688.739z"/>
<linearGradient id="SVGID_2_-i1" gradientUnits="userSpaceOnUse" x1="107.2565" y1="292.6064" x2="641.1786" y2="292.6064">
	<stop offset="0" style="stop-color:#BBD4FD"/>
	<stop offset="1" style="stop-color:#81AEF2"/>
</linearGradient>
<path fill="url(#SVGID_2_-i1)" d="M107.257,420.258l266.961-332.01l266.961,332.01C462.38,522.055,284.398,523.011,107.257,420.258z"/>
<path fill="#A1C3FC" d="M209.15,205.289L374.218,0l165.067,205.289C428.73,268.231,318.681,268.822,209.15,205.289z"/>
<pattern id="SVGID_3_-i1" xlink:href="#New_Pattern_2-i1" patternTransform="matrix(1 0 0 1 182.7608 -144)">
</pattern>
<path opacity="0.5" fill="url(#SVGID_3_-i1)" d="M748.435,688.739L563.132,458.284c25.998-10.537,52.014-23.205,78.047-38.026  L488.16,229.954c17.03-6.735,34.072-14.956,51.125-24.665L374.218,0L209.15,205.289c16.964,9.84,33.941,18.138,50.93,24.909  L107.256,420.258c25.896,15.021,51.81,27.808,77.741,38.406L0,688.739c31.136,18.061,62.29,33.833,93.463,47.33L0,852.306  c248.312,144.035,497.801,142.695,748.435,0L654.58,735.581C685.847,722.177,717.132,706.561,748.435,688.739z"/>

      </g>
    </g>
</g>

<!-- ITEM 2 -->
<g>
    <defs>
        
        <clipPath id="clip-path-id-viewbox-item-2">
            <rect x="0.0" y="0.0" width="100.0" height="100.0"/>
        </clipPath>
    </defs>
    <g transform="translate(337.0 282.0) rotate(0.0 22.5 22.5) scale(0.45 0.45)">
      <g clip-path="url(#clip-path-id-viewbox-item-2)" transform="translate(-0.0 -0.0)">
      
<linearGradient id="SVGID_1_-i2" gradientUnits="userSpaceOnUse" x1="15.3598" y1="-1.8805" x2="124.9214" y2="73.5168">
	<stop offset="0" style="stop-color:#EEEEEE"/>
	<stop offset="1" style="stop-color:#D6D7D8"/>
</linearGradient>
<polygon style="fill:url(#SVGID_1_-i2);" points="59.197,7.84 59.197,7 41.349,7 41.349,7.406 48.761,14.819 46.534,17.046   41.349,11.86 41.349,20.883 48.761,28.296 46.534,30.523 41.349,25.337 41.349,34.36 50.273,43.432 59.197,34.707 59.197,25.771   54.444,30.523 52.218,28.296 59.197,21.317 59.197,12.294 54.444,17.046 52.218,14.819 "/>
<linearGradient id="SVGID_2_-i2" gradientUnits="userSpaceOnUse" x1="1.1162" y1="18.8172" x2="110.6779" y2="94.2144">
	<stop offset="0" style="stop-color:#EEEEEE"/>
	<stop offset="1" style="stop-color:#D6D7D8"/>
</linearGradient>
<polygon style="fill:url(#SVGID_2_-i2);" points="18.086,20.945 17.359,20.525 8.435,35.982 8.786,36.185 18.912,33.472 19.728,36.514   12.644,38.412 20.458,42.924 30.584,40.211 31.399,43.253 24.315,45.151 32.13,49.662 44.448,46.47 41.354,34.379 33.615,29.911   35.354,36.402 32.312,37.217 29.758,27.684 21.943,23.172 23.683,29.664 20.64,30.479 "/>
<linearGradient id="SVGID_3_-i2" gradientUnits="userSpaceOnUse" x1="-11.4217" y1="37.0363" x2="98.14" y2="112.4336">
	<stop offset="0" style="stop-color:#EEEEEE"/>
	<stop offset="1" style="stop-color:#D6D7D8"/>
</linearGradient>
<polygon style="fill:url(#SVGID_3_-i2);" points="8.9,63.079 8.173,63.499 17.097,78.955 17.449,78.752 20.162,68.626 23.204,69.441   21.306,76.525 29.12,72.014 31.833,61.888 34.875,62.703 32.977,69.787 40.792,65.275 44.186,53.011 32.168,49.645 24.429,54.113   30.92,55.853 30.105,58.895 20.572,56.34 12.757,60.852 19.249,62.591 18.434,65.633 "/>
<linearGradient id="SVGID_4_-i2" gradientUnits="userSpaceOnUse" x1="-10.8447" y1="36.1979" x2="98.7169" y2="111.5952">
	<stop offset="0" style="stop-color:#EEEEEE"/>
	<stop offset="1" style="stop-color:#D6D7D8"/>
</linearGradient>
<polygon style="fill:url(#SVGID_4_-i2);" points="40.763,92.16 40.763,93 58.611,93 58.611,92.594 51.199,85.181 53.425,82.954   58.611,88.14 58.611,79.117 51.199,71.704 53.425,69.477 58.611,74.663 58.611,65.64 49.687,56.568 40.763,65.293 40.763,74.229   45.516,69.477 47.742,71.704 40.763,78.683 40.763,87.706 45.516,82.954 47.742,85.181 "/>
<linearGradient id="SVGID_5_-i2" gradientUnits="userSpaceOnUse" x1="3.4023" y1="15.4952" x2="112.964" y2="90.8924">
	<stop offset="0" style="stop-color:#EEEEEE"/>
	<stop offset="1" style="stop-color:#D6D7D8"/>
</linearGradient>
<polygon style="fill:url(#SVGID_5_-i2);" points="81.914,79.075 82.641,79.495 91.565,64.038 91.214,63.835 81.088,66.548   80.272,63.506 87.356,61.608 79.542,57.096 69.416,59.809 68.601,56.767 75.685,54.869 67.87,50.358 55.552,53.55 58.646,65.641   66.385,70.109 64.646,63.618 67.688,62.803 70.242,72.336 78.057,76.848 76.317,70.356 79.36,69.541 "/>
<linearGradient id="SVGID_6_-i2" gradientUnits="userSpaceOnUse" x1="15.9403" y1="-2.724" x2="125.5019" y2="72.6733">
	<stop offset="0" style="stop-color:#EEEEEE"/>
	<stop offset="1" style="stop-color:#D6D7D8"/>
</linearGradient>
<polygon style="fill:url(#SVGID_6_-i2);" points="91.1,36.941 91.827,36.521 82.903,21.065 82.551,21.268 79.838,31.394 76.796,30.579   78.694,23.495 70.88,28.006 68.167,38.132 65.125,37.317 67.023,30.233 59.208,34.745 55.814,47.009 67.832,50.375 75.571,45.907   69.08,44.167 69.895,41.125 79.428,43.68 87.243,39.168 80.751,37.429 81.566,34.387 "/>

      </g>
    </g>
</g>

<!-- ITEM 3 -->
<g>
    <defs>
        
        <clipPath id="clip-path-id-viewbox-item-3">
            <rect x="0.0" y="0.0" width="100.0" height="100.0"/>
        </clipPath>
    </defs>
    <g transform="translate(47.0 164.0) rotate(0.0 17.0 17.0) scale(0.34 0.34)">
      <g clip-path="url(#clip-path-id-viewbox-item-3)" transform="translate(-0.0 -0.0)">
      
<linearGradient id="SVGID_1_-i3" gradientUnits="userSpaceOnUse" x1="15.3598" y1="-1.8805" x2="124.9214" y2="73.5168">
	<stop offset="0" style="stop-color:#EEEEEE"/>
	<stop offset="1" style="stop-color:#D6D7D8"/>
</linearGradient>
<polygon style="fill:url(#SVGID_1_-i3);" points="59.197,7.84 59.197,7 41.349,7 41.349,7.406 48.761,14.819 46.534,17.046   41.349,11.86 41.349,20.883 48.761,28.296 46.534,30.523 41.349,25.337 41.349,34.36 50.273,43.432 59.197,34.707 59.197,25.771   54.444,30.523 52.218,28.296 59.197,21.317 59.197,12.294 54.444,17.046 52.218,14.819 "/>
<linearGradient id="SVGID_2_-i3" gradientUnits="userSpaceOnUse" x1="1.1162" y1="18.8172" x2="110.6779" y2="94.2144">
	<stop offset="0" style="stop-color:#EEEEEE"/>
	<stop offset="1" style="stop-color:#D6D7D8"/>
</linearGradient>
<polygon style="fill:url(#SVGID_2_-i3);" points="18.086,20.945 17.359,20.525 8.435,35.982 8.786,36.185 18.912,33.472 19.728,36.514   12.644,38.412 20.458,42.924 30.584,40.211 31.399,43.253 24.315,45.151 32.13,49.662 44.448,46.47 41.354,34.379 33.615,29.911   35.354,36.402 32.312,37.217 29.758,27.684 21.943,23.172 23.683,29.664 20.64,30.479 "/>
<linearGradient id="SVGID_3_-i3" gradientUnits="userSpaceOnUse" x1="-11.4217" y1="37.0363" x2="98.14" y2="112.4336">
	<stop offset="0" style="stop-color:#EEEEEE"/>
	<stop offset="1" style="stop-color:#D6D7D8"/>
</linearGradient>
<polygon style="fill:url(#SVGID_3_-i3);" points="8.9,63.079 8.173,63.499 17.097,78.955 17.449,78.752 20.162,68.626 23.204,69.441   21.306,76.525 29.12,72.014 31.833,61.888 34.875,62.703 32.977,69.787 40.792,65.275 44.186,53.011 32.168,49.645 24.429,54.113   30.92,55.853 30.105,58.895 20.572,56.34 12.757,60.852 19.249,62.591 18.434,65.633 "/>
<linearGradient id="SVGID_4_-i3" gradientUnits="userSpaceOnUse" x1="-10.8447" y1="36.1979" x2="98.7169" y2="111.5952">
	<stop offset="0" style="stop-color:#EEEEEE"/>
	<stop offset="1" style="stop-color:#D6D7D8"/>
</linearGradient>
<polygon style="fill:url(#SVGID_4_-i3);" points="40.763,92.16 40.763,93 58.611,93 58.611,92.594 51.199,85.181 53.425,82.954   58.611,88.14 58.611,79.117 51.199,71.704 53.425,69.477 58.611,74.663 58.611,65.64 49.687,56.568 40.763,65.293 40.763,74.229   45.516,69.477 47.742,71.704 40.763,78.683 40.763,87.706 45.516,82.954 47.742,85.181 "/>
<linearGradient id="SVGID_5_-i3" gradientUnits="userSpaceOnUse" x1="3.4023" y1="15.4952" x2="112.964" y2="90.8924">
	<stop offset="0" style="stop-color:#EEEEEE"/>
	<stop offset="1" style="stop-color:#D6D7D8"/>
</linearGradient>
<polygon style="fill:url(#SVGID_5_-i3);" points="81.914,79.075 82.641,79.495 91.565,64.038 91.214,63.835 81.088,66.548   80.272,63.506 87.356,61.608 79.542,57.096 69.416,59.809 68.601,56.767 75.685,54.869 67.87,50.358 55.552,53.55 58.646,65.641   66.385,70.109 64.646,63.618 67.688,62.803 70.242,72.336 78.057,76.848 76.317,70.356 79.36,69.541 "/>
<linearGradient id="SVGID_6_-i3" gradientUnits="userSpaceOnUse" x1="15.9403" y1="-2.724" x2="125.5019" y2="72.6733">
	<stop offset="0" style="stop-color:#EEEEEE"/>
	<stop offset="1" style="stop-color:#D6D7D8"/>
</linearGradient>
<polygon style="fill:url(#SVGID_6_-i3);" points="91.1,36.941 91.827,36.521 82.903,21.065 82.551,21.268 79.838,31.394 76.796,30.579   78.694,23.495 70.88,28.006 68.167,38.132 65.125,37.317 67.023,30.233 59.208,34.745 55.814,47.009 67.832,50.375 75.571,45.907   69.08,44.167 69.895,41.125 79.428,43.68 87.243,39.168 80.751,37.429 81.566,34.387 "/>

      </g>
    </g>
</g>

<!-- ITEM 4 -->
<g>
    <defs>
        
        <clipPath id="clip-path-id-viewbox-item-4">
            <rect x="0.0" y="0.0" width="100.0" height="100.0"/>
        </clipPath>
    </defs>
    <g transform="translate(426.0 402.0) rotate(0.0 32.5 32.5) scale(0.65 0.65)">
      <g clip-path="url(#clip-path-id-viewbox-item-4)" transform="translate(-0.0 -0.0)">
      
<linearGradient id="SVGID_1_-i4" gradientUnits="userSpaceOnUse" x1="15.3598" y1="-1.8805" x2="124.9214" y2="73.5168">
	<stop offset="0" style="stop-color:#EEEEEE"/>
	<stop offset="1" style="stop-color:#D6D7D8"/>
</linearGradient>
<polygon style="fill:url(#SVGID_1_-i4);" points="59.197,7.84 59.197,7 41.349,7 41.349,7.406 48.761,14.819 46.534,17.046   41.349,11.86 41.349,20.883 48.761,28.296 46.534,30.523 41.349,25.337 41.349,34.36 50.273,43.432 59.197,34.707 59.197,25.771   54.444,30.523 52.218,28.296 59.197,21.317 59.197,12.294 54.444,17.046 52.218,14.819 "/>
<linearGradient id="SVGID_2_-i4" gradientUnits="userSpaceOnUse" x1="1.1162" y1="18.8172" x2="110.6779" y2="94.2144">
	<stop offset="0" style="stop-color:#EEEEEE"/>
	<stop offset="1" style="stop-color:#D6D7D8"/>
</linearGradient>
<polygon style="fill:url(#SVGID_2_-i4);" points="18.086,20.945 17.359,20.525 8.435,35.982 8.786,36.185 18.912,33.472 19.728,36.514   12.644,38.412 20.458,42.924 30.584,40.211 31.399,43.253 24.315,45.151 32.13,49.662 44.448,46.47 41.354,34.379 33.615,29.911   35.354,36.402 32.312,37.217 29.758,27.684 21.943,23.172 23.683,29.664 20.64,30.479 "/>
<linearGradient id="SVGID_3_-i4" gradientUnits="userSpaceOnUse" x1="-11.4217" y1="37.0363" x2="98.14" y2="112.4336">
	<stop offset="0" style="stop-color:#EEEEEE"/>
	<stop offset="1" style="stop-color:#D6D7D8"/>
</linearGradient>
<polygon style="fill:url(#SVGID_3_-i4);" points="8.9,63.079 8.173,63.499 17.097,78.955 17.449,78.752 20.162,68.626 23.204,69.441   21.306,76.525 29.12,72.014 31.833,61.888 34.875,62.703 32.977,69.787 40.792,65.275 44.186,53.011 32.168,49.645 24.429,54.113   30.92,55.853 30.105,58.895 20.572,56.34 12.757,60.852 19.249,62.591 18.434,65.633 "/>
<linearGradient id="SVGID_4_-i4" gradientUnits="userSpaceOnUse" x1="-10.8447" y1="36.1979" x2="98.7169" y2="111.5952">
	<stop offset="0" style="stop-color:#EEEEEE"/>
	<stop offset="1" style="stop-color:#D6D7D8"/>
</linearGradient>
<polygon style="fill:url(#SVGID_4_-i4);" points="40.763,92.16 40.763,93 58.611,93 58.611,92.594 51.199,85.181 53.425,82.954   58.611,88.14 58.611,79.117 51.199,71.704 53.425,69.477 58.611,74.663 58.611,65.64 49.687,56.568 40.763,65.293 40.763,74.229   45.516,69.477 47.742,71.704 40.763,78.683 40.763,87.706 45.516,82.954 47.742,85.181 "/>
<linearGradient id="SVGID_5_-i4" gradientUnits="userSpaceOnUse" x1="3.4023" y1="15.4952" x2="112.964" y2="90.8924">
	<stop offset="0" style="stop-color:#EEEEEE"/>
	<stop offset="1" style="stop-color:#D6D7D8"/>
</linearGradient>
<polygon style="fill:url(#SVGID_5_-i4);" points="81.914,79.075 82.641,79.495 91.565,64.038 91.214,63.835 81.088,66.548   80.272,63.506 87.356,61.608 79.542,57.096 69.416,59.809 68.601,56.767 75.685,54.869 67.87,50.358 55.552,53.55 58.646,65.641   66.385,70.109 64.646,63.618 67.688,62.803 70.242,72.336 78.057,76.848 76.317,70.356 79.36,69.541 "/>
<linearGradient id="SVGID_6_-i4" gradientUnits="userSpaceOnUse" x1="15.9403" y1="-2.724" x2="125.5019" y2="72.6733">
	<stop offset="0" style="stop-color:#EEEEEE"/>
	<stop offset="1" style="stop-color:#D6D7D8"/>
</linearGradient>
<polygon style="fill:url(#SVGID_6_-i4);" points="91.1,36.941 91.827,36.521 82.903,21.065 82.551,21.268 79.838,31.394 76.796,30.579   78.694,23.495 70.88,28.006 68.167,38.132 65.125,37.317 67.023,30.233 59.208,34.745 55.814,47.009 67.832,50.375 75.571,45.907   69.08,44.167 69.895,41.125 79.428,43.68 87.243,39.168 80.751,37.429 81.566,34.387 "/>

      </g>
    </g>
</g>

<!-- ITEM 5 -->
<g>
    <defs>
        
        <clipPath id="clip-path-id-viewbox-item-5">
            <rect x="0.0" y="0.0" width="69.064" height="48.963"/>
        </clipPath>
    </defs>
    <g transform="translate(278.0 94.0) rotate(0.0 -25.0 17.5) scale(-0.7239661763002433 0.7148254804648407)">
      <g clip-path="url(#clip-path-id-viewbox-item-5)" transform="translate(-0.0 -0.0)">
      
<polygon fill="#A1C3FC" points="14.371,22.846 0,30.389 13.592,35.611 "/>
<g>
	<polygon fill="#A1C3FC" points="15.191,20.55 0.82,28.092 14.412,33.315  "/>
	<g>
		<g>
			
				<linearGradient id="SVGID_1_-i5" gradientUnits="userSpaceOnUse" x1="-210.6985" y1="-906.3441" x2="-150.9044" y2="-906.3441" gradientTransform="matrix(0.9981 0.0609 -0.0609 0.9981 163.868 944.5246)">
				<stop offset="0.4892" style="stop-color:#A1C3FC"/>
				<stop offset="1" style="stop-color:#78A9EF"/>
			</linearGradient>
			<path fill="url(#SVGID_1_-i5)" d="M68.034,12.576c-0.227-0.766-0.781-2.242-0.781-2.242s-9.951,9.35-28.804,6.434     c-0.165-0.025-0.329-0.048-0.494-0.073c-2.713-3.756-7.024-6.312-12.009-6.616c-8.015-0.489-14.992,5.013-16.615,12.636     c-0.494,1.444-0.602,3.152-0.256,5.152c0.29,2.573,1.193,4.969,2.57,7.04c6.244,11.271,20.759,16.861,34.942,12.659     C62.74,42.783,72.342,27.117,68.034,12.576z"/>
		</g>
	</g>
	<path fill="#A1C3FC" d="M45.382,0.477c7.783,3.395,11.232,12.702,7.705,20.789c-3.527,8.086-12.696,11.89-20.479,8.495   s-2.459-10.448,4.335-16.075C44.738,7.229,44.142,0,44.142,0S44.972,0.298,45.382,0.477z"/>
	<circle fill="#23286B" cx="17.126" cy="24.327" r="2.645"/>
</g>

      </g>
    </g>
</g>

<!-- ITEM 6 -->
<g>
    <defs>
        
        <clipPath id="clip-path-id-viewbox-item-6">
            <rect x="0.0" y="0.0" width="100.0" height="100.0"/>
        </clipPath>
    </defs>
    <g transform="translate(935.0 510.0) rotate(0.0 26.0 26.0) scale(0.52 0.52)">
      <g clip-path="url(#clip-path-id-viewbox-item-6)" transform="translate(-0.0 -0.0)">
      
<linearGradient id="SVGID_1_-i6" gradientUnits="userSpaceOnUse" x1="15.3598" y1="-1.8805" x2="124.9214" y2="73.5168">
	<stop offset="0" style="stop-color:#EEEEEE"/>
	<stop offset="1" style="stop-color:#D6D7D8"/>
</linearGradient>
<polygon style="fill:url(#SVGID_1_-i6);" points="59.197,7.84 59.197,7 41.349,7 41.349,7.406 48.761,14.819 46.534,17.046   41.349,11.86 41.349,20.883 48.761,28.296 46.534,30.523 41.349,25.337 41.349,34.36 50.273,43.432 59.197,34.707 59.197,25.771   54.444,30.523 52.218,28.296 59.197,21.317 59.197,12.294 54.444,17.046 52.218,14.819 "/>
<linearGradient id="SVGID_2_-i6" gradientUnits="userSpaceOnUse" x1="1.1162" y1="18.8172" x2="110.6779" y2="94.2144">
	<stop offset="0" style="stop-color:#EEEEEE"/>
	<stop offset="1" style="stop-color:#D6D7D8"/>
</linearGradient>
<polygon style="fill:url(#SVGID_2_-i6);" points="18.086,20.945 17.359,20.525 8.435,35.982 8.786,36.185 18.912,33.472 19.728,36.514   12.644,38.412 20.458,42.924 30.584,40.211 31.399,43.253 24.315,45.151 32.13,49.662 44.448,46.47 41.354,34.379 33.615,29.911   35.354,36.402 32.312,37.217 29.758,27.684 21.943,23.172 23.683,29.664 20.64,30.479 "/>
<linearGradient id="SVGID_3_-i6" gradientUnits="userSpaceOnUse" x1="-11.4217" y1="37.0363" x2="98.14" y2="112.4336">
	<stop offset="0" style="stop-color:#EEEEEE"/>
	<stop offset="1" style="stop-color:#D6D7D8"/>
</linearGradient>
<polygon style="fill:url(#SVGID_3_-i6);" points="8.9,63.079 8.173,63.499 17.097,78.955 17.449,78.752 20.162,68.626 23.204,69.441   21.306,76.525 29.12,72.014 31.833,61.888 34.875,62.703 32.977,69.787 40.792,65.275 44.186,53.011 32.168,49.645 24.429,54.113   30.92,55.853 30.105,58.895 20.572,56.34 12.757,60.852 19.249,62.591 18.434,65.633 "/>
<linearGradient id="SVGID_4_-i6" gradientUnits="userSpaceOnUse" x1="-10.8447" y1="36.1979" x2="98.7169" y2="111.5952">
	<stop offset="0" style="stop-color:#EEEEEE"/>
	<stop offset="1" style="stop-color:#D6D7D8"/>
</linearGradient>
<polygon style="fill:url(#SVGID_4_-i6);" points="40.763,92.16 40.763,93 58.611,93 58.611,92.594 51.199,85.181 53.425,82.954   58.611,88.14 58.611,79.117 51.199,71.704 53.425,69.477 58.611,74.663 58.611,65.64 49.687,56.568 40.763,65.293 40.763,74.229   45.516,69.477 47.742,71.704 40.763,78.683 40.763,87.706 45.516,82.954 47.742,85.181 "/>
<linearGradient id="SVGID_5_-i6" gradientUnits="userSpaceOnUse" x1="3.4023" y1="15.4952" x2="112.964" y2="90.8924">
	<stop offset="0" style="stop-color:#EEEEEE"/>
	<stop offset="1" style="stop-color:#D6D7D8"/>
</linearGradient>
<polygon style="fill:url(#SVGID_5_-i6);" points="81.914,79.075 82.641,79.495 91.565,64.038 91.214,63.835 81.088,66.548   80.272,63.506 87.356,61.608 79.542,57.096 69.416,59.809 68.601,56.767 75.685,54.869 67.87,50.358 55.552,53.55 58.646,65.641   66.385,70.109 64.646,63.618 67.688,62.803 70.242,72.336 78.057,76.848 76.317,70.356 79.36,69.541 "/>
<linearGradient id="SVGID_6_-i6" gradientUnits="userSpaceOnUse" x1="15.9403" y1="-2.724" x2="125.5019" y2="72.6733">
	<stop offset="0" style="stop-color:#EEEEEE"/>
	<stop offset="1" style="stop-color:#D6D7D8"/>
</linearGradient>
<polygon style="fill:url(#SVGID_6_-i6);" points="91.1,36.941 91.827,36.521 82.903,21.065 82.551,21.268 79.838,31.394 76.796,30.579   78.694,23.495 70.88,28.006 68.167,38.132 65.125,37.317 67.023,30.233 59.208,34.745 55.814,47.009 67.832,50.375 75.571,45.907   69.08,44.167 69.895,41.125 79.428,43.68 87.243,39.168 80.751,37.429 81.566,34.387 "/>

      </g>
    </g>
</g>

<!-- ITEM 7 -->
<g>
    <defs>
        
        <clipPath id="clip-path-id-viewbox-item-7">
            <rect x="0.0" y="0.0" width="748.435" height="959.83"/>
        </clipPath>
    </defs>
    <g transform="translate(985.0 36.0) rotate(6.257866002121486 119.0 152.5) scale(0.3179968868372003 0.3177646041486513)">
      <g clip-path="url(#clip-path-id-viewbox-item-7)" transform="translate(-0.0 -0.0)">
      
<pattern x="-1565.627" y="-1347.164" width="270.62" height="299.62" patternUnits="userSpaceOnUse" id="New_Pattern_2-i7" viewBox="0 -339.239 270.62 299.62" overflow="visible">
	<g>
		<polygon fill="none" points="0,-339.239 270.62,-339.239 270.62,-39.62 0,-39.62   "/>
		<g>
			<g>
				
					<polyline fill="none" stroke="#E3EDFE" stroke-width="10" stroke-linecap="round" stroke-linejoin="round" stroke-miterlimit="10" points="      9.043,-285.951 59.951,-285.951 59.951,-235.043     "/>
				
					<polyline fill="none" stroke="#E3EDFE" stroke-width="10" stroke-linecap="round" stroke-linejoin="round" stroke-miterlimit="10" points="      41.271,-318.179 92.179,-318.179 92.179,-267.271     "/>
				
					<line fill="none" stroke="#E3EDFE" stroke-width="10" stroke-linecap="round" stroke-linejoin="round" stroke-miterlimit="10" x1="108.239" y1="-334.239" x2="5" y2="-231"/>
			</g>
			<g>
				
					<polyline fill="none" stroke="#E3EDFE" stroke-width="10" stroke-linecap="round" stroke-linejoin="round" stroke-miterlimit="10" points="      181.289,-147.043 181.289,-197.951 232.196,-197.951     "/>
				
					<polyline fill="none" stroke="#E3EDFE" stroke-width="10" stroke-linecap="round" stroke-linejoin="round" stroke-miterlimit="10" points="      149.061,-179.271 149.061,-230.179 199.968,-230.179     "/>
				
					<line fill="none" stroke="#E3EDFE" stroke-width="10" stroke-linecap="round" stroke-linejoin="round" stroke-miterlimit="10" x1="133" y1="-246.239" x2="236.239" y2="-143"/>
			</g>
			<g>
				
					<polyline fill="none" stroke="#E3EDFE" stroke-width="10" stroke-linecap="round" stroke-linejoin="round" stroke-miterlimit="10" points="      9.043,-147.951 59.951,-147.951 59.951,-97.043     "/>
				
					<polyline fill="none" stroke="#E3EDFE" stroke-width="10" stroke-linecap="round" stroke-linejoin="round" stroke-miterlimit="10" points="      41.271,-180.179 92.179,-180.179 92.179,-129.271     "/>
				
					<line fill="none" stroke="#E3EDFE" stroke-width="10" stroke-linecap="round" stroke-linejoin="round" stroke-miterlimit="10" x1="108.239" y1="-196.239" x2="5" y2="-93"/>
			</g>
			<g>
				
					<polyline fill="none" stroke="#E3EDFE" stroke-width="10" stroke-linecap="round" stroke-linejoin="round" stroke-miterlimit="10" points="      181.289,-9.043 181.289,-59.951 232.196,-59.951     "/>
				
					<polyline fill="none" stroke="#E3EDFE" stroke-width="10" stroke-linecap="round" stroke-linejoin="round" stroke-miterlimit="10" points="      149.061,-41.271 149.061,-92.179 199.968,-92.179     "/>
				
					<line fill="none" stroke="#E3EDFE" stroke-width="10" stroke-linecap="round" stroke-linejoin="round" stroke-miterlimit="10" x1="133" y1="-108.239" x2="236.239" y2="-5"/>
			</g>
		</g>
		<g>
			<g>
				
					<polyline fill="none" stroke="#E3EDFE" stroke-width="10" stroke-linecap="round" stroke-linejoin="round" stroke-miterlimit="10" points="      181.289,-308.663 181.289,-359.57 232.196,-359.57     "/>
				
					<polyline fill="none" stroke="#E3EDFE" stroke-width="10" stroke-linecap="round" stroke-linejoin="round" stroke-miterlimit="10" points="      149.061,-340.891 149.061,-391.798 199.968,-391.798     "/>
				
					<line fill="none" stroke="#E3EDFE" stroke-width="10" stroke-linecap="round" stroke-linejoin="round" stroke-miterlimit="10" x1="133" y1="-407.859" x2="236.239" y2="-304.62"/>
			</g>
		</g>
	</g>
</pattern>
<linearGradient id="SVGID_1_-i7" gradientUnits="userSpaceOnUse" x1="0" y1="673.3669" x2="748.4352" y2="673.3669">
	<stop offset="0" style="stop-color:#BBD4FD"/>
	<stop offset="1" style="stop-color:#81AEF2"/>
</linearGradient>
<path fill="url(#SVGID_1_-i7)" d="M0,852.305l374.218-465.401l374.218,465.401C497.801,995,248.312,996.341,0,852.305z"/>
<path fill="#A1C3FC" d="M0,688.739l374.218-465.401l374.218,465.401C497.801,831.434,248.312,832.774,0,688.739z"/>
<linearGradient id="SVGID_2_-i7" gradientUnits="userSpaceOnUse" x1="107.2565" y1="292.6064" x2="641.1786" y2="292.6064">
	<stop offset="0" style="stop-color:#BBD4FD"/>
	<stop offset="1" style="stop-color:#81AEF2"/>
</linearGradient>
<path fill="url(#SVGID_2_-i7)" d="M107.257,420.258l266.961-332.01l266.961,332.01C462.38,522.055,284.398,523.011,107.257,420.258z"/>
<path fill="#A1C3FC" d="M209.15,205.289L374.218,0l165.067,205.289C428.73,268.231,318.681,268.822,209.15,205.289z"/>
<pattern id="SVGID_3_-i7" xlink:href="#New_Pattern_2-i7" patternTransform="matrix(1 0 0 1 182.7608 -144)">
</pattern>
<path opacity="0.5" fill="url(#SVGID_3_-i7)" d="M748.435,688.739L563.132,458.284c25.998-10.537,52.014-23.205,78.047-38.026  L488.16,229.954c17.03-6.735,34.072-14.956,51.125-24.665L374.218,0L209.15,205.289c16.964,9.84,33.941,18.138,50.93,24.909  L107.256,420.258c25.896,15.021,51.81,27.808,77.741,38.406L0,688.739c31.136,18.061,62.29,33.833,93.463,47.33L0,852.306  c248.312,144.035,497.801,142.695,748.435,0L654.58,735.581C685.847,722.177,717.132,706.561,748.435,688.739z"/>

      </g>
    </g>
</g>

<!-- ITEM 8 -->
<g>
    <defs>
        
        <clipPath id="clip-path-id-viewbox-item-8">
            <rect x="0.0" y="0.0" width="100.0" height="100.0"/>
        </clipPath>
    </defs>
    <g transform="translate(1024.0 420.0) rotate(0.0 15.5 15.5) scale(0.31 0.31)">
      <g clip-path="url(#clip-path-id-viewbox-item-8)" transform="translate(-0.0 -0.0)">
      
<linearGradient id="SVGID_1_-i8" gradientUnits="userSpaceOnUse" x1="15.3598" y1="-1.8805" x2="124.9214" y2="73.5168">
	<stop offset="0" style="stop-color:#EEEEEE"/>
	<stop offset="1" style="stop-color:#D6D7D8"/>
</linearGradient>
<polygon style="fill:url(#SVGID_1_-i8);" points="59.197,7.84 59.197,7 41.349,7 41.349,7.406 48.761,14.819 46.534,17.046   41.349,11.86 41.349,20.883 48.761,28.296 46.534,30.523 41.349,25.337 41.349,34.36 50.273,43.432 59.197,34.707 59.197,25.771   54.444,30.523 52.218,28.296 59.197,21.317 59.197,12.294 54.444,17.046 52.218,14.819 "/>
<linearGradient id="SVGID_2_-i8" gradientUnits="userSpaceOnUse" x1="1.1162" y1="18.8172" x2="110.6779" y2="94.2144">
	<stop offset="0" style="stop-color:#EEEEEE"/>
	<stop offset="1" style="stop-color:#D6D7D8"/>
</linearGradient>
<polygon style="fill:url(#SVGID_2_-i8);" points="18.086,20.945 17.359,20.525 8.435,35.982 8.786,36.185 18.912,33.472 19.728,36.514   12.644,38.412 20.458,42.924 30.584,40.211 31.399,43.253 24.315,45.151 32.13,49.662 44.448,46.47 41.354,34.379 33.615,29.911   35.354,36.402 32.312,37.217 29.758,27.684 21.943,23.172 23.683,29.664 20.64,30.479 "/>
<linearGradient id="SVGID_3_-i8" gradientUnits="userSpaceOnUse" x1="-11.4217" y1="37.0363" x2="98.14" y2="112.4336">
	<stop offset="0" style="stop-color:#EEEEEE"/>
	<stop offset="1" style="stop-color:#D6D7D8"/>
</linearGradient>
<polygon style="fill:url(#SVGID_3_-i8);" points="8.9,63.079 8.173,63.499 17.097,78.955 17.449,78.752 20.162,68.626 23.204,69.441   21.306,76.525 29.12,72.014 31.833,61.888 34.875,62.703 32.977,69.787 40.792,65.275 44.186,53.011 32.168,49.645 24.429,54.113   30.92,55.853 30.105,58.895 20.572,56.34 12.757,60.852 19.249,62.591 18.434,65.633 "/>
<linearGradient id="SVGID_4_-i8" gradientUnits="userSpaceOnUse" x1="-10.8447" y1="36.1979" x2="98.7169" y2="111.5952">
	<stop offset="0" style="stop-color:#EEEEEE"/>
	<stop offset="1" style="stop-color:#D6D7D8"/>
</linearGradient>
<polygon style="fill:url(#SVGID_4_-i8);" points="40.763,92.16 40.763,93 58.611,93 58.611,92.594 51.199,85.181 53.425,82.954   58.611,88.14 58.611,79.117 51.199,71.704 53.425,69.477 58.611,74.663 58.611,65.64 49.687,56.568 40.763,65.293 40.763,74.229   45.516,69.477 47.742,71.704 40.763,78.683 40.763,87.706 45.516,82.954 47.742,85.181 "/>
<linearGradient id="SVGID_5_-i8" gradientUnits="userSpaceOnUse" x1="3.4023" y1="15.4952" x2="112.964" y2="90.8924">
	<stop offset="0" style="stop-color:#EEEEEE"/>
	<stop offset="1" style="stop-color:#D6D7D8"/>
</linearGradient>
<polygon style="fill:url(#SVGID_5_-i8);" points="81.914,79.075 82.641,79.495 91.565,64.038 91.214,63.835 81.088,66.548   80.272,63.506 87.356,61.608 79.542,57.096 69.416,59.809 68.601,56.767 75.685,54.869 67.87,50.358 55.552,53.55 58.646,65.641   66.385,70.109 64.646,63.618 67.688,62.803 70.242,72.336 78.057,76.848 76.317,70.356 79.36,69.541 "/>
<linearGradient id="SVGID_6_-i8" gradientUnits="userSpaceOnUse" x1="15.9403" y1="-2.724" x2="125.5019" y2="72.6733">
	<stop offset="0" style="stop-color:#EEEEEE"/>
	<stop offset="1" style="stop-color:#D6D7D8"/>
</linearGradient>
<polygon style="fill:url(#SVGID_6_-i8);" points="91.1,36.941 91.827,36.521 82.903,21.065 82.551,21.268 79.838,31.394 76.796,30.579   78.694,23.495 70.88,28.006 68.167,38.132 65.125,37.317 67.023,30.233 59.208,34.745 55.814,47.009 67.832,50.375 75.571,45.907   69.08,44.167 69.895,41.125 79.428,43.68 87.243,39.168 80.751,37.429 81.566,34.387 "/>

      </g>
    </g>
</g>

<!-- ITEM 9 -->
<g>
    <defs>
        
        <clipPath id="clip-path-id-viewbox-item-9">
            <rect x="0.0" y="0.0" width="100.0" height="100.0"/>
        </clipPath>
    </defs>
    <g transform="translate(980.0 50.0) rotate(0.0 14.0 14.0) scale(0.28 0.28)">
      <g clip-path="url(#clip-path-id-viewbox-item-9)" transform="translate(-0.0 -0.0)">
      
<linearGradient id="SVGID_1_-i9" gradientUnits="userSpaceOnUse" x1="15.3598" y1="-1.8805" x2="124.9214" y2="73.5168">
	<stop offset="0" style="stop-color:#EEEEEE"/>
	<stop offset="1" style="stop-color:#D6D7D8"/>
</linearGradient>
<polygon style="fill:url(#SVGID_1_-i9);" points="59.197,7.84 59.197,7 41.349,7 41.349,7.406 48.761,14.819 46.534,17.046   41.349,11.86 41.349,20.883 48.761,28.296 46.534,30.523 41.349,25.337 41.349,34.36 50.273,43.432 59.197,34.707 59.197,25.771   54.444,30.523 52.218,28.296 59.197,21.317 59.197,12.294 54.444,17.046 52.218,14.819 "/>
<linearGradient id="SVGID_2_-i9" gradientUnits="userSpaceOnUse" x1="1.1162" y1="18.8172" x2="110.6779" y2="94.2144">
	<stop offset="0" style="stop-color:#EEEEEE"/>
	<stop offset="1" style="stop-color:#D6D7D8"/>
</linearGradient>
<polygon style="fill:url(#SVGID_2_-i9);" points="18.086,20.945 17.359,20.525 8.435,35.982 8.786,36.185 18.912,33.472 19.728,36.514   12.644,38.412 20.458,42.924 30.584,40.211 31.399,43.253 24.315,45.151 32.13,49.662 44.448,46.47 41.354,34.379 33.615,29.911   35.354,36.402 32.312,37.217 29.758,27.684 21.943,23.172 23.683,29.664 20.64,30.479 "/>
<linearGradient id="SVGID_3_-i9" gradientUnits="userSpaceOnUse" x1="-11.4217" y1="37.0363" x2="98.14" y2="112.4336">
	<stop offset="0" style="stop-color:#EEEEEE"/>
	<stop offset="1" style="stop-color:#D6D7D8"/>
</linearGradient>
<polygon style="fill:url(#SVGID_3_-i9);" points="8.9,63.079 8.173,63.499 17.097,78.955 17.449,78.752 20.162,68.626 23.204,69.441   21.306,76.525 29.12,72.014 31.833,61.888 34.875,62.703 32.977,69.787 40.792,65.275 44.186,53.011 32.168,49.645 24.429,54.113   30.92,55.853 30.105,58.895 20.572,56.34 12.757,60.852 19.249,62.591 18.434,65.633 "/>
<linearGradient id="SVGID_4_-i9" gradientUnits="userSpaceOnUse" x1="-10.8447" y1="36.1979" x2="98.7169" y2="111.5952">
	<stop offset="0" style="stop-color:#EEEEEE"/>
	<stop offset="1" style="stop-color:#D6D7D8"/>
</linearGradient>
<polygon style="fill:url(#SVGID_4_-i9);" points="40.763,92.16 40.763,93 58.611,93 58.611,92.594 51.199,85.181 53.425,82.954   58.611,88.14 58.611,79.117 51.199,71.704 53.425,69.477 58.611,74.663 58.611,65.64 49.687,56.568 40.763,65.293 40.763,74.229   45.516,69.477 47.742,71.704 40.763,78.683 40.763,87.706 45.516,82.954 47.742,85.181 "/>
<linearGradient id="SVGID_5_-i9" gradientUnits="userSpaceOnUse" x1="3.4023" y1="15.4952" x2="112.964" y2="90.8924">
	<stop offset="0" style="stop-color:#EEEEEE"/>
	<stop offset="1" style="stop-color:#D6D7D8"/>
</linearGradient>
<polygon style="fill:url(#SVGID_5_-i9);" points="81.914,79.075 82.641,79.495 91.565,64.038 91.214,63.835 81.088,66.548   80.272,63.506 87.356,61.608 79.542,57.096 69.416,59.809 68.601,56.767 75.685,54.869 67.87,50.358 55.552,53.55 58.646,65.641   66.385,70.109 64.646,63.618 67.688,62.803 70.242,72.336 78.057,76.848 76.317,70.356 79.36,69.541 "/>
<linearGradient id="SVGID_6_-i9" gradientUnits="userSpaceOnUse" x1="15.9403" y1="-2.724" x2="125.5019" y2="72.6733">
	<stop offset="0" style="stop-color:#EEEEEE"/>
	<stop offset="1" style="stop-color:#D6D7D8"/>
</linearGradient>
<polygon style="fill:url(#SVGID_6_-i9);" points="91.1,36.941 91.827,36.521 82.903,21.065 82.551,21.268 79.838,31.394 76.796,30.579   78.694,23.495 70.88,28.006 68.167,38.132 65.125,37.317 67.023,30.233 59.208,34.745 55.814,47.009 67.832,50.375 75.571,45.907   69.08,44.167 69.895,41.125 79.428,43.68 87.243,39.168 80.751,37.429 81.566,34.387 "/>

      </g>
    </g>
</g>

<!-- ITEM 10 -->
<g>
    <defs>
        
        <clipPath id="clip-path-id-viewbox-item-10">
            <rect x="0.0" y="0.0" width="748.435" height="959.83"/>
        </clipPath>
    </defs>
    <g transform="translate(1033.0 315.0) rotate(11.930627414371548 185.5 238.0) scale(0.4957010294815181 0.4959211527041247)">
      <g clip-path="url(#clip-path-id-viewbox-item-10)" transform="translate(-0.0 -0.0)">
      
<pattern x="-1565.627" y="-1347.164" width="270.62" height="299.62" patternUnits="userSpaceOnUse" id="New_Pattern_2-i10" viewBox="0 -339.239 270.62 299.62" overflow="visible">
	<g>
		<polygon fill="none" points="0,-339.239 270.62,-339.239 270.62,-39.62 0,-39.62   "/>
		<g>
			<g>
				
					<polyline fill="none" stroke="#ebf2ff" stroke-width="10" stroke-linecap="round" stroke-linejoin="round" stroke-miterlimit="10" points="      9.043,-285.951 59.951,-285.951 59.951,-235.043     "/>
				
					<polyline fill="none" stroke="#ebf2ff" stroke-width="10" stroke-linecap="round" stroke-linejoin="round" stroke-miterlimit="10" points="      41.271,-318.179 92.179,-318.179 92.179,-267.271     "/>
				
					<line fill="none" stroke="#ebf2ff" stroke-width="10" stroke-linecap="round" stroke-linejoin="round" stroke-miterlimit="10" x1="108.239" y1="-334.239" x2="5" y2="-231"/>
			</g>
			<g>
				
					<polyline fill="none" stroke="#ebf2ff" stroke-width="10" stroke-linecap="round" stroke-linejoin="round" stroke-miterlimit="10" points="      181.289,-147.043 181.289,-197.951 232.196,-197.951     "/>
				
					<polyline fill="none" stroke="#ebf2ff" stroke-width="10" stroke-linecap="round" stroke-linejoin="round" stroke-miterlimit="10" points="      149.061,-179.271 149.061,-230.179 199.968,-230.179     "/>
				
					<line fill="none" stroke="#ebf2ff" stroke-width="10" stroke-linecap="round" stroke-linejoin="round" stroke-miterlimit="10" x1="133" y1="-246.239" x2="236.239" y2="-143"/>
			</g>
			<g>
				
					<polyline fill="none" stroke="#ebf2ff" stroke-width="10" stroke-linecap="round" stroke-linejoin="round" stroke-miterlimit="10" points="      9.043,-147.951 59.951,-147.951 59.951,-97.043     "/>
				
					<polyline fill="none" stroke="#ebf2ff" stroke-width="10" stroke-linecap="round" stroke-linejoin="round" stroke-miterlimit="10" points="      41.271,-180.179 92.179,-180.179 92.179,-129.271     "/>
				
					<line fill="none" stroke="#ebf2ff" stroke-width="10" stroke-linecap="round" stroke-linejoin="round" stroke-miterlimit="10" x1="108.239" y1="-196.239" x2="5" y2="-93"/>
			</g>
			<g>
				
					<polyline fill="none" stroke="#ebf2ff" stroke-width="10" stroke-linecap="round" stroke-linejoin="round" stroke-miterlimit="10" points="      181.289,-9.043 181.289,-59.951 232.196,-59.951     "/>
				
					<polyline fill="none" stroke="#ebf2ff" stroke-width="10" stroke-linecap="round" stroke-linejoin="round" stroke-miterlimit="10" points="      149.061,-41.271 149.061,-92.179 199.968,-92.179     "/>
				
					<line fill="none" stroke="#ebf2ff" stroke-width="10" stroke-linecap="round" stroke-linejoin="round" stroke-miterlimit="10" x1="133" y1="-108.239" x2="236.239" y2="-5"/>
			</g>
		</g>
		<g>
			<g>
				
					<polyline fill="none" stroke="#ebf2ff" stroke-width="10" stroke-linecap="round" stroke-linejoin="round" stroke-miterlimit="10" points="      181.289,-308.663 181.289,-359.57 232.196,-359.57     "/>
				
					<polyline fill="none" stroke="#ebf2ff" stroke-width="10" stroke-linecap="round" stroke-linejoin="round" stroke-miterlimit="10" points="      149.061,-340.891 149.061,-391.798 199.968,-391.798     "/>
				
					<line fill="none" stroke="#ebf2ff" stroke-width="10" stroke-linecap="round" stroke-linejoin="round" stroke-miterlimit="10" x1="133" y1="-407.859" x2="236.239" y2="-304.62"/>
			</g>
		</g>
	</g>
</pattern>
<linearGradient id="SVGID_1_-i10" gradientUnits="userSpaceOnUse" x1="0" y1="673.3669" x2="748.4352" y2="673.3669">
	<stop offset="0" style="stop-color:#c3d9fe"/>
	<stop offset="1" style="stop-color:#cee3ff"/>
</linearGradient>
<path fill="url(#SVGID_1_-i10)" d="M0,852.305l374.218-465.401l374.218,465.401C497.801,995,248.312,996.341,0,852.305z"/>
<path fill="#a9c8fd" d="M0,688.739l374.218-465.401l374.218,465.401C497.801,831.434,248.312,832.774,0,688.739z"/>
<linearGradient id="SVGID_2_-i10" gradientUnits="userSpaceOnUse" x1="107.2565" y1="292.6064" x2="641.1786" y2="292.6064">
	<stop offset="0" style="stop-color:#c3d9fe"/>
	<stop offset="1" style="stop-color:#cee3ff"/>
</linearGradient>
<path fill="url(#SVGID_2_-i10)" d="M107.257,420.258l266.961-332.01l266.961,332.01C462.38,522.055,284.398,523.011,107.257,420.258z"/>
<path fill="#a9c8fd" d="M209.15,205.289L374.218,0l165.067,205.289C428.73,268.231,318.681,268.822,209.15,205.289z"/>
<pattern id="SVGID_3_-i10" xlink:href="#New_Pattern_2-i10" patternTransform="matrix(1 0 0 1 182.7608 -144)">
</pattern>
<path opacity="0.5" fill="url(#SVGID_3_-i10)" d="M748.435,688.739L563.132,458.284c25.998-10.537,52.014-23.205,78.047-38.026  L488.16,229.954c17.03-6.735,34.072-14.956,51.125-24.665L374.218,0L209.15,205.289c16.964,9.84,33.941,18.138,50.93,24.909  L107.256,420.258c25.896,15.021,51.81,27.808,77.741,38.406L0,688.739c31.136,18.061,62.29,33.833,93.463,47.33L0,852.306  c248.312,144.035,497.801,142.695,748.435,0L654.58,735.581C685.847,722.177,717.132,706.561,748.435,688.739z"/>

      </g>
    </g>
</g>

<!-- ITEM 11 -->
<g>
    <defs>
        
        <clipPath id="clip-path-id-viewbox-item-11">
            <rect x="0.0" y="0.0" width="100.0" height="100.0"/>
        </clipPath>
    </defs>
    <g transform="translate(525.0 190.0) rotate(0.0 44.0 44.0) scale(0.88 0.88)">
      <g clip-path="url(#clip-path-id-viewbox-item-11)" transform="translate(-0.0 -0.0)">
      
<linearGradient id="SVGID_1_-i11" gradientUnits="userSpaceOnUse" x1="15.3598" y1="-1.8805" x2="124.9214" y2="73.5168">
	<stop offset="0" style="stop-color:#EEEEEE"/>
	<stop offset="1" style="stop-color:#D6D7D8"/>
</linearGradient>
<polygon style="fill:url(#SVGID_1_-i11);" points="59.197,7.84 59.197,7 41.349,7 41.349,7.406 48.761,14.819 46.534,17.046   41.349,11.86 41.349,20.883 48.761,28.296 46.534,30.523 41.349,25.337 41.349,34.36 50.273,43.432 59.197,34.707 59.197,25.771   54.444,30.523 52.218,28.296 59.197,21.317 59.197,12.294 54.444,17.046 52.218,14.819 "/>
<linearGradient id="SVGID_2_-i11" gradientUnits="userSpaceOnUse" x1="1.1162" y1="18.8172" x2="110.6779" y2="94.2144">
	<stop offset="0" style="stop-color:#EEEEEE"/>
	<stop offset="1" style="stop-color:#D6D7D8"/>
</linearGradient>
<polygon style="fill:url(#SVGID_2_-i11);" points="18.086,20.945 17.359,20.525 8.435,35.982 8.786,36.185 18.912,33.472 19.728,36.514   12.644,38.412 20.458,42.924 30.584,40.211 31.399,43.253 24.315,45.151 32.13,49.662 44.448,46.47 41.354,34.379 33.615,29.911   35.354,36.402 32.312,37.217 29.758,27.684 21.943,23.172 23.683,29.664 20.64,30.479 "/>
<linearGradient id="SVGID_3_-i11" gradientUnits="userSpaceOnUse" x1="-11.4217" y1="37.0363" x2="98.14" y2="112.4336">
	<stop offset="0" style="stop-color:#EEEEEE"/>
	<stop offset="1" style="stop-color:#D6D7D8"/>
</linearGradient>
<polygon style="fill:url(#SVGID_3_-i11);" points="8.9,63.079 8.173,63.499 17.097,78.955 17.449,78.752 20.162,68.626 23.204,69.441   21.306,76.525 29.12,72.014 31.833,61.888 34.875,62.703 32.977,69.787 40.792,65.275 44.186,53.011 32.168,49.645 24.429,54.113   30.92,55.853 30.105,58.895 20.572,56.34 12.757,60.852 19.249,62.591 18.434,65.633 "/>
<linearGradient id="SVGID_4_-i11" gradientUnits="userSpaceOnUse" x1="-10.8447" y1="36.1979" x2="98.7169" y2="111.5952">
	<stop offset="0" style="stop-color:#EEEEEE"/>
	<stop offset="1" style="stop-color:#D6D7D8"/>
</linearGradient>
<polygon style="fill:url(#SVGID_4_-i11);" points="40.763,92.16 40.763,93 58.611,93 58.611,92.594 51.199,85.181 53.425,82.954   58.611,88.14 58.611,79.117 51.199,71.704 53.425,69.477 58.611,74.663 58.611,65.64 49.687,56.568 40.763,65.293 40.763,74.229   45.516,69.477 47.742,71.704 40.763,78.683 40.763,87.706 45.516,82.954 47.742,85.181 "/>
<linearGradient id="SVGID_5_-i11" gradientUnits="userSpaceOnUse" x1="3.4023" y1="15.4952" x2="112.964" y2="90.8924">
	<stop offset="0" style="stop-color:#EEEEEE"/>
	<stop offset="1" style="stop-color:#D6D7D8"/>
</linearGradient>
<polygon style="fill:url(#SVGID_5_-i11);" points="81.914,79.075 82.641,79.495 91.565,64.038 91.214,63.835 81.088,66.548   80.272,63.506 87.356,61.608 79.542,57.096 69.416,59.809 68.601,56.767 75.685,54.869 67.87,50.358 55.552,53.55 58.646,65.641   66.385,70.109 64.646,63.618 67.688,62.803 70.242,72.336 78.057,76.848 76.317,70.356 79.36,69.541 "/>
<linearGradient id="SVGID_6_-i11" gradientUnits="userSpaceOnUse" x1="15.9403" y1="-2.724" x2="125.5019" y2="72.6733">
	<stop offset="0" style="stop-color:#EEEEEE"/>
	<stop offset="1" style="stop-color:#D6D7D8"/>
</linearGradient>
<polygon style="fill:url(#SVGID_6_-i11);" points="91.1,36.941 91.827,36.521 82.903,21.065 82.551,21.268 79.838,31.394 76.796,30.579   78.694,23.495 70.88,28.006 68.167,38.132 65.125,37.317 67.023,30.233 59.208,34.745 55.814,47.009 67.832,50.375 75.571,45.907   69.08,44.167 69.895,41.125 79.428,43.68 87.243,39.168 80.751,37.429 81.566,34.387 "/>

      </g>
    </g>
</g>

<!-- ITEM 12 -->
<g>
    <defs>
        
        <clipPath id="clip-path-id-viewbox-item-12">
            <rect x="0.0" y="0.0" width="100.0" height="100.0"/>
        </clipPath>
    </defs>
    <g transform="translate(742.0 372.0) rotate(0.0 19.5 19.5) scale(0.39 0.39)">
      <g clip-path="url(#clip-path-id-viewbox-item-12)" transform="translate(-0.0 -0.0)">
      
<linearGradient id="SVGID_1_-i12" gradientUnits="userSpaceOnUse" x1="15.3598" y1="-1.8805" x2="124.9214" y2="73.5168">
	<stop offset="0" style="stop-color:#EEEEEE"/>
	<stop offset="1" style="stop-color:#D6D7D8"/>
</linearGradient>
<polygon style="fill:url(#SVGID_1_-i12);" points="59.197,7.84 59.197,7 41.349,7 41.349,7.406 48.761,14.819 46.534,17.046   41.349,11.86 41.349,20.883 48.761,28.296 46.534,30.523 41.349,25.337 41.349,34.36 50.273,43.432 59.197,34.707 59.197,25.771   54.444,30.523 52.218,28.296 59.197,21.317 59.197,12.294 54.444,17.046 52.218,14.819 "/>
<linearGradient id="SVGID_2_-i12" gradientUnits="userSpaceOnUse" x1="1.1162" y1="18.8172" x2="110.6779" y2="94.2144">
	<stop offset="0" style="stop-color:#EEEEEE"/>
	<stop offset="1" style="stop-color:#D6D7D8"/>
</linearGradient>
<polygon style="fill:url(#SVGID_2_-i12);" points="18.086,20.945 17.359,20.525 8.435,35.982 8.786,36.185 18.912,33.472 19.728,36.514   12.644,38.412 20.458,42.924 30.584,40.211 31.399,43.253 24.315,45.151 32.13,49.662 44.448,46.47 41.354,34.379 33.615,29.911   35.354,36.402 32.312,37.217 29.758,27.684 21.943,23.172 23.683,29.664 20.64,30.479 "/>
<linearGradient id="SVGID_3_-i12" gradientUnits="userSpaceOnUse" x1="-11.4217" y1="37.0363" x2="98.14" y2="112.4336">
	<stop offset="0" style="stop-color:#EEEEEE"/>
	<stop offset="1" style="stop-color:#D6D7D8"/>
</linearGradient>
<polygon style="fill:url(#SVGID_3_-i12);" points="8.9,63.079 8.173,63.499 17.097,78.955 17.449,78.752 20.162,68.626 23.204,69.441   21.306,76.525 29.12,72.014 31.833,61.888 34.875,62.703 32.977,69.787 40.792,65.275 44.186,53.011 32.168,49.645 24.429,54.113   30.92,55.853 30.105,58.895 20.572,56.34 12.757,60.852 19.249,62.591 18.434,65.633 "/>
<linearGradient id="SVGID_4_-i12" gradientUnits="userSpaceOnUse" x1="-10.8447" y1="36.1979" x2="98.7169" y2="111.5952">
	<stop offset="0" style="stop-color:#EEEEEE"/>
	<stop offset="1" style="stop-color:#D6D7D8"/>
</linearGradient>
<polygon style="fill:url(#SVGID_4_-i12);" points="40.763,92.16 40.763,93 58.611,93 58.611,92.594 51.199,85.181 53.425,82.954   58.611,88.14 58.611,79.117 51.199,71.704 53.425,69.477 58.611,74.663 58.611,65.64 49.687,56.568 40.763,65.293 40.763,74.229   45.516,69.477 47.742,71.704 40.763,78.683 40.763,87.706 45.516,82.954 47.742,85.181 "/>
<linearGradient id="SVGID_5_-i12" gradientUnits="userSpaceOnUse" x1="3.4023" y1="15.4952" x2="112.964" y2="90.8924">
	<stop offset="0" style="stop-color:#EEEEEE"/>
	<stop offset="1" style="stop-color:#D6D7D8"/>
</linearGradient>
<polygon style="fill:url(#SVGID_5_-i12);" points="81.914,79.075 82.641,79.495 91.565,64.038 91.214,63.835 81.088,66.548   80.272,63.506 87.356,61.608 79.542,57.096 69.416,59.809 68.601,56.767 75.685,54.869 67.87,50.358 55.552,53.55 58.646,65.641   66.385,70.109 64.646,63.618 67.688,62.803 70.242,72.336 78.057,76.848 76.317,70.356 79.36,69.541 "/>
<linearGradient id="SVGID_6_-i12" gradientUnits="userSpaceOnUse" x1="15.9403" y1="-2.724" x2="125.5019" y2="72.6733">
	<stop offset="0" style="stop-color:#EEEEEE"/>
	<stop offset="1" style="stop-color:#D6D7D8"/>
</linearGradient>
<polygon style="fill:url(#SVGID_6_-i12);" points="91.1,36.941 91.827,36.521 82.903,21.065 82.551,21.268 79.838,31.394 76.796,30.579   78.694,23.495 70.88,28.006 68.167,38.132 65.125,37.317 67.023,30.233 59.208,34.745 55.814,47.009 67.832,50.375 75.571,45.907   69.08,44.167 69.895,41.125 79.428,43.68 87.243,39.168 80.751,37.429 81.566,34.387 "/>

      </g>
    </g>
</g>

<!-- ITEM 13 -->
<g>
    <defs>
        
        <clipPath id="clip-path-id-viewbox-item-13">
            <rect x="0.0" y="0.0" width="100.0" height="100.0"/>
        </clipPath>
    </defs>
    <g transform="translate(634.0 617.0) rotate(0.0 15.5 15.5) scale(0.31 0.31)">
      <g clip-path="url(#clip-path-id-viewbox-item-13)" transform="translate(-0.0 -0.0)">
      
<linearGradient id="SVGID_1_-i13" gradientUnits="userSpaceOnUse" x1="15.3598" y1="-1.8805" x2="124.9214" y2="73.5168">
	<stop offset="0" style="stop-color:#EEEEEE"/>
	<stop offset="1" style="stop-color:#D6D7D8"/>
</linearGradient>
<polygon style="fill:url(#SVGID_1_-i13);" points="59.197,7.84 59.197,7 41.349,7 41.349,7.406 48.761,14.819 46.534,17.046   41.349,11.86 41.349,20.883 48.761,28.296 46.534,30.523 41.349,25.337 41.349,34.36 50.273,43.432 59.197,34.707 59.197,25.771   54.444,30.523 52.218,28.296 59.197,21.317 59.197,12.294 54.444,17.046 52.218,14.819 "/>
<linearGradient id="SVGID_2_-i13" gradientUnits="userSpaceOnUse" x1="1.1162" y1="18.8172" x2="110.6779" y2="94.2144">
	<stop offset="0" style="stop-color:#EEEEEE"/>
	<stop offset="1" style="stop-color:#D6D7D8"/>
</linearGradient>
<polygon style="fill:url(#SVGID_2_-i13);" points="18.086,20.945 17.359,20.525 8.435,35.982 8.786,36.185 18.912,33.472 19.728,36.514   12.644,38.412 20.458,42.924 30.584,40.211 31.399,43.253 24.315,45.151 32.13,49.662 44.448,46.47 41.354,34.379 33.615,29.911   35.354,36.402 32.312,37.217 29.758,27.684 21.943,23.172 23.683,29.664 20.64,30.479 "/>
<linearGradient id="SVGID_3_-i13" gradientUnits="userSpaceOnUse" x1="-11.4217" y1="37.0363" x2="98.14" y2="112.4336">
	<stop offset="0" style="stop-color:#EEEEEE"/>
	<stop offset="1" style="stop-color:#D6D7D8"/>
</linearGradient>
<polygon style="fill:url(#SVGID_3_-i13);" points="8.9,63.079 8.173,63.499 17.097,78.955 17.449,78.752 20.162,68.626 23.204,69.441   21.306,76.525 29.12,72.014 31.833,61.888 34.875,62.703 32.977,69.787 40.792,65.275 44.186,53.011 32.168,49.645 24.429,54.113   30.92,55.853 30.105,58.895 20.572,56.34 12.757,60.852 19.249,62.591 18.434,65.633 "/>
<linearGradient id="SVGID_4_-i13" gradientUnits="userSpaceOnUse" x1="-10.8447" y1="36.1979" x2="98.7169" y2="111.5952">
	<stop offset="0" style="stop-color:#EEEEEE"/>
	<stop offset="1" style="stop-color:#D6D7D8"/>
</linearGradient>
<polygon style="fill:url(#SVGID_4_-i13);" points="40.763,92.16 40.763,93 58.611,93 58.611,92.594 51.199,85.181 53.425,82.954   58.611,88.14 58.611,79.117 51.199,71.704 53.425,69.477 58.611,74.663 58.611,65.64 49.687,56.568 40.763,65.293 40.763,74.229   45.516,69.477 47.742,71.704 40.763,78.683 40.763,87.706 45.516,82.954 47.742,85.181 "/>
<linearGradient id="SVGID_5_-i13" gradientUnits="userSpaceOnUse" x1="3.4023" y1="15.4952" x2="112.964" y2="90.8924">
	<stop offset="0" style="stop-color:#EEEEEE"/>
	<stop offset="1" style="stop-color:#D6D7D8"/>
</linearGradient>
<polygon style="fill:url(#SVGID_5_-i13);" points="81.914,79.075 82.641,79.495 91.565,64.038 91.214,63.835 81.088,66.548   80.272,63.506 87.356,61.608 79.542,57.096 69.416,59.809 68.601,56.767 75.685,54.869 67.87,50.358 55.552,53.55 58.646,65.641   66.385,70.109 64.646,63.618 67.688,62.803 70.242,72.336 78.057,76.848 76.317,70.356 79.36,69.541 "/>
<linearGradient id="SVGID_6_-i13" gradientUnits="userSpaceOnUse" x1="15.9403" y1="-2.724" x2="125.5019" y2="72.6733">
	<stop offset="0" style="stop-color:#EEEEEE"/>
	<stop offset="1" style="stop-color:#D6D7D8"/>
</linearGradient>
<polygon style="fill:url(#SVGID_6_-i13);" points="91.1,36.941 91.827,36.521 82.903,21.065 82.551,21.268 79.838,31.394 76.796,30.579   78.694,23.495 70.88,28.006 68.167,38.132 65.125,37.317 67.023,30.233 59.208,34.745 55.814,47.009 67.832,50.375 75.571,45.907   69.08,44.167 69.895,41.125 79.428,43.68 87.243,39.168 80.751,37.429 81.566,34.387 "/>

      </g>
    </g>
</g>

<!-- ITEM 14 -->
<g>
    <defs>
        
        <clipPath id="clip-path-id-viewbox-item-14">
            <rect x="0.0" y="0.0" width="100.0" height="100.0"/>
        </clipPath>
    </defs>
    <g transform="translate(412.0 44.0) rotate(0.0 14.0 14.0) scale(0.28 0.28)">
      <g clip-path="url(#clip-path-id-viewbox-item-14)" transform="translate(-0.0 -0.0)">
      
<linearGradient id="SVGID_1_-i14" gradientUnits="userSpaceOnUse" x1="15.3598" y1="-1.8805" x2="124.9214" y2="73.5168">
	<stop offset="0" style="stop-color:#EEEEEE"/>
	<stop offset="1" style="stop-color:#D6D7D8"/>
</linearGradient>
<polygon style="fill:url(#SVGID_1_-i14);" points="59.197,7.84 59.197,7 41.349,7 41.349,7.406 48.761,14.819 46.534,17.046   41.349,11.86 41.349,20.883 48.761,28.296 46.534,30.523 41.349,25.337 41.349,34.36 50.273,43.432 59.197,34.707 59.197,25.771   54.444,30.523 52.218,28.296 59.197,21.317 59.197,12.294 54.444,17.046 52.218,14.819 "/>
<linearGradient id="SVGID_2_-i14" gradientUnits="userSpaceOnUse" x1="1.1162" y1="18.8172" x2="110.6779" y2="94.2144">
	<stop offset="0" style="stop-color:#EEEEEE"/>
	<stop offset="1" style="stop-color:#D6D7D8"/>
</linearGradient>
<polygon style="fill:url(#SVGID_2_-i14);" points="18.086,20.945 17.359,20.525 8.435,35.982 8.786,36.185 18.912,33.472 19.728,36.514   12.644,38.412 20.458,42.924 30.584,40.211 31.399,43.253 24.315,45.151 32.13,49.662 44.448,46.47 41.354,34.379 33.615,29.911   35.354,36.402 32.312,37.217 29.758,27.684 21.943,23.172 23.683,29.664 20.64,30.479 "/>
<linearGradient id="SVGID_3_-i14" gradientUnits="userSpaceOnUse" x1="-11.4217" y1="37.0363" x2="98.14" y2="112.4336">
	<stop offset="0" style="stop-color:#EEEEEE"/>
	<stop offset="1" style="stop-color:#D6D7D8"/>
</linearGradient>
<polygon style="fill:url(#SVGID_3_-i14);" points="8.9,63.079 8.173,63.499 17.097,78.955 17.449,78.752 20.162,68.626 23.204,69.441   21.306,76.525 29.12,72.014 31.833,61.888 34.875,62.703 32.977,69.787 40.792,65.275 44.186,53.011 32.168,49.645 24.429,54.113   30.92,55.853 30.105,58.895 20.572,56.34 12.757,60.852 19.249,62.591 18.434,65.633 "/>
<linearGradient id="SVGID_4_-i14" gradientUnits="userSpaceOnUse" x1="-10.8447" y1="36.1979" x2="98.7169" y2="111.5952">
	<stop offset="0" style="stop-color:#EEEEEE"/>
	<stop offset="1" style="stop-color:#D6D7D8"/>
</linearGradient>
<polygon style="fill:url(#SVGID_4_-i14);" points="40.763,92.16 40.763,93 58.611,93 58.611,92.594 51.199,85.181 53.425,82.954   58.611,88.14 58.611,79.117 51.199,71.704 53.425,69.477 58.611,74.663 58.611,65.64 49.687,56.568 40.763,65.293 40.763,74.229   45.516,69.477 47.742,71.704 40.763,78.683 40.763,87.706 45.516,82.954 47.742,85.181 "/>
<linearGradient id="SVGID_5_-i14" gradientUnits="userSpaceOnUse" x1="3.4023" y1="15.4952" x2="112.964" y2="90.8924">
	<stop offset="0" style="stop-color:#EEEEEE"/>
	<stop offset="1" style="stop-color:#D6D7D8"/>
</linearGradient>
<polygon style="fill:url(#SVGID_5_-i14);" points="81.914,79.075 82.641,79.495 91.565,64.038 91.214,63.835 81.088,66.548   80.272,63.506 87.356,61.608 79.542,57.096 69.416,59.809 68.601,56.767 75.685,54.869 67.87,50.358 55.552,53.55 58.646,65.641   66.385,70.109 64.646,63.618 67.688,62.803 70.242,72.336 78.057,76.848 76.317,70.356 79.36,69.541 "/>
<linearGradient id="SVGID_6_-i14" gradientUnits="userSpaceOnUse" x1="15.9403" y1="-2.724" x2="125.5019" y2="72.6733">
	<stop offset="0" style="stop-color:#EEEEEE"/>
	<stop offset="1" style="stop-color:#D6D7D8"/>
</linearGradient>
<polygon style="fill:url(#SVGID_6_-i14);" points="91.1,36.941 91.827,36.521 82.903,21.065 82.551,21.268 79.838,31.394 76.796,30.579   78.694,23.495 70.88,28.006 68.167,38.132 65.125,37.317 67.023,30.233 59.208,34.745 55.814,47.009 67.832,50.375 75.571,45.907   69.08,44.167 69.895,41.125 79.428,43.68 87.243,39.168 80.751,37.429 81.566,34.387 "/>

      </g>
    </g>
</g>

              </svg>