<?xml version="1.0" encoding="UTF-8"?><svg version="1.1" id="Слой_1" xmlns="http://www.w3.org/2000/svg" xmlns:xlink="http://www.w3.org/1999/xlink" x="0px" y="0px" width="646px" height="335.656px" viewBox="0 0 646 335.656" style="enable-background:new 0 0 646 335.656;" xml:space="preserve">

<g>
	<path d="M457.3,21.939c0,0-23.2,0-41.4,0c-2.5,0-4.9,1-6.7,2.8c-1.8,1.8-2.8,4.2-2.8,6.7l0,0c0,2.5,1,4.9,2.8,6.7
		c1.8,1.8,4.2,2.8,6.7,2.8c0,0,23.2,0,41.4,0c2.5,0,4.9-1,6.7-2.8s2.8-4.2,2.8-6.7l0,0c0-2.5-1-4.9-2.8-6.7
		S459.8,21.939,457.3,21.939z" style="fill:#262626;"/>
	<path d="M340.8,268.439c0,0,16.5,0,29.3,0c1.8,0,3.5,0.7,4.7,2c1.3,1.3,2,3,2,4.7l0,0c0,1.8-0.7,3.5-2,4.7
		c-1.3,1.3-3,2-4.7,2c0,0-16.5,0-29.3,0c-1.8,0-3.5-0.7-4.7-2c-1.3-1.3-2-3-2-4.7l0,0c0-1.8,0.7-3.5,2-4.7
		C337.3,269.139,339,268.439,340.8,268.439z" style="fill:#262626;"/>
	<path d="M49.4,92.239c0,0,16.5,0,29.3,0c1.8,0,3.5,0.7,4.7,2c1.3,1.3,2,3,2,4.7l0,0c0,1.8-0.7,3.5-2,4.7
		c-1.3,1.3-3,2-4.7,2c0,0-16.5,0-29.3,0c-1.8,0-3.5-0.7-4.7-2c-1.3-1.3-2-3-2-4.7l0,0c0-1.8,0.7-3.5,2-4.7
		C45.9,92.939,47.6,92.239,49.4,92.239z" style="fill:#262626;"/>
	<path d="M533.4,281.439c0,0,14.5,0,38.8,0c3.3,0,6.6,1.3,8.9,3.7c2.4,2.4,3.7,5.6,3.7,8.9l0,0c0,3.3-1.3,6.6-3.7,8.9
		c-2.4,2.4-5.6,3.7-8.9,3.7c0,0-14.5,0-38.8,0c-3.3,0-6.6-1.3-8.9-3.7c-2.4-2.4-3.7-5.6-3.7-8.9l0,0c0-3.3,1.3-6.6,3.7-8.9
		C526.8,282.739,530,281.439,533.4,281.439z" style="fill:#262626;"/>
	<circle cx="385" cy="8.739" r="7.2" style="fill:#262626;"/>
	<circle cx="25.6" cy="225.939" r="7.2" style="fill:#262626;"/>
	<circle cx="614" cy="315.839" r="7.2" style="fill:#262626;"/>
	<circle cx="636.7" cy="230.639" r="9.3" style="fill:#262626;"/>
	<circle cx="95.4" cy="74.739" r="9.3" style="fill:#262626;"/>
	<ellipse cx="421.415" cy="305.636" rx="14" ry="14" style="fill:#262626;"/>
	<path d="M622.2,141.339c-7-6.9-16.4-10.8-26.2-10.8h-39.9c-1.5,0-2.9-0.5-4-1.6c-1-1.1-1.6-2.5-1.6-4s0.5-2.9,1.6-4
		c1.1-1,2.5-1.6,4-1.6h27.846c2.365,0,4.699-0.82,6.407-2.456c1.872-1.792,2.827-4.17,2.741-6.762
		c-0.07-2.126-0.917-4.195-2.369-5.749c-1.729-1.85-4.018-2.833-6.525-2.833h-38.7c-2.6,0-5.1-1-7-2.9c-1.9-1.9-2.9-4.4-2.9-7
		c0-2.6,1-5.1,2.9-7c1.9-1.9,4.4-2.9,7-2.9h12.2c3.8,0,7.5-1.5,10.2-4.2c2.7-2.7,4.2-6.4,4.2-10.2c0-3.8-1.5-7.5-4.2-10.2
		s-6.4-4.2-10.2-4.2H272.9c0,0,0.008-0.003,0.009-0.003c-0.022,0-0.043,0.003-0.064,0.003c-9.027,0-16.344-7.318-16.344-16.344
		c0-8.968,7.222-16.249,16.167-16.344c5.384-0.057,10.008-4.209,10.288-9.585C283.259,4.828,278.615,0,272.844,0h-133.17
		c-5.981,0-10.83,4.849-10.83,10.83s4.849,10.83,10.83,10.83h6.253c1.2,0,2.5,0.5,3.4,1.4c0.9,0.9,1.4,2.1,1.4,3.4
		c0,1.2-0.5,2.5-1.4,3.4c-0.9,0.9-2.1,1.4-3.4,1.4h-14.017c-10.803,0-20.003,8.401-20.387,19.197
		c-0.402,11.334,8.667,20.648,19.91,20.648c0.003,0,0.005,0,0.008,0c-0.005,0.021-0.008,0.034-0.008,0.034H211.3
		c1.2,0,2.5,0.5,3.4,1.4c0.9,0.9,1.4,2.1,1.4,3.4c0,1.2-0.5,2.5-1.4,3.4c-0.9,0.9-2.1,1.4-3.4,1.4h-43.6c-3.7,0-7.2,1.5-9.8,4.1
		c-2.6,2.6-4.1,6.1-4.1,9.8s1.5,7.2,4.1,9.8s6.1,4.1,9.8,4.1h4.6v0.1h25.5c1.5,0,2.9,0.5,4,1.6c1,1.1,1.6,2.5,1.6,4s-0.5,2.9-1.6,4
		c-1.1,1-2.5,1.6-4,1.6h-90.7c-3,0-5.9,1.2-8.1,3.4c-2.2,2.1-3.4,5.1-3.4,8.1s1.2,5.9,3.4,8.1c2.1,2.2,5.1,3.4,8.1,3.4H125
		c2.6,0,5.1,1,7,2.9c1.9,1.9,2.9,4.4,2.9,7c0,2.6-1,5.1-2.9,7c-1.9,1.9-4.4,2.9-7,2.9H22.1c-5.8,0-11.5,2.4-15.6,6.5
		c-4.2,4.1-6.5,9.7-6.5,15.6c0,5.8,2.4,11.5,6.5,15.6c4.1,4.2,9.7,6.5,15.6,6.5h73.5c4,0,7.9,1.6,10.7,4.4c2.8,2.9,4.4,6.7,4.4,10.7
		s-1.6,7.9-4.4,10.7c-2.9,2.8-6.7,4.4-10.7,4.4H78.5c-2.7,0.2-5.3,1.4-7.2,3.3c-2.2,2.1-3.4,5.1-3.4,8.1s1.2,5.9,3.4,8.1
		c2.1,2.1,4.9,3.3,7.8,3.4l16.1-0.106c11.767,0,21.307,9.539,21.307,21.306c0,11.767-9.54,21.306-21.307,21.306
		c0,0-63.06,0-64.855,0c-9.171,0-16.605,7.435-16.605,16.605c0,9.171,7.434,16.605,16.605,16.605c5.273,0,279.403,0,279.403,0
		s0,0,0.001,0c7.843,0,14.2-6.358,14.2-14.2c0-7.843-6.357-14.2-14.2-14.2h-24.833c-14.479,0-26.216-11.737-26.216-26.216
		s11.737-26.216,26.216-26.216c0.214,0,0.425,0.011,0.637,0.016c11.328,0,172.234,0,220.947,0c0.3,0,0.6,0,0.9,0h37.2h20.1
		c4,0,7.8-1.6,10.6-4.4c2.8-2.8,4.4-6.6,4.4-10.6s-1.6-7.8-4.4-10.6c-2.3-2.2-5.1-3.7-8.2-4.2h-31.4c-2.7,0-5.3-1.1-7.2-3
		c-1.9-1.9-3-4.5-3-7.2c0-2.7,1.1-5.3,3-7.2c1.9-1.9,4.5-3,7.2-3l60.3-0.1c9.8,0,19.3-3.9,26.2-10.8c6.9-7,10.8-16.4,10.8-26.2
		C633,157.739,629.1,148.239,622.2,141.339z" style="fill:#262626;"/>
</g>
</svg>