<?xml version="1.0" encoding="UTF-8"?><svg version="1.1" xmlns="http://www.w3.org/2000/svg" xmlns:xlink="http://www.w3.org/1999/xlink" x="0px" y="0px" viewBox="0 0 95.151 43.958" style="enable-background:new 0 0 95.151 43.958;" xml:space="preserve" width="96px" height="44px">
<g id="Layer_14">
	<g>
		<path style="fill:#997055;" d="M52.188,41.373c-4.302,0.268-11.24,0.867-14.159-0.421L26.519,15.606
			c3.474-1.36,8.974-6.832,15.199-6.832c12.059,0,12.065,1.304,20.793,1.02c10.006-0.326,15.467-2.992,24.182,0.305
			c10.284,3.891,10.84,22.839,3.561,27.713c-3.631,2.431-14.957,2.885-14.957,2.885S65.29,41.748,52.188,41.373z"/>
		<path style="fill:#94654A;" d="M46.524,28.101c0,0,7.338,10.917,4.038,13.378c-3.3,2.461-16.53,1.02-16.53,1.02l-1.179-6.161
			L46.524,28.101z"/>
		<path style="fill:#7D553E;" d="M15.898,30.554c0,0-5.61,2.925-8.811,3.181C3.886,33.992,0,35.144,0,38.09
			c0,2.945,8.88,1.921,8.88,1.921l11.653-4.642L15.898,30.554z"/>
		<path style="fill:#997055;" d="M21.991,35.42c0,0-2.807-1.451-6.651-0.885c-3.227,0.475-7.704,2.225-7.453,5.49
			c0.251,3.266,9.044,2.931,10.97,2.261c0,0,4.516,0.72,7.031,0.863S32.41,37.764,21.991,35.42z"/>
		<path style="fill:#E6CEBD;" d="M23.782,42.96c-0.067,0.044-0.816-0.146-0.899-0.107c-2.06-0.253-4.025-0.567-4.025-0.567
			c-1.423,0.495-6.601,0.809-9.306-0.381v-0.003c-0.386-0.998-0.311-3.222,2.972-3.605C18.742,37.574,23.782,42.96,23.782,42.96z"/>
		<path style="fill:#A87E61;" d="M27.768,7.741c0,0-3.65-1.152-7.587,1.537s-6.147,11.045-6.147,11.045s-0.408,4.301,0.278,7.896
			c0.158,0.83,0.229,1.2,0.528,1.899c0.721,1.681,10.995,10.632,15.509,10.344c4.514-0.288,13.914-8.691,15.48-9.408
			c0.702-2.063,0.927-4.719,0.954-6.889c0.06-4.822-1.09-9.384-2.467-11.591s-3.104-5.995-11.232-5.995
			C30.273,6.578,27.768,7.741,27.768,7.741z"/>
		<path style="fill:#424242;" d="M24.325,26.989c0,0,3.106,2.013,1.778,2.947c-1.528,1.073-3.179,0.784-4.111-0.087
			c-0.574-0.537-0.861-1.191-0.861-1.7S24.325,26.989,24.325,26.989z"/>
		<path style="fill:#424242;" d="M33.617,26.262c0,0-0.358,3.129,0.429,3.464c0.471,0.2,1.661,0.402,2.805-0.234
			c1.144-0.636,1.432-1.359,1.222-2.503C37.863,25.845,34.952,25.944,33.617,26.262z"/>
		<path style="fill:#A87E61;" d="M35.067,10.622c0,0,1.977-7.779,7.203-7.779c1.553,0,2.974,1.326,3.543,6.339
			c0.781,6.871-1.046,9.604-1.046,9.604s-3.289-0.096-5.198-1.921S34.619,12.685,35.067,10.622z"/>
		<path style="fill:#CCA489;" d="M37.901,11.045c0.286-2.066,1.784-5.737,3.953-5.737c0,0,1.849,0.54,1.921,5.058
			c0.061,3.834-1.588,6.852-4.206,5.665C37.81,15.233,37.488,14.025,37.901,11.045z"/>
		<path style="fill:#A87E61;" d="M21.909,9.854c0,0-5.354-5.57-9.22-5.57c-2.423,0-2.553,7.949-1.729,10.756
			c0.997,3.399,3.073,5.282,3.073,5.282c1.729,0.096,3.169-2.209,4.514-2.305C19.892,17.921,22.485,13.407,21.909,9.854z"/>
		<path style="fill:#CCA489;" d="M18.452,11.195c-0.999-2.119-3.618-4.67-5.282-3.966c-1.287,0.544-1.111,6.194,0.672,8.514
			c1.06,1.379,3.116,2.306,4.15,1.441C19.534,15.893,20.065,14.617,18.452,11.195z"/>
		<path style="fill:#D4BEAF;" d="M24.469,42.472c-1.753-1.056-2.115-4.547-5.826-7.072c-2.153-1.466-2.933-3.043-3.803-5.283
			c0.523-0.536,0.862-0.618,1.715-0.624c2.938-0.025,3.686,2.341,3.98,3.049c0.661,1.593,2.337,2.778,4.116,2.967l0.556,3.012
			C25.268,38.324,25.671,43.196,24.469,42.472z"/>
		<path style="fill:#D4BEAF;" d="M45.83,31.052c-0.767,1.923-1.397,3.297-3.655,4.636c-3.6,2.135-3.44,4.576-6.033,6.783
			c-0.519-1.068,1.35-3.198,1.227-4.009c-0.16-1.053-2.347-3.694-2.347-3.694s3.2-0.662,4.548-2.821
			c1.343-2.162,2.741-2.607,3.95-2.415C44.562,29.696,45.552,30.377,45.83,31.052z"/>
		<path style="fill:#875D44;" d="M76.971,23.262c0,0-1.533,6.88,0.509,10.215c1.784,2.913,2.046,2.801,2.046,2.801l-4.229,4.419
			l-10.77,0.671C64.527,41.367,71.997,40.183,76.971,23.262z"/>
		<path style="fill:#C7997A;" d="M91.57,36.741c0,0-4.48,1.736-8.894-1.056c-2.48-1.569-7.314-1.858-9.507,2.113
			c-1.886,3.417,3.169,3.38,5.07,3.38c1.308,0,8.022,0.111,12.546-0.713C92.536,40.145,92.338,38,91.57,36.741z"/>
		<path style="fill:#94654A;" d="M90.134,12.227c0,0-9-12.227-17.617-12.227s-7.924,8.225-6.155,9.551
			c3.654,2.739,7.912,1.906,10.499,1.306C80.578,11.489,86.348,13.244,90.134,12.227z"/>
		<path style="fill:#7D553E;" d="M76.269,7.384c-3.495,0.274-3.124,2.842,0.592,3.473c1.858,0.316,4.23,0.912,6.61,1.303
			C83.472,12.16,79.587,7.124,76.269,7.384z"/>
		<path style="fill:#BA8F72;" d="M42.249,25.401c0,1.588-2.713,2.224-4.175,1.588c-1.462-0.636-3.833-0.799-4.152,0.649
			c-0.317,1.448,0.382,4.038,2.003,6.453c1.621,2.416,1.95,4.834,1.685,5.912c-0.775,3.148-3.485,3.834-7.153,3.945
			c-4.309,0.13-6.771-1.039-7.289-3.484c-0.272-1.282-0.062-2.786,0.76-4.346c1.26-2.393,1.978-3.42,2.177-4.933
			c0.246-1.867-0.626-3.64-2.025-3.766c-1.398-0.127-2.206,0.272-3.004,0.765c-1.703,1.052-3.791,0.641-4.056-0.682
			c-0.372-1.858,3.139-4.441,5.399-4.672c2.776-0.283,5.72,0.918,7.182,2.952c0,0,1.891-4.421,6.229-4.449
			C40.515,21.302,42.249,23.867,42.249,25.401z"/>
		<path style="fill:#E6CEBD;" d="M37.611,40.003c-0.775,3.149-3.486,3.833-7.155,3.944c-4.308,0.131-6.771-1.037-7.288-3.483
			c-0.183-0.862-0.15-1.821,0.142-2.83c0.692-0.239,1.39-0.397,2.024-0.397c3.233,0,4.717,2.007,4.717,2.007
			s1.676-2.007,4.528-2.007c0.967,0,2.221,0.261,2.977,0.681C37.727,38.796,37.727,39.53,37.611,40.003z"/>
		<path style="fill:#424242;" d="M28.177,37.985c1.056,0.079,2.011,0.293,3.31,0c1.819-0.411,2.424,0.537,2.424,1.714
			c0,0.942-1.071,3.375-3.641,3.358c-2.655-0.017-4.082-1.86-4.082-3.198C26.187,38.591,26.934,37.891,28.177,37.985z"/>
	</g>
</g>
<g id="Isolation_Mode">
</g>
</svg>