<svg xmlns="http://www.w3.org/2000/svg"  viewBox="0 0 464 464" width="20px" height="20px"><path fill="#fe4f60" d="M459.31,88.26l-71.97-71.97c-2.91-2.91-6.964-4.69-11.31-4.69h-84.41c-4.27,0-8.36,1.71-11.37,4.74	L232,65.03l-48.25-48.69c-3.01-3.03-7.1-4.74-11.37-4.74H87.97c-4.335,0-8.392,1.773-11.31,4.69L4.69,88.26	c-3,3-4.69,7.07-4.69,11.31v107.36c0,3.937,1.471,7.904,4.35,10.97l216,229.47c6.33,6.711,16.98,6.7,23.3,0l216-229.47	c2.874-3.06,4.35-7.026,4.35-10.97V99.57C464,95.33,462.31,91.26,459.31,88.26z"/><path fill="#ff8c95" d="M464,99.57v107.36c0,2.05-0.406,4.07-1.146,5.94L337.63,132.44l44.24-119.73	c2.03,0.8,3.9,2.01,5.47,3.58l71.97,71.97C462.31,91.26,464,95.33,464,99.57z"/><path fill="#ff8c95" d="M82.13,12.71l44.24,119.73L1.146,212.87C0.406,211,0,208.98,0,206.93V99.57	c0-4.24,1.69-8.31,4.69-11.31l71.97-71.97C78.23,14.72,80.1,13.51,82.13,12.71z"/><path fill="#ff6d7a" d="M381.87,12.71l-44.24,119.73L232.26,64.77l47.99-48.43c3.01-3.03,7.1-4.74,11.37-4.74h84.41	C378.05,11.6,380.03,11.98,381.87,12.71z"/><path fill="#ff6d7a" d="M232,65.03V452.4c-4.24,0-8.49-1.68-11.65-5.03L4.35,217.9c-1.38-1.47-2.464-3.18-3.204-5.03	C242.785,57.677,231.596,64.626,232,65.03z"/></svg>