<?xml version="1.0" encoding="UTF-8"?><svg xmlns="http://www.w3.org/2000/svg" xmlns:xlink="http://www.w3.org/1999/xlink" width="706.305" height="600" viewBox="0 0 706.305 600" x="0px" y="0px" version="1.1"><defs><linearGradient id="linear-gradient" x1="-9206.934" y1="-815.661" x2="-9206.934" y2="-723.882" gradientTransform="matrix(-1, 0, 0, 1, -8605.453, 1104)" gradientUnits="userSpaceOnUse"><stop offset="0" stop-color="#ffe272"/><stop offset="0.996" stop-color="#fff"/></linearGradient><linearGradient id="linear-gradient-2" x1="238.519" y1="-1093.35" x2="238.519" y2="-666.554" gradientTransform="translate(0 1104)" gradientUnits="userSpaceOnUse"><stop offset="0" stop-color="#e5a0c1"/><stop offset="0.497" stop-color="#f3d1e1"/><stop offset="0.996" stop-color="#fff"/></linearGradient><linearGradient id="linear-gradient-3" x1="242.062" y1="-1017.903" x2="242.062" y2="-753.174" gradientTransform="translate(0 1104)" xlink:href="#linear-gradient"/><linearGradient id="linear-gradient-4" x1="296.753" y1="-471.09" x2="296.753" y2="-407.146" gradientTransform="matrix(0.87, -0.493, 0.493, 0.87, 6.037, 683.592)" xlink:href="#linear-gradient"/><linearGradient id="linear-gradient-5" x1="503.012" y1="-68.26" x2="503.012" y2="-22.462" gradientTransform="matrix(0.789, -0.614, 0.614, 0.789, -56.755, 619.451)" xlink:href="#linear-gradient"/><linearGradient id="linear-gradient-6" x1="309.954" y1="-763.176" x2="309.954" y2="-624.689" gradientTransform="translate(60.182 806.863) rotate(-21.624)" xlink:href="#linear-gradient"/><linearGradient id="linear-gradient-7" x1="98.397" y1="247.416" x2="98.397" y2="347.995" gradientTransform="matrix(1, 0, 0, 1, 0, 0)" xlink:href="#linear-gradient"/></defs><title>background_8</title><g id="Layer_2" data-name="Layer 2"><g id="Layer_1-2" data-name="Layer 1"><g opacity="0.3"><path d="M704.01,2.3v595.41H2.3V2.3H704.01M706.305,0H0V600H706.305V0Z" fill="#c4ecfe"/><rect y="425.367" width="706.305" height="2.147" fill="#c4ecfe"/><rect y="339.42" width="706.305" height="2.147" fill="#c4ecfe"/><rect y="425.367" width="706.305" height="2.147" fill="#c4ecfe"/><rect y="511.24" width="706.305" height="2.147" fill="#c4ecfe"/><rect y="253.547" width="706.305" height="2.147" fill="#c4ecfe"/><rect y="167.6" width="706.305" height="2.147" fill="#c4ecfe"/><rect y="81.727" width="706.305" height="2.147" fill="#c4ecfe"/></g><path d="M497.693,383.911c45.9,0,66.847-67.292,120.962-60.777,16.212,1.925,34.349-31.314,41.752-43.825,12.289-20.8,44.861-12.437,44.861,11.623v92.979Z" fill="url(#linear-gradient)"/><circle cx="318.618" cy="201.505" r="3.035" fill="#bfd9ff"/><circle cx="656.706" cy="379.173" r="3.035" fill="#bfd9ff"/><circle cx="653.671" cy="58.038" r="3.035" fill="#bfd9ff"/><circle cx="274.349" cy="45.527" r="3.035" fill="#bfd9ff"/><circle cx="28.205" cy="53.3" r="3.035" fill="#bfd9ff"/><circle cx="492.215" cy="453.72" r="2.813" fill="#bfd9ff"/><circle cx="38.645" cy="375.786" r="2.813" fill="#bfd9ff"/><path d="M0,81.875c0-19.839,27.391-32.2,37.977-15.4,59.889,95.349,120.148,44.566,148.352,92.536,47.379,80.617,82.024,60.407,146.947,98.9s43.158,111.339,143.763,126L0,386.206V81.875Z" fill="url(#linear-gradient-2)"/><path d="M357.779,390.779c-76.471-16.138-65.071-79.951-104.454-106.6-17.248-11.622-47.378-12.807-71.141-64.034-10.734-23.171-47.008-15.25-53,9.549-5.108,21.024-4.516,44.639,11.918,64.627,41.012,49.895,48.637,66.774,5.626,98.68Z" fill="url(#linear-gradient-3)"/><path d="M40.419,167.6c-2.961-8.957-.74-31.906,13.7-25.317,7.106,3.257,11.474,24.281,16.138,30.869C74.769,179.519,48.859,193.214,40.419,167.6Z" fill="url(#linear-gradient-4)"/><path d="M310.771,285.453c-3.553-5.626-8.143-22.578,2.665-19.469,5.256,1.555,13.177,14.287,14.436,19.914C329.13,291.228,321.061,301.518,310.771,285.453Z" fill="url(#linear-gradient-5)"/><path d="M115.706,103.64c-19.469-8.514-36.57-25.318-40.049-47.008-2.221-13.992,5.4-47.749,25.614-34.942,9.92,6.293,7.4,23.245,13.029,34.053C119.852,66.107,147.168,117.409,115.706,103.64Z" fill="url(#linear-gradient-6)"/><path d="M248.439,144.8c-13.4-2.888-23.615-16.435-33.461-29.464-9.105-11.992-18.507-24.429-29.463-27.168l1.777-7.181c13.547,3.331,23.763,16.8,33.609,29.833,9.031,11.993,18.433,24.356,29.167,26.651Z" fill="#f9d5ff"/><path d="M386.354,198.914c-15.4-5.034-28.057-22.282-39.753-39.6l6.144-4.146c10.438,15.472,22.727,32.351,35.9,36.645Z" fill="#f9d5ff"/><path d="M196.642,386a145.563,145.563,0,0,1-2.461-15.1c-6.737-61.221-106.6-47.156-135.546-70.919S34.279,236.316.152,224.545V386Z" fill="url(#linear-gradient-7)"/></g></g></svg>