<?xml version="1.0" encoding="UTF-8"?><svg version="1.1" xmlns="http://www.w3.org/2000/svg" xmlns:xlink="http://www.w3.org/1999/xlink" viewBox="0 0 1280 720" width="1280" height="720" x="0px" y="0px">
    
    
    <!-- ITEM 0 -->
    <g>
        <defs>
            <clipPath id="clip-path-id-viewbox-item-0">
                <rect x="0.0" y="0.0" width="1920.0" height="1080.0"/>
            </clipPath>
        </defs>
        <g transform="translate(-3.0 -3.0) rotate(0.0 641.5 361.5) scale(0.6682291666666667 0.6694444444444444)">
            <g clip-path="url(#clip-path-id-viewbox-item-0)" transform="translate(-0.0 -0.0)">
                
<g id="Layer_1-i0">
	<rect style="fill:#aac4fa;" width="1920" height="1080"/>
</g>
<g id="Isolation_Mode-i0">
</g>

            </g>
        </g>
    </g>
    
    <!-- ITEM 1 -->
    <g>
        <defs>
            <clipPath id="clip-path-id-crop-item-1">
                
          <g transform="scale(0.872093023255814 0.8688524590163934)">
          <rect x="-39.0" y="0.0" width="555.0" height="403.0"/>
          </g>
        
            </clipPath>
            
            <clipPath id="clip-path-id-viewbox-item-1">
                <rect x="0.0" y="0.0" width="450.0" height="318.0"/>
            </clipPath>
        </defs>
        <g clip-path="url(#clip-path-id-crop-item-1)" transform="translate(647.0 166.0) rotate(270.0 -258.0 183.0) scale(-1.1466666666666667 1.150943396226415)">
            <g clip-path="url(#clip-path-id-viewbox-item-1)" transform="translate(-0.0 -0.0)">
                

<g id="Layer_1_1_-i1">
</g>
<g id="Isolation_Mode-i1">
	<g>
		<g>
			<g>
				<g>
					<g>
						<circle cx="445" cy="5" r="5" style="fill:#383A48;"/>
					</g>
				</g>
			</g>
			<g>
				<g>
					<g>
						<circle cx="445" cy="49" r="5" style="fill:#383A48;"/>
					</g>
				</g>
			</g>
			<g>
				<g>
					<g>
						<circle cx="445" cy="93" r="5" style="fill:#383A48;"/>
					</g>
				</g>
			</g>
			<g>
				<g>
					<g>
						<circle cx="445" cy="137" r="5" style="fill:#383A48;"/>
					</g>
				</g>
			</g>
			<g>
				<g>
					<g>
						<circle cx="445" cy="181" r="5" style="fill:#383A48;"/>
					</g>
				</g>
			</g>
			<g>
				<g>
					<g>
						<circle cx="445" cy="225" r="5" style="fill:#383A48;"/>
					</g>
				</g>
			</g>
			<g>
				<g>
					<g>
						<circle cx="445" cy="269" r="5" style="fill:#383A48;"/>
					</g>
				</g>
			</g>
			<g>
				<g>
					<g>
						<circle cx="445" cy="313" r="5" style="fill:#383A48;"/>
					</g>
				</g>
			</g>
			<g>
				<g>
					<g>
						<circle cx="401" cy="5" r="5" style="fill:#383A48;"/>
					</g>
				</g>
			</g>
			<g>
				<g>
					<g>
						<circle cx="401" cy="49" r="5" style="fill:#383A48;"/>
					</g>
				</g>
			</g>
			<g>
				<g>
					<g>
						<circle cx="401" cy="93" r="5" style="fill:#383A48;"/>
					</g>
				</g>
			</g>
			<g>
				<g>
					<g>
						<circle cx="401" cy="137" r="5" style="fill:#383A48;"/>
					</g>
				</g>
			</g>
			<g>
				<g>
					<g>
						<circle cx="401" cy="181" r="5" style="fill:#383A48;"/>
					</g>
				</g>
			</g>
			<g>
				<g>
					<g>
						<circle cx="401" cy="225" r="5" style="fill:#383A48;"/>
					</g>
				</g>
			</g>
			<g>
				<g>
					<g>
						<circle cx="401" cy="269" r="5" style="fill:#383A48;"/>
					</g>
				</g>
			</g>
			<g>
				<g>
					<g>
						<circle cx="401" cy="313" r="5" style="fill:#383A48;"/>
					</g>
				</g>
			</g>
			<g>
				<g>
					<g>
						<circle cx="357" cy="5" r="5" style="fill:#383A48;"/>
					</g>
				</g>
			</g>
			<g>
				<g>
					<g>
						<circle cx="357" cy="49" r="5" style="fill:#383A48;"/>
					</g>
				</g>
			</g>
			<g>
				<g>
					<g>
						<circle cx="357" cy="93" r="5" style="fill:#383A48;"/>
					</g>
				</g>
			</g>
			<g>
				<g>
					<g>
						<circle cx="357" cy="137" r="5" style="fill:#383A48;"/>
					</g>
				</g>
			</g>
			<g>
				<g>
					<g>
						<circle cx="357" cy="181" r="5" style="fill:#383A48;"/>
					</g>
				</g>
			</g>
			<g>
				<g>
					<g>
						<circle cx="357" cy="225" r="5" style="fill:#383A48;"/>
					</g>
				</g>
			</g>
			<g>
				<g>
					<g>
						<circle cx="357" cy="269" r="5" style="fill:#383A48;"/>
					</g>
				</g>
			</g>
			<g>
				<g>
					<g>
						<circle cx="357" cy="313" r="5" style="fill:#383A48;"/>
					</g>
				</g>
			</g>
			<g>
				<g>
					<g>
						<circle cx="313" cy="5" r="5" style="fill:#383A48;"/>
					</g>
				</g>
			</g>
			<g>
				<g>
					<g>
						<circle cx="313" cy="49" r="5" style="fill:#383A48;"/>
					</g>
				</g>
			</g>
			<g>
				<g>
					<g>
						<circle cx="313" cy="93" r="5" style="fill:#383A48;"/>
					</g>
				</g>
			</g>
			<g>
				<g>
					<g>
						<circle cx="313" cy="137" r="5" style="fill:#383A48;"/>
					</g>
				</g>
			</g>
			<g>
				<g>
					<g>
						<circle cx="313" cy="181" r="5" style="fill:#383A48;"/>
					</g>
				</g>
			</g>
			<g>
				<g>
					<g>
						<circle cx="313" cy="225" r="5" style="fill:#383A48;"/>
					</g>
				</g>
			</g>
			<g>
				<g>
					<g>
						<circle cx="313" cy="269" r="5" style="fill:#383A48;"/>
					</g>
				</g>
			</g>
			<g>
				<g>
					<g>
						<circle cx="313" cy="313" r="5" style="fill:#383A48;"/>
					</g>
				</g>
			</g>
			<g>
				<g>
					<g>
						<circle cx="269" cy="5" r="5" style="fill:#383A48;"/>
					</g>
				</g>
			</g>
			<g>
				<g>
					<g>
						<circle cx="269" cy="49" r="5" style="fill:#383A48;"/>
					</g>
				</g>
			</g>
			<g>
				<g>
					<g>
						<circle cx="269" cy="93" r="5" style="fill:#383A48;"/>
					</g>
				</g>
			</g>
			<g>
				<g>
					<g>
						<circle cx="269" cy="137" r="5" style="fill:#383A48;"/>
					</g>
				</g>
			</g>
			<g>
				<g>
					<g>
						<circle cx="269" cy="181" r="5" style="fill:#383A48;"/>
					</g>
				</g>
			</g>
			<g>
				<g>
					<g>
						<circle cx="269" cy="225" r="5" style="fill:#383A48;"/>
					</g>
				</g>
			</g>
			<g>
				<g>
					<g>
						<circle cx="269" cy="269" r="5" style="fill:#383A48;"/>
					</g>
				</g>
			</g>
			<g>
				<g>
					<g>
						<circle cx="269" cy="313" r="5" style="fill:#383A48;"/>
					</g>
				</g>
			</g>
			<g>
				<g>
					<g>
						<circle cx="225" cy="137" r="5" style="fill:#383A48;"/>
					</g>
				</g>
			</g>
			<g>
				<g>
					<g>
						<circle cx="225" cy="181" r="5" style="fill:#383A48;"/>
					</g>
				</g>
			</g>
			<g>
				<g>
					<g>
						<circle cx="225" cy="225" r="5" style="fill:#383A48;"/>
					</g>
				</g>
			</g>
			<g>
				<g>
					<g>
						<circle cx="225" cy="269" r="5" style="fill:#383A48;"/>
					</g>
				</g>
			</g>
			<g>
				<g>
					<g>
						<circle cx="225" cy="313" r="5" style="fill:#383A48;"/>
					</g>
				</g>
			</g>
			<g>
				<g>
					<g>
						<circle cx="181" cy="137" r="5" style="fill:#383A48;"/>
					</g>
				</g>
			</g>
			<g>
				<g>
					<g>
						<circle cx="181" cy="181" r="5" style="fill:#383A48;"/>
					</g>
				</g>
			</g>
			<g>
				<g>
					<g>
						<circle cx="181" cy="225" r="5" style="fill:#383A48;"/>
					</g>
				</g>
			</g>
			<g>
				<g>
					<g>
						<circle cx="181" cy="269" r="5" style="fill:#383A48;"/>
					</g>
				</g>
			</g>
			<g>
				<g>
					<g>
						<circle cx="181" cy="313" r="5" style="fill:#383A48;"/>
					</g>
				</g>
			</g>
			<g>
				<g>
					<g>
						<circle cx="137" cy="137" r="5" style="fill:#383A48;"/>
					</g>
				</g>
			</g>
			<g>
				<g>
					<g>
						<circle cx="137" cy="181" r="5" style="fill:#383A48;"/>
					</g>
				</g>
			</g>
			<g>
				<g>
					<g>
						<circle cx="137" cy="225" r="5" style="fill:#383A48;"/>
					</g>
				</g>
			</g>
			<g>
				<g>
					<g>
						<circle cx="137" cy="269" r="5" style="fill:#383A48;"/>
					</g>
				</g>
			</g>
			<g>
				<g>
					<g>
						<circle cx="137" cy="313" r="5" style="fill:#383A48;"/>
					</g>
				</g>
			</g>
			<g>
				<g>
					<g>
						<circle cx="93" cy="225" r="5" style="fill:#383A48;"/>
					</g>
				</g>
			</g>
			<g>
				<g>
					<g>
						<circle cx="93" cy="269" r="5" style="fill:#383A48;"/>
					</g>
				</g>
			</g>
			<g>
				<g>
					<g>
						<circle cx="93" cy="313" r="5" style="fill:#383A48;"/>
					</g>
				</g>
			</g>
			<g>
				<g>
					<g>
						<circle cx="49" cy="225" r="5" style="fill:#383A48;"/>
					</g>
				</g>
			</g>
			<g>
				<g>
					<g>
						<circle cx="49" cy="269" r="5" style="fill:#383A48;"/>
					</g>
				</g>
			</g>
			<g>
				<g>
					<g>
						<circle cx="49" cy="313" r="5" style="fill:#383A48;"/>
					</g>
				</g>
			</g>
			<g>
				<g>
					<g>
						<circle cx="5" cy="225" r="5" style="fill:#383A48;"/>
					</g>
				</g>
			</g>
			<g>
				<g>
					<g>
						<circle cx="5" cy="269" r="5" style="fill:#383A48;"/>
					</g>
				</g>
			</g>
			<g>
				<g>
					<g>
						<circle cx="5" cy="313" r="5" style="fill:#383A48;"/>
					</g>
				</g>
			</g>
		</g>
	</g>
</g>

            </g>
        </g>
    </g>
    
    <!-- ITEM 2 -->
    <g>
        <defs>
            <clipPath id="clip-path-id-crop-item-2">
                
          <g transform="scale(0.5805251641137856 0.582509505703422)">
          <rect x="0.0" y="0.0" width="530.0" height="580.0"/>
          </g>
        
            </clipPath>
            
            <clipPath id="clip-path-id-viewbox-item-2">
                <rect x="0.0" y="0.0" width="265.3" height="306.4"/>
            </clipPath>
        </defs>
        <g clip-path="url(#clip-path-id-crop-item-2)" transform="translate(137.0 91.0) rotate(0.0 228.5 263.0) scale(1.7225782133433847 1.716710182767624)">
            <g clip-path="url(#clip-path-id-viewbox-item-2)" transform="translate(-0.0 -0.0)">
                

<g>
	<path d="M5,5h255.3c0,0-112.3,87-121.3,177.4S5,301.4,5,301.4V5z" style="fill:#F3F6E6;"/>
	<path d="M5,306.4c-1.1,0-2.2-0.4-3.1-1.1c-1.2-0.9-1.9-2.4-1.9-3.9V5c0-2.8,2.2-5,5-5h255.3c2.1,0,4,1.4,4.7,3.4   s0,4.3-1.7,5.6c-0.3,0.2-28.1,21.9-56.7,54.3c-26.1,29.6-58.2,74.3-62.7,119.7c-3.8,38.6-29,72.3-72.9,97.2   c-32.6,18.6-63.7,25.8-65,26.1C5.7,306.4,5.4,306.4,5,306.4z M10,10v284.9c10.6-3,33.3-10.4,56.4-23.6   c41.3-23.6,64.1-53.7,67.7-89.4c3.8-38.6,25.8-80.8,65.3-125.4c18.4-20.8,36.2-37.1,47.1-46.5H10z" style="fill:#F3F6E6;"/>
</g>

            </g>
        </g>
    </g>
    
    <!-- ITEM 3 -->
    <g>
        <defs>
            <clipPath id="clip-path-id-crop-item-3">
                
          <g transform="scale(1.3165929203539823 1.3187499999999999)">
          <rect x="-14.0" y="-15.0" width="507.0" height="585.0"/>
          </g>
        
            </clipPath>
            
            <clipPath id="clip-path-id-viewbox-item-3">
                <rect x="0.0" y="0.0" width="595.1" height="696.3"/>
            </clipPath>
        </defs>
        <g clip-path="url(#clip-path-id-crop-item-3)" transform="translate(687.0 90.0) rotate(0.0 226.0 264.0) scale(0.7595362124012771 0.7582938388625593)">
            <g clip-path="url(#clip-path-id-viewbox-item-3)" transform="translate(-0.0 -0.0)">
                

<g>
	<path d="M5,691.3h585.1V5C462.2,28.5,505.5,377.3,374,412.1C177.7,464.1,222.4,641,5,691.3z" style="fill:#F3F6E6;"/>
	<path d="M590.1,696.3H5c-2.5,0-4.7-1.9-5-4.4c-0.3-2.5,1.4-4.9,3.8-5.4c49.5-11.5,89.6-30.7,122.5-58.9   c29.4-25.1,50.5-54.9,70.9-83.7c38.7-54.6,78.7-111,175.4-136.6c63-16.7,84.8-112.2,105.9-204.7c10.6-46.4,21.6-94.4,37.7-131.2   C535,29,558.8,5.7,589.2,0.1c1.5-0.3,3,0.1,4.1,1.1c1.1,1,1.8,2.4,1.8,3.8v686.3C595.1,694.1,592.9,696.3,590.1,696.3z M41.2,686.3   h543.9v-675c-24.4,6.8-43.4,27.4-59.6,64.1c-15.8,36-26.6,83.5-37.1,129.4c-21.8,95.3-44.3,193.9-113.1,212.1   c-93.2,24.7-130.4,77.2-169.8,132.7C168.2,602.2,129.7,656.4,41.2,686.3z" style="fill:#F3F6E6;"/>
</g>

            </g>
        </g>
    </g>
    
    <!-- ITEM 4 -->
    <g>
        <defs>
            <clipPath id="clip-path-id-crop-item-4">
                
          <g transform="scale(5.989572727272727 5.95724064171123)">
          <rect x="-2.0" y="-3.0" width="239.0" height="203.0"/>
          </g>
        
            </clipPath>
            
            <clipPath id="clip-path-id-viewbox-item-4">
                <rect x="0.0" y="0.0" width="1317.706" height="1114.004"/>
            </clipPath>
        </defs>
        <g clip-path="url(#clip-path-id-crop-item-4)" transform="translate(913.0 423.0) rotate(0.0 110.0 93.5) scale(0.1669568173780798 0.16786295201812562)">
            <g clip-path="url(#clip-path-id-viewbox-item-4)" transform="translate(-0.0 -0.0)">
                
<g>
	<g>
		<g>
			<path style="fill:#383A47;" d="M730.863,679.339h-49.335c-7.433-34.325-20.998-66.363-39.487-94.918l34.797-34.797     c14.921-14.921,14.921-39.112,0-54.033l-31.92-31.92c-14.921-14.921-39.112-14.921-54.033,0l-34.904,34.904     c-28.597-18.415-60.671-31.894-95.019-39.241V410.15c0-21.101-17.106-38.207-38.208-38.207h-45.141     c-21.101,0-38.207,17.106-38.207,38.207v49.335c-34.325,7.433-66.363,20.998-94.918,39.487l-34.797-34.797     c-14.921-14.921-39.112-14.921-54.033,0l-31.92,31.92c-14.921,14.921-14.921,39.112,0,54.034l34.904,34.904     c-18.415,28.597-31.894,60.671-39.241,95.019H70.216c-21.101,0-38.207,17.106-38.207,38.208v45.141     c0,21.102,17.106,38.208,38.207,38.208h49.335c7.433,34.325,20.998,66.364,39.487,94.918l-34.797,34.797     c-14.921,14.921-14.921,39.112,0,54.033l31.92,31.92c14.921,14.921,39.112,14.921,54.034,0l34.904-34.904     c28.597,18.415,60.671,31.894,95.019,39.241v49.185c0,21.101,17.106,38.207,38.208,38.207h45.141     c21.101,0,38.208-17.106,38.208-38.207v-49.335c34.325-7.433,66.364-20.998,94.918-39.487l34.797,34.797     c14.921,14.921,39.113,14.921,54.034,0l31.92-31.92c14.921-14.921,14.921-39.112,0-54.034l-34.904-34.904     c18.414-28.597,31.894-60.671,39.241-95.019h49.184c21.101,0,38.207-17.106,38.207-38.208v-45.141     C769.07,696.446,751.964,679.339,730.863,679.339z M400.184,814.037c-40.824,0-73.919-33.095-73.919-73.919     s33.095-73.919,73.919-73.919s73.919,33.095,73.919,73.919S441.009,814.037,400.184,814.037z"/>
			<path style="fill:#383A47;" d="M423.466,1114.004h-45.142c-23.825,0-43.208-19.383-43.208-43.208v-45.169     c-31.681-7.234-61.689-19.628-89.315-36.889l-32.072,32.072c-16.847,16.847-44.258,16.847-61.104,0l-31.92-31.92     c-16.846-16.847-16.846-44.258,0-61.104l31.958-31.958c-17.334-27.589-29.804-57.566-37.117-89.221h-45.33     c-23.824,0-43.207-19.383-43.207-43.208v-45.141c0-23.825,19.383-43.208,43.207-43.208h45.169     c7.235-31.681,19.629-61.69,36.889-89.315l-32.072-32.072c-8.161-8.161-12.656-19.011-12.656-30.553     c0-11.541,4.494-22.391,12.656-30.552l31.92-31.919c8.161-8.161,19.011-12.655,30.552-12.655     c11.541,0,22.391,4.495,30.552,12.655l31.958,31.958c27.59-17.334,57.567-29.804,89.222-37.117v-45.33     c0-23.825,19.383-43.208,43.208-43.208h45.141c23.825,0,43.208,19.383,43.208,43.208v45.169     c31.681,7.234,61.689,19.628,89.315,36.889l32.072-32.072c16.847-16.847,44.258-16.847,61.104,0l31.92,31.92     c16.846,16.847,16.846,44.258,0,61.104l-31.958,31.958c17.334,27.589,29.804,57.567,37.117,89.222h45.33     c23.825,0,43.208,19.383,43.208,43.208v45.141c0,23.825-19.383,43.208-43.208,43.208h-45.169     c-7.234,31.681-19.628,61.689-36.889,89.315l32.072,32.072c16.846,16.847,16.846,44.258,0,61.105l-31.919,31.92     c-16.847,16.846-44.258,16.846-61.105,0l-31.958-31.958c-27.59,17.334-57.567,29.804-89.221,37.117v45.33     C466.673,1094.621,447.291,1114.004,423.466,1114.004z M245.099,977.371c0.935,0,1.875,0.261,2.706,0.796     c28.68,18.467,60.09,31.439,93.358,38.555c2.306,0.494,3.954,2.531,3.954,4.89v49.185c0,18.311,14.897,33.208,33.208,33.208     h45.142c18.311,0,33.208-14.897,33.208-33.208v-49.334c0-2.354,1.642-4.389,3.942-4.887     c33.239-7.198,64.616-20.251,93.258-38.797c1.98-1.281,4.586-1.005,6.253,0.662l34.797,34.797     c12.948,12.948,34.016,12.947,46.962,0l31.919-31.92c12.948-12.947,12.948-34.015,0-46.962l-34.904-34.904     c-1.664-1.665-1.942-4.264-0.668-6.243c18.467-28.68,31.439-60.09,38.555-93.358c0.494-2.306,2.531-3.954,4.89-3.954h49.185     c18.311,0,33.208-14.897,33.208-33.208v-45.141c0-18.311-14.897-33.208-33.208-33.208h-49.334c-2.354,0-4.389-1.642-4.887-3.942     c-7.198-33.241-20.251-64.618-38.797-93.258c-1.282-1.979-1.006-4.586,0.661-6.253l34.797-34.797     c12.948-12.947,12.948-34.015,0-46.962l-31.92-31.92c-12.947-12.948-34.015-12.948-46.962,0l-34.904,34.904     c-1.664,1.664-4.264,1.942-6.243,0.668c-28.68-18.467-60.09-31.439-93.358-38.555c-2.306-0.494-3.954-2.531-3.954-4.89V410.15     c0-18.311-14.897-33.208-33.208-33.208h-45.141c-18.311,0-33.208,14.897-33.208,33.208v49.334c0,2.354-1.642,4.389-3.942,4.887     c-33.24,7.198-64.616,20.251-93.258,38.797c-1.98,1.281-4.586,1.005-6.253-0.662l-34.797-34.797     c-6.272-6.272-14.611-9.727-23.481-9.727c-8.87,0-17.209,3.455-23.481,9.727l-31.92,31.919     c-6.272,6.272-9.726,14.611-9.726,23.481s3.454,17.209,9.726,23.481l34.904,34.904c1.664,1.665,1.943,4.264,0.668,6.243     c-18.468,28.679-31.439,60.089-38.555,93.358c-0.493,2.306-2.531,3.954-4.889,3.954H70.216     c-18.311,0-33.207,14.897-33.207,33.208v45.141c0,18.311,14.897,33.208,33.207,33.208h49.334c2.354,0,4.388,1.642,4.887,3.942     c7.199,33.241,20.252,64.617,38.797,93.258c1.282,1.979,1.006,4.586-0.662,6.253l-34.797,34.797     c-12.947,12.947-12.947,34.015,0,46.962l31.92,31.92c12.948,12.947,34.015,12.947,46.963,0l34.904-34.904     C242.527,977.87,243.808,977.371,245.099,977.371z M400.184,819.037c-43.516,0-78.919-35.403-78.919-78.919     c0-43.516,35.403-78.919,78.919-78.919c43.517,0,78.919,35.403,78.919,78.919C479.104,783.634,443.701,819.037,400.184,819.037z      M400.184,671.198c-38.002,0-68.919,30.917-68.919,68.919c0,38.002,30.917,68.919,68.919,68.919     c38.002,0,68.919-30.917,68.919-68.919C469.104,702.115,438.187,671.198,400.184,671.198z"/>
		</g>
		<g>
			<path style="fill:#AAC4FA;" d="M703.854,679.339h-49.335c-7.433-34.325-20.998-66.363-39.487-94.918l34.797-34.797     c14.921-14.921,14.921-39.112,0-54.033l-31.92-31.92c-14.921-14.921-39.112-14.921-54.033,0l-34.904,34.904     c-28.597-18.415-60.671-31.894-95.019-39.241V410.15c0-21.101-17.106-38.207-38.208-38.207h-45.141     c-21.101,0-38.208,17.106-38.208,38.207v49.335c-34.325,7.433-66.363,20.998-94.918,39.487l-34.797-34.797     c-14.921-14.921-39.112-14.921-54.033,0l-31.92,31.92c-14.921,14.921-14.921,39.112,0,54.034l34.904,34.904     c-18.415,28.597-31.894,60.671-39.241,95.019H43.207C22.106,680.05,5,697.156,5,718.258v45.141     c0,21.102,17.106,38.208,38.207,38.208h49.335c7.433,34.325,20.998,66.364,39.487,94.918l-34.797,34.797     c-14.921,14.921-14.921,39.112,0,54.033l31.92,31.92c14.921,14.921,39.112,14.921,54.034,0l34.904-34.904     c28.597,18.415,60.671,31.894,95.019,39.241v49.185c0,21.101,17.106,38.207,38.208,38.207h45.141     c21.101,0,38.208-17.106,38.208-38.207v-49.335c34.325-7.433,66.364-20.998,94.918-39.487l34.797,34.797     c14.921,14.921,39.113,14.921,54.034,0l31.92-31.92c14.921-14.921,14.921-39.112,0-54.034l-34.904-34.904     c18.414-28.597,31.894-60.671,39.241-95.019h49.184c21.102,0,38.208-17.106,38.208-38.208v-45.141     C742.061,696.446,724.955,679.339,703.854,679.339z M373.175,814.037c-40.824,0-73.919-33.095-73.919-73.919     s33.095-73.919,73.919-73.919s73.919,33.095,73.919,73.919S414,814.037,373.175,814.037z"/>
			<path style="fill:#383A47;" d="M396.457,1114.004h-45.141c-23.825,0-43.208-19.383-43.208-43.208v-45.169     c-31.681-7.234-61.689-19.628-89.315-36.889l-32.072,32.072c-16.846,16.847-44.258,16.847-61.104,0l-31.92-31.92     c-16.846-16.847-16.846-44.258,0-61.104l31.958-31.958c-17.334-27.589-29.804-57.566-37.117-89.221h-45.33     C19.383,806.607,0,787.224,0,763.399v-45.141c0-23.825,19.383-43.208,43.207-43.208h45.169     c7.235-31.681,19.629-61.69,36.889-89.315l-32.072-32.072c-8.161-8.161-12.655-19.011-12.655-30.553     c0-11.541,4.494-22.391,12.656-30.552l31.92-31.919c8.16-8.161,19.011-12.655,30.552-12.655c11.541,0,22.391,4.495,30.552,12.655     l31.958,31.958c27.59-17.334,57.567-29.804,89.221-37.117v-45.33c0-23.825,19.383-43.208,43.208-43.208h45.142     c23.825,0,43.208,19.383,43.208,43.208v45.169c31.681,7.234,61.689,19.628,89.315,36.889l32.072-32.072     c16.846-16.846,44.258-16.847,61.105,0l31.919,31.92c8.161,8.161,12.655,19.011,12.655,30.552     c0,11.541-4.495,22.391-12.655,30.552l-31.958,31.958c17.334,27.59,29.804,57.567,37.117,89.222h45.33     c23.825,0,43.208,19.383,43.208,43.208v45.141c0,23.825-19.383,43.208-43.208,43.208h-45.169     c-7.234,31.68-19.628,61.688-36.889,89.315l32.072,32.072c16.846,16.847,16.846,44.258,0,61.105l-31.92,31.92     c-16.847,16.846-44.257,16.846-61.105,0l-31.958-31.958c-27.59,17.334-57.567,29.804-89.222,37.117v45.33     C439.664,1094.621,420.281,1114.004,396.457,1114.004z M218.09,977.371c0.935,0,1.875,0.261,2.706,0.796     c28.68,18.467,60.09,31.439,93.358,38.555c2.306,0.494,3.954,2.531,3.954,4.89v49.185c0,18.311,14.897,33.208,33.208,33.208     h45.141c18.311,0,33.208-14.897,33.208-33.208v-49.334c0-2.354,1.642-4.389,3.942-4.887c33.24-7.198,64.616-20.251,93.258-38.797     c1.98-1.281,4.585-1.005,6.253,0.662l34.797,34.797c12.947,12.947,34.015,12.947,46.962,0l31.92-31.92     c12.948-12.947,12.948-34.015,0-46.962l-34.904-34.904c-1.664-1.665-1.942-4.264-0.668-6.243     c18.468-28.681,31.439-60.091,38.555-93.358c0.494-2.306,2.531-3.954,4.89-3.954h49.185c18.311,0,33.208-14.897,33.208-33.208     v-45.141c0-18.311-14.897-33.208-33.208-33.208H654.52c-2.354,0-4.389-1.642-4.887-3.942     c-7.198-33.24-20.251-64.616-38.797-93.258c-1.281-1.979-1.006-4.586,0.662-6.253l34.797-34.797     c6.272-6.272,9.727-14.611,9.727-23.481s-3.454-17.209-9.727-23.481l-31.919-31.92c-12.948-12.949-34.016-12.948-46.962,0     l-34.904,34.904c-1.664,1.664-4.264,1.942-6.243,0.668c-28.68-18.467-60.09-31.439-93.358-38.555     c-2.306-0.494-3.954-2.531-3.954-4.89V410.15c0-18.311-14.897-33.208-33.208-33.208h-45.142     c-18.311,0-33.208,14.897-33.208,33.208v49.334c0,2.354-1.642,4.389-3.942,4.887c-33.239,7.198-64.616,20.251-93.258,38.797     c-1.981,1.281-4.586,1.005-6.253-0.662l-34.797-34.797c-6.272-6.272-14.611-9.727-23.481-9.727     c-8.87,0-17.209,3.455-23.481,9.727l-31.92,31.919c-6.272,6.272-9.727,14.611-9.727,23.481s3.454,17.209,9.727,23.481     l34.904,34.904c1.664,1.665,1.943,4.264,0.668,6.243c-18.468,28.679-31.439,60.089-38.555,93.358     c-0.493,2.306-2.531,3.954-4.889,3.954H43.207C24.897,685.05,10,699.947,10,718.258v45.141c0,18.311,14.897,33.208,33.207,33.208     h49.334c2.354,0,4.389,1.642,4.887,3.942c7.199,33.241,20.252,64.617,38.797,93.258c1.282,1.979,1.006,4.586-0.662,6.253     l-34.797,34.797c-12.947,12.947-12.947,34.015,0,46.962l31.92,31.92c12.948,12.948,34.015,12.949,46.963,0l34.904-34.904     C215.519,977.87,216.799,977.371,218.09,977.371z M373.175,819.037c-43.516,0-78.919-35.403-78.919-78.919     c0-43.516,35.403-78.919,78.919-78.919c43.517,0,78.919,35.403,78.919,78.919C452.095,783.634,416.692,819.037,373.175,819.037z      M373.175,671.198c-38.002,0-68.919,30.917-68.919,68.919c0,38.002,30.917,68.919,68.919,68.919s68.919-30.917,68.919-68.919     C442.095,702.115,411.178,671.198,373.175,671.198z"/>
		</g>
	</g>
	<g>
		<g>
			<path style="fill:#383A47;" d="M1271.37,211.811l-39.349,6.205c-10.245-26.442-25.094-50.29-43.432-70.739l23.377-32.13     c10.024-13.777,6.982-33.072-6.796-43.096l-29.473-21.444c-13.777-10.024-33.072-6.982-43.096,6.796l-23.449,32.229     c-25.125-11.091-52.402-17.808-80.721-19.348l-6.186-39.229c-2.654-16.83-18.449-28.322-35.279-25.668l-36.004,5.677     c-16.83,2.654-28.322,18.449-25.669,35.279l6.205,39.349c-26.442,10.246-50.29,25.094-70.739,43.432l-32.13-23.377     c-13.777-10.024-33.072-6.982-43.096,6.796l-21.444,29.473c-10.024,13.777-6.982,33.072,6.796,43.096l32.229,23.449     c-11.091,25.125-17.808,52.402-19.348,80.721l-39.229,6.186c-16.83,2.654-28.322,18.449-25.668,35.279l5.677,36.004     c2.654,16.83,18.449,28.323,35.279,25.669l39.349-6.205c10.246,26.442,25.094,50.29,43.432,70.739l-23.377,32.13     c-10.024,13.777-6.982,33.072,6.796,43.096l29.473,21.444c13.777,10.024,33.072,6.982,43.096-6.796l23.449-32.229     c25.125,11.091,52.402,17.808,80.721,19.348l6.186,39.229c2.654,16.83,18.449,28.322,35.279,25.668l36.004-5.677     c16.83-2.654,28.322-18.449,25.669-35.279l-6.205-39.349c26.442-10.245,50.29-25.094,70.739-43.432l32.13,23.377     c13.777,10.024,33.072,6.982,43.097-6.796l21.444-29.473c10.024-13.777,6.982-33.072-6.796-43.096l-32.229-23.449     c11.091-25.125,17.808-52.402,19.348-80.721l39.229-6.186c16.83-2.654,28.322-18.449,25.669-35.279l-5.677-36.004     C1303.995,220.649,1288.2,209.157,1271.37,211.811z M1031.868,407.145c-58.139,9.168-112.701-30.531-121.869-88.67     s30.531-112.701,88.67-121.869c58.139-9.168,112.701,30.531,121.869,88.67C1129.706,343.414,1090.007,397.977,1031.868,407.145z"/>
			<path style="fill:#383A47;" d="M1039.401,604.223c-17.327,0-32.609-12.626-35.392-30.27l-5.561-35.27     c-25.764-1.841-50.858-7.856-74.716-17.911l-21.097,28.996c-5.634,7.743-13.946,12.829-23.405,14.321     c-9.459,1.493-18.933-0.79-26.676-6.424l-29.474-21.444c-15.984-11.631-19.527-34.097-7.896-50.081l21.019-28.889     c-16.961-19.568-30.464-41.56-40.201-65.477l-35.399,5.582c-9.458,1.493-18.933-0.79-26.676-6.424     c-7.744-5.634-12.829-13.946-14.321-23.405l-5.677-36.004c-1.492-9.459,0.79-18.933,6.424-26.676     c5.634-7.744,13.946-12.829,23.405-14.321l35.27-5.562c1.841-25.765,7.857-50.86,17.911-74.716l-28.996-21.097     c-7.743-5.634-12.829-13.946-14.32-23.405c-1.492-9.459,0.79-18.933,6.423-26.676l21.444-29.474     c11.63-15.984,34.097-19.526,50.081-7.896l28.889,21.019c19.569-16.961,41.561-30.464,65.478-40.201l-5.583-35.399     c-3.079-19.526,10.302-37.917,29.829-40.997l36.004-5.677c9.46-1.492,18.933,0.79,26.676,6.424     c7.743,5.634,12.829,13.946,14.321,23.405l5.561,35.27c25.764,1.841,50.858,7.857,74.716,17.911l21.097-28.996     c5.634-7.743,13.946-12.829,23.405-14.32c9.459-1.493,18.933,0.79,26.676,6.424l29.473,21.444     c7.743,5.634,12.829,13.946,14.32,23.405c1.492,9.459-0.79,18.933-6.424,26.676l-21.019,28.888     c16.961,19.569,30.463,41.562,40.2,65.478l35.399-5.582c9.456-1.493,18.933,0.789,26.676,6.423     c7.743,5.634,12.829,13.946,14.321,23.405l5.677,36.004c3.079,19.527-10.302,37.918-29.829,40.997l-35.27,5.562     c-1.841,25.762-7.857,50.857-17.911,74.716l28.996,21.097c15.984,11.63,19.527,34.097,7.897,50.082l-21.444,29.473     c-11.63,15.983-34.097,19.528-50.081,7.897l-28.889-21.019c-19.569,16.961-41.561,30.463-65.477,40.201l5.582,35.399     c1.492,9.459-0.79,18.933-6.424,26.676c-5.634,7.743-13.946,12.829-23.405,14.32l-36.004,5.677     C1043.123,604.079,1041.25,604.223,1039.401,604.223z M922.043,509.597c0.679,0,1.365,0.138,2.017,0.426     c25.09,11.076,51.661,17.444,78.974,18.929c2.355,0.128,4.3,1.884,4.667,4.214l6.186,39.229     c1.076,6.82,4.743,12.814,10.326,16.876c5.584,4.062,12.414,5.707,19.235,4.632l36.004-5.677     c6.821-1.076,12.814-4.743,16.877-10.326c4.063-5.583,5.707-12.415,4.632-19.235l-6.205-39.349     c-0.367-2.325,0.938-4.591,3.132-5.441c25.497-9.88,48.782-24.176,69.208-42.492c1.755-1.574,4.372-1.708,6.28-0.32l32.13,23.377     c11.525,8.385,27.725,5.831,36.112-5.695l21.444-29.473c8.386-11.526,5.831-27.726-5.695-36.112l-32.228-23.449     c-1.903-1.385-2.583-3.909-1.633-6.062c11.076-25.092,17.444-51.663,18.929-78.974c0.128-2.355,1.884-4.3,4.214-4.667     l39.229-6.186c14.08-2.22,23.729-15.481,21.508-29.562l-5.677-36.004c-1.076-6.821-4.743-12.814-10.326-16.876     c-5.583-4.063-12.414-5.709-19.235-4.632l0,0l-39.349,6.205c-2.317,0.368-4.59-0.937-5.441-3.132     c-9.879-25.498-24.175-48.782-42.492-69.208c-1.574-1.755-1.708-4.373-0.32-6.28l23.377-32.13     c4.063-5.583,5.708-12.415,4.632-19.235c-1.075-6.821-4.743-12.814-10.326-16.876l-29.474-21.444     c-11.525-8.385-27.725-5.832-36.112,5.694l-23.449,32.229c-1.384,1.903-3.909,2.583-6.062,1.632     c-25.09-11.075-51.661-17.444-78.974-18.929c-2.355-0.128-4.3-1.884-4.667-4.214l-6.186-39.229     c-1.076-6.82-4.743-12.814-10.326-16.876c-5.583-4.063-12.414-5.706-19.235-4.632l-36.004,5.677     c-14.08,2.221-23.729,15.482-21.509,29.562l6.205,39.349c0.367,2.325-0.938,4.591-3.132,5.441     c-25.498,9.879-48.782,24.175-69.208,42.492c-1.755,1.574-4.372,1.708-6.28,0.32l-32.13-23.377     c-11.525-8.385-27.725-5.832-36.112,5.694l-21.444,29.473c-4.062,5.583-5.707,12.415-4.631,19.235     c1.075,6.821,4.743,12.814,10.326,16.876l32.229,23.449c1.903,1.385,2.583,3.909,1.632,6.062     c-11.075,25.089-17.444,51.66-18.929,78.974c-0.128,2.355-1.884,4.3-4.214,4.667l-39.229,6.186     c-6.82,1.076-12.814,4.743-16.876,10.326c-4.063,5.583-5.708,12.414-4.632,19.235l5.677,36.004     c1.076,6.821,4.743,12.814,10.326,16.877s12.416,5.707,19.235,4.632l39.348-6.205c2.32-0.367,4.591,0.938,5.441,3.132     c9.88,25.499,24.177,48.783,42.493,69.207c1.574,1.756,1.708,4.373,0.32,6.28l-23.377,32.13     c-4.063,5.583-5.708,12.414-4.632,19.234c1.076,6.821,4.743,12.814,10.326,16.877l29.474,21.444     c5.583,4.062,12.413,5.707,19.234,4.632c6.821-1.076,12.814-4.743,16.877-10.327l23.449-32.228     C918.963,510.33,920.482,509.597,922.043,509.597z M1271.37,211.811h0.01H1271.37z M1015.032,413.47     c-23.395,0-46.123-7.35-65.404-21.378c-24.098-17.534-39.925-43.401-44.567-72.839c-4.642-29.438,2.458-58.921,19.991-83.019     c17.534-24.098,43.402-39.926,72.839-44.568c60.774-9.583,118.004,32.062,127.586,92.83c4.642,29.438-2.458,58.921-19.991,83.019     c-17.534,24.098-43.401,39.926-72.839,44.568C1026.763,413.012,1020.876,413.47,1015.032,413.47z M1031.868,407.145h0.01     H1031.868z M1015.329,200.296c-5.243,0-10.542,0.407-15.881,1.249c-26.799,4.226-50.349,18.635-66.311,40.573     c-15.962,21.938-22.425,48.779-18.199,75.578c4.226,26.799,18.635,50.349,40.573,66.311c21.938,15.962,48.78,22.425,75.578,18.2     l0,0c26.799-4.226,50.349-18.635,66.311-40.573s22.425-48.779,18.199-75.578C1107.718,236.071,1064.414,200.296,1015.329,200.296     z"/>
		</g>
		<g>
			<path style="fill:#7FD7C3;" d="M1246.493,211.811l-39.349,6.205c-10.245-26.442-25.094-50.29-43.432-70.739l23.377-32.13     c10.024-13.777,6.982-33.072-6.796-43.096l-29.473-21.444c-13.777-10.024-33.072-6.982-43.096,6.796l-23.449,32.229     c-25.125-11.091-52.402-17.808-80.721-19.348l-6.186-39.229c-2.654-16.83-18.449-28.322-35.279-25.668l-36.004,5.677     c-16.83,2.654-28.322,18.449-25.669,35.279l6.205,39.349c-26.442,10.246-50.29,25.094-70.739,43.432l-32.13-23.377     c-13.777-10.024-33.072-6.982-43.096,6.796l-21.444,29.473c-10.024,13.777-6.982,33.072,6.796,43.096l32.229,23.449     c-11.091,25.125-17.808,52.402-19.348,80.721l-39.229,6.186c-16.83,2.654-28.322,18.449-25.668,35.279l5.677,36.004     c2.654,16.83,18.449,28.323,35.279,25.669l39.349-6.205c10.246,26.442,25.094,50.29,43.432,70.739l-23.377,32.13     c-10.024,13.777-6.982,33.072,6.796,43.096l29.473,21.444c13.777,10.024,33.072,6.982,43.096-6.796l23.449-32.229     c25.125,11.091,52.402,17.808,80.721,19.348l6.186,39.229c2.654,16.83,18.449,28.322,35.279,25.668l36.004-5.677     c16.83-2.654,28.322-18.449,25.669-35.279l-6.205-39.349c26.442-10.245,50.29-25.094,70.739-43.432l32.13,23.377     c13.777,10.024,33.072,6.982,43.097-6.796l21.444-29.473c10.024-13.777,6.982-33.072-6.796-43.096l-32.229-23.449     c11.091-25.125,17.808-52.402,19.348-80.721l39.229-6.186c16.83-2.654,28.322-18.449,25.669-35.279l-5.677-36.004     C1279.118,220.649,1263.323,209.157,1246.493,211.811z M1006.992,407.145c-58.139,9.168-112.701-30.531-121.869-88.67     s30.531-112.701,88.67-121.869c58.139-9.168,112.701,30.531,121.869,88.67C1104.829,343.414,1065.13,397.977,1006.992,407.145z"/>
			<path style="fill:#383A47;" d="M1014.469,604.228c-7.517,0-14.82-2.362-21.016-6.87c-7.744-5.634-12.829-13.946-14.321-23.405     l-5.562-35.27c-25.764-1.841-50.858-7.856-74.716-17.911l-21.097,28.996c-5.634,7.743-13.946,12.829-23.405,14.321     c-9.458,1.494-18.933-0.79-26.676-6.424l-29.473-21.444c-15.984-11.63-19.527-34.097-7.897-50.081l21.019-28.889     c-16.961-19.569-30.463-41.561-40.201-65.477l-35.399,5.582c-9.458,1.493-18.933-0.79-26.676-6.424     c-7.744-5.634-12.829-13.946-14.321-23.405l-5.677-36.004c-3.079-19.527,10.302-37.917,29.829-40.997l35.27-5.562     c1.841-25.764,7.856-50.858,17.911-74.716l-28.996-21.097c-7.743-5.633-12.829-13.946-14.321-23.405     c-1.492-9.459,0.79-18.933,6.424-26.676l21.444-29.474c11.63-15.983,34.096-19.527,50.081-7.896l28.889,21.019     c19.569-16.961,41.561-30.464,65.477-40.201l-5.582-35.399c-3.079-19.526,10.302-37.917,29.829-40.997l36.004-5.677     c19.525-3.076,37.917,10.302,40.997,29.829l5.562,35.27c25.764,1.841,50.858,7.857,74.716,17.911l21.097-28.996     c5.634-7.743,13.946-12.829,23.405-14.32c9.458-1.493,18.932,0.79,26.676,6.424l29.473,21.444     c15.984,11.63,19.527,34.096,7.897,50.081l-21.019,28.889c16.96,19.568,30.463,41.56,40.201,65.477l35.399-5.582     c9.459-1.492,18.933,0.79,26.676,6.423c7.743,5.634,12.829,13.946,14.32,23.405l5.677,36.004     c1.492,9.459-0.79,18.933-6.423,26.676c-5.634,7.744-13.946,12.829-23.405,14.321l-35.269,5.562     c-1.841,25.763-7.857,50.858-17.911,74.716l28.996,21.097c7.743,5.634,12.829,13.946,14.32,23.405     c1.492,9.459-0.79,18.933-6.424,26.676l-21.444,29.473c-11.63,15.984-34.096,19.528-50.081,7.897l-28.889-21.019     c-19.569,16.961-41.561,30.463-65.477,40.201l5.582,35.399c3.079,19.526-10.302,37.917-29.829,40.997l-36.004,5.677     C1018.239,604.08,1016.347,604.228,1014.469,604.228z M897.167,509.597c0.679,0,1.365,0.138,2.017,0.426     c25.09,11.076,51.661,17.444,78.974,18.929c2.355,0.128,4.3,1.884,4.667,4.214l6.186,39.229     c2.22,14.081,15.482,23.73,29.561,21.508l36.004-5.677c14.08-2.22,23.729-15.481,21.508-29.561l-6.205-39.349     c-0.367-2.325,0.938-4.591,3.132-5.441c25.498-9.88,48.783-24.176,69.208-42.492c1.755-1.574,4.372-1.708,6.279-0.32     l32.131,23.377c11.526,8.386,27.726,5.831,36.111-5.695l21.444-29.473c4.063-5.583,5.708-12.415,4.632-19.235     c-1.075-6.821-4.743-12.814-10.326-16.877l-32.229-23.449c-1.903-1.385-2.583-3.909-1.632-6.062     c11.075-25.091,17.444-51.662,18.929-78.974c0.128-2.355,1.884-4.3,4.214-4.667l39.229-6.186     c6.821-1.076,12.814-4.743,16.877-10.326c4.062-5.583,5.707-12.415,4.631-19.235l-5.677-36.004     c-1.076-6.821-4.743-12.814-10.326-16.876c-5.583-4.063-12.417-5.709-19.235-4.632l-39.349,6.205     c-2.324,0.369-4.591-0.938-5.441-3.132c-9.88-25.499-24.177-48.784-42.492-69.208c-1.574-1.756-1.708-4.373-0.32-6.28     l23.377-32.13c8.386-11.526,5.832-27.725-5.694-36.111l-29.474-21.444c-5.583-4.063-12.414-5.707-19.235-4.632     c-6.821,1.075-12.814,4.743-16.876,10.326l-23.449,32.229c-1.384,1.903-3.909,2.583-6.062,1.632     c-25.09-11.075-51.661-17.444-78.974-18.929c-2.355-0.128-4.3-1.884-4.667-4.214l-6.186-39.229     c-2.22-14.08-15.483-23.731-29.561-21.508l-36.004,5.677c-14.08,2.221-23.729,15.482-21.508,29.562l6.205,39.349     c0.367,2.325-0.938,4.591-3.133,5.441c-25.497,9.879-48.781,24.176-69.207,42.492c-1.756,1.574-4.372,1.708-6.28,0.32     l-32.13-23.377c-11.526-8.385-27.726-5.832-36.112,5.694l-21.444,29.473c-4.063,5.583-5.708,12.415-4.632,19.235     c1.076,6.82,4.743,12.814,10.326,16.876l32.229,23.449c1.903,1.385,2.583,3.909,1.632,6.062     c-11.076,25.09-17.444,51.661-18.929,78.974c-0.128,2.355-1.884,4.3-4.214,4.667l-39.229,6.186     c-14.08,2.22-23.729,15.481-21.508,29.561l5.677,36.004c1.076,6.821,4.743,12.814,10.326,16.877     c5.583,4.063,12.415,5.707,19.235,4.632l39.349-6.205c2.325-0.367,4.59,0.938,5.441,3.132     c9.88,25.498,24.176,48.783,42.492,69.208c1.574,1.755,1.708,4.373,0.32,6.28l-23.377,32.13     c-8.386,11.525-5.831,27.725,5.695,36.111l29.473,21.444c5.583,4.063,12.416,5.706,19.235,4.632     c6.821-1.076,12.814-4.743,16.877-10.327l23.449-32.228C894.086,510.33,895.605,509.597,897.167,509.597z M1246.493,211.811h0.01     H1246.493z M990.326,413.456c-53.922,0-101.484-39.294-110.143-94.203c-9.583-60.769,32.061-118.004,92.83-127.586     c29.438-4.641,58.922,2.458,83.019,19.991c24.098,17.533,39.926,43.401,44.568,72.839c9.582,60.769-32.061,118.004-92.83,127.587     C1001.91,413.008,996.081,413.456,990.326,413.456z M1006.213,402.206l0.779,4.939L1006.213,402.206     c55.322-8.724,93.233-60.829,84.51-116.151c-4.226-26.799-18.635-50.349-40.573-66.311     c-21.938-15.961-48.778-22.423-75.578-18.199c-55.322,8.724-93.233,60.829-84.51,116.151     c4.226,26.799,18.635,50.349,40.573,66.311C952.573,399.969,979.415,406.431,1006.213,402.206z"/>
		</g>
	</g>
	<g>
		<g>
			<path style="fill:#383A47;" d="M1239.984,826.745l-46.82,1.768c-3.3-7.988-7.309-15.808-12.065-23.372     c-4.756-7.564-10.068-14.565-15.837-21l21.879-41.431c8.511-16.117,2.345-36.082-13.772-44.593l-35.912-18.964     c-16.117-8.511-36.082-2.345-44.593,13.772l-21.888,41.448c-17.282-2.32-35.004-1.736-52.383,1.94l-24.928-39.642     c-9.702-15.429-30.075-20.072-45.504-10.369l-34.379,21.619c-15.429,9.702-20.072,30.075-10.369,45.504l24.928,39.642     c-10.842,14.071-19.047,29.79-24.443,46.371l-46.839,1.769c-18.213,0.688-32.42,16.01-31.732,34.223l1.533,40.583     c0.688,18.213,16.01,32.42,34.223,31.732l46.82-1.768c3.3,7.988,7.309,15.808,12.065,23.372c4.756,7.564,10.068,14.565,15.837,21     l-21.879,41.431c-8.511,16.117-2.345,36.082,13.772,44.593l35.912,18.964c16.117,8.511,36.082,2.345,44.593-13.772l21.888-41.448     c17.282,2.32,35.003,1.736,52.383-1.94l24.928,39.642c9.702,15.429,30.075,20.072,45.504,10.369l34.379-21.619     c15.429-9.702,20.072-30.075,10.37-45.504l-24.928-39.642c10.843-14.071,19.047-29.79,24.443-46.371l46.839-1.769     c18.213-0.688,32.42-16.01,31.732-34.223l-1.533-40.583C1273.519,840.264,1258.197,826.057,1239.984,826.745z M1087.233,945.609     c-32.233,20.269-74.795,10.571-95.065-21.663c-20.269-32.233-10.57-74.795,21.663-95.065     c32.233-20.269,74.795-10.571,95.065,21.663C1129.166,882.778,1119.467,925.34,1087.233,945.609z"/>
			<path style="fill:#383A47;" d="M978.956,1104.152c-5.978,0-12.039-1.413-17.682-4.393l-35.912-18.964     c-18.529-9.785-25.643-32.819-15.858-51.349l20.271-38.387c-5.135-5.987-9.849-12.381-14.042-19.047     c-4.192-6.667-7.912-13.686-11.083-20.907l-43.381,1.639c-10.133,0.386-19.829-3.207-27.271-10.108     c-7.443-6.901-11.753-16.289-12.137-26.432l-1.533-40.583c-0.383-10.143,3.207-19.828,10.108-27.271s16.289-11.753,26.432-12.137     l43.394-1.639c5.244-15.001,12.633-29.02,22.011-41.76l-23.094-36.725c-5.403-8.593-7.137-18.775-4.882-28.672     c2.255-9.897,8.229-18.323,16.822-23.727l34.379-21.619c8.593-5.404,18.776-7.137,28.672-4.882     c9.897,2.255,18.323,8.229,23.727,16.822l23.094,36.725c15.544-2.933,31.379-3.519,47.173-1.746l20.277-38.399     c9.785-18.529,32.821-25.642,51.349-15.858l35.912,18.964c18.529,9.785,25.643,32.82,15.858,51.349l-20.271,38.388     c5.137,5.99,9.852,12.384,14.042,19.047c4.191,6.665,7.911,13.683,11.083,20.907l43.381-1.638h0     c20.955-0.779,38.618,15.601,39.409,36.54l1.533,40.583c0.79,20.939-15.602,38.618-36.541,39.409l-43.393,1.639     c-5.244,15.002-12.633,29.02-22.011,41.76l23.094,36.725c11.155,17.739,5.798,41.245-11.94,52.399l-34.379,21.619     c-8.593,5.403-18.775,7.138-28.672,4.882c-9.897-2.255-18.323-8.229-23.727-16.822l-23.093-36.725     c-15.547,2.933-31.382,3.518-47.173,1.745l-20.277,38.399C1005.819,1096.786,992.605,1104.151,978.956,1104.152z      M907.902,940.977c2.017,0,3.845,1.215,4.62,3.091c3.236,7.834,7.165,15.444,11.677,22.62     c4.512,7.175,9.669,14.013,15.327,20.324c1.397,1.559,1.676,3.822,0.699,5.673l-21.878,41.431     c-7.209,13.653-1.968,30.626,11.686,37.836l35.912,18.964c13.652,7.209,30.627,1.968,37.836-11.686l21.888-41.448     c0.979-1.853,3.008-2.895,5.087-2.621c16.969,2.278,34.021,1.647,50.683-1.875c2.054-0.434,4.152,0.457,5.268,2.23l24.928,39.642     c3.981,6.332,10.19,10.734,17.482,12.396c7.293,1.661,14.796,0.384,21.127-3.597l34.379-21.619     c6.332-3.981,10.734-10.19,12.396-17.482c1.662-7.292,0.384-14.796-3.597-21.127l-24.928-39.642     c-1.115-1.773-1.006-4.054,0.272-5.713c10.394-13.488,18.35-28.583,23.649-44.866c0.648-1.993,2.471-3.37,4.566-3.449     l46.839-1.769c15.429-0.583,27.507-13.609,26.925-29.039l-1.533-40.583c-0.583-15.428-13.634-27.524-29.038-26.924h0     l-46.82,1.768c-2.092,0.076-4.01-1.154-4.81-3.087c-3.238-7.836-7.167-15.446-11.677-22.619     c-4.51-7.172-9.667-14.01-15.327-20.325c-1.397-1.558-1.676-3.822-0.699-5.672l21.878-41.431     c7.21-13.653,1.968-30.626-11.686-37.836l-35.912-18.964c-13.652-7.209-30.626-1.968-37.836,11.686l-21.888,41.448     c-0.979,1.853-3.001,2.9-5.087,2.621c-16.97-2.278-34.022-1.647-50.682,1.876c-2.048,0.435-4.152-0.456-5.268-2.23     l-24.928-39.642c-3.981-6.332-10.19-10.734-17.482-12.396c-7.292-1.661-14.795-0.385-21.127,3.598l-34.379,21.619     c-6.332,3.981-10.734,10.19-12.396,17.482c-1.662,7.292-0.384,14.796,3.597,21.127l24.928,39.642     c1.115,1.773,1.006,4.054-0.272,5.713c-10.393,13.489-18.35,28.584-23.649,44.866c-0.648,1.993-2.471,3.37-4.565,3.449     l-46.839,1.769c-7.474,0.282-14.391,3.458-19.476,8.943c-5.085,5.484-7.731,12.621-7.448,20.095l1.533,40.583     c0.282,7.474,3.458,14.391,8.943,19.476c5.485,5.086,12.633,7.726,20.095,7.448l46.82-1.769     C907.775,940.978,907.839,940.977,907.902,940.977z M1239.984,826.745h0.01H1239.984z M1050.675,961.217     c-5.513,0-11.063-0.62-16.571-1.875c-19.257-4.388-35.653-16.013-46.167-32.733c-21.705-34.516-11.282-80.254,23.234-101.959     c34.516-21.704,80.254-11.281,101.959,23.234c21.704,34.516,11.281,80.254-23.234,101.959     C1077.957,957.349,1064.438,961.217,1050.675,961.217z M1050.429,823.318c-11.629,0-23.386,3.162-33.936,9.796     c-14.459,9.092-24.512,23.271-28.307,39.924c-3.794,16.653-0.877,33.788,8.215,48.247c9.092,14.459,23.271,24.512,39.923,28.307     c16.654,3.794,33.788,0.877,48.247-8.215c29.848-18.769,38.861-58.322,20.092-88.17     C1092.529,833.908,1071.7,823.318,1050.429,823.318z"/>
		</g>
		<g>
			<path style="fill:#F3F6E7;" d="M1217.24,826.745l-46.82,1.768c-3.3-7.988-7.309-15.808-12.065-23.372     c-4.756-7.564-10.068-14.565-15.837-21l21.879-41.431c8.511-16.117,2.345-36.082-13.772-44.593l-35.912-18.964     c-16.117-8.511-36.082-2.345-44.593,13.772l-21.888,41.448c-17.282-2.32-35.003-1.736-52.383,1.94l-24.928-39.642     c-9.702-15.429-30.075-20.072-45.504-10.369l-34.379,21.619c-15.429,9.702-20.072,30.075-10.369,45.504l24.928,39.642     c-10.842,14.071-19.047,29.79-24.443,46.371l-46.839,1.769c-18.213,0.688-32.42,16.01-31.732,34.223l1.533,40.583     c0.688,18.213,16.01,32.42,34.224,31.732l46.82-1.768c3.3,7.988,7.309,15.808,12.065,23.372c4.756,7.564,10.068,14.565,15.837,21     l-21.879,41.431c-8.511,16.117-2.345,36.082,13.772,44.593l35.912,18.964c16.117,8.511,36.082,2.345,44.593-13.772l21.888-41.448     c17.282,2.32,35.003,1.736,52.383-1.94l24.928,39.642c9.702,15.429,30.075,20.072,45.504,10.369l34.379-21.619     c15.429-9.702,20.072-30.075,10.369-45.504l-24.928-39.642c10.843-14.071,19.047-29.79,24.443-46.371l46.839-1.769     c18.213-0.688,32.42-16.01,31.732-34.223l-1.533-40.583C1250.775,840.264,1235.453,826.057,1217.24,826.745z M1064.489,945.609     c-32.233,20.269-74.795,10.571-95.065-21.663c-20.269-32.233-10.57-74.795,21.663-95.065     c32.234-20.269,74.795-10.571,95.065,21.663C1106.421,882.778,1096.722,925.34,1064.489,945.609z"/>
			<path style="fill:#383A47;" d="M956.228,1104.175c-6.101,0-12.149-1.486-17.698-4.416l-35.913-18.964     c-18.529-9.785-25.643-32.819-15.858-51.349l20.272-38.387c-5.136-5.988-9.851-12.382-14.042-19.047     c-4.191-6.665-7.911-13.684-11.083-20.907l-43.38,1.639c-10.14,0.386-19.829-3.207-27.272-10.108     c-7.443-6.901-11.753-16.289-12.137-26.432l-1.533-40.583c-0.383-10.143,3.207-19.828,10.108-27.271     c6.902-7.443,16.289-11.753,26.432-12.137l43.394-1.639c5.244-15.001,12.633-29.019,22.011-41.76l-23.093-36.725     c-11.155-17.739-5.798-41.245,11.94-52.399l34.379-21.619c8.592-5.404,18.775-7.137,28.672-4.882     c9.897,2.255,18.323,8.229,23.727,16.822l23.094,36.725c15.545-2.933,31.38-3.519,47.173-1.746l20.277-38.399     c4.74-8.976,12.691-15.568,22.39-18.563c9.698-2.996,19.982-2.035,28.959,2.705l35.913,18.964     c18.529,9.785,25.643,32.82,15.858,51.349l-20.272,38.388c5.136,5.988,9.85,12.382,14.042,19.047     c4.191,6.665,7.911,13.683,11.083,20.907l43.38-1.638l0.188,4.997l-0.188-4.997c20.918-0.779,38.618,15.601,39.409,36.54     l1.533,40.583c0.791,20.939-15.601,38.618-36.541,39.409l-43.393,1.639c-5.244,15.002-12.633,29.02-22.011,41.76l23.093,36.725     c11.155,17.739,5.798,41.245-11.94,52.399l-34.379,21.619c-8.592,5.403-18.775,7.138-28.672,4.882     c-9.897-2.255-18.323-8.229-23.727-16.822l-23.094-36.725c-15.547,2.933-31.383,3.518-47.173,1.745l-20.277,38.399     c-4.74,8.976-12.691,15.569-22.39,18.564C963.785,1103.608,959.997,1104.175,956.228,1104.175z M885.157,940.977     c2.017,0,3.845,1.215,4.62,3.091c3.238,7.836,7.167,15.447,11.677,22.62c4.511,7.174,9.668,14.012,15.328,20.324     c1.397,1.559,1.676,3.822,0.699,5.673l-21.879,41.431c-7.209,13.653-1.968,30.626,11.686,37.836l35.913,18.964     c6.613,3.493,14.192,4.201,21.338,1.993c7.146-2.207,13.005-7.065,16.498-13.679l21.888-41.448     c0.979-1.853,3.009-2.895,5.087-2.621c16.969,2.278,34.021,1.647,50.683-1.875c2.054-0.434,4.152,0.457,5.268,2.23l24.928,39.642     c3.981,6.332,10.19,10.734,17.483,12.396c7.293,1.661,14.795,0.384,21.127-3.597l34.379-21.619     c13.071-8.219,17.018-25.539,8.798-38.61l-24.928-39.642c-1.115-1.773-1.006-4.054,0.272-5.713     c10.393-13.488,18.35-28.583,23.649-44.866c0.648-1.993,2.471-3.37,4.566-3.449l46.839-1.769     c15.429-0.583,27.507-13.609,26.924-29.038l-1.533-40.583c-0.583-15.428-13.615-27.524-29.038-26.924c0,0,0,0,0,0l-46.819,1.768     c-2.083,0.076-4.011-1.154-4.81-3.087c-3.238-7.836-7.167-15.446-11.677-22.619c-4.511-7.174-9.668-14.012-15.328-20.324     c-1.397-1.559-1.676-3.822-0.699-5.673l21.879-41.431c7.21-13.653,1.968-30.626-11.686-37.836l-35.913-18.964     c-13.654-7.211-30.626-1.968-37.836,11.686l-21.888,41.448c-0.979,1.853-3.004,2.9-5.087,2.621     c-16.97-2.278-34.023-1.647-50.683,1.876c-2.05,0.437-4.152-0.457-5.268-2.23l-24.928-39.642     c-3.981-6.332-10.19-10.734-17.483-12.396c-7.293-1.662-14.795-0.384-21.127,3.597l-34.379,21.619     c-13.071,8.219-17.018,25.539-8.798,38.61l24.928,39.642c1.115,1.773,1.006,4.054-0.272,5.713     c-10.394,13.489-18.35,28.584-23.649,44.866c-0.648,1.993-2.471,3.37-4.566,3.449l-46.839,1.769     c-7.474,0.282-14.391,3.458-19.476,8.943c-5.085,5.484-7.73,12.621-7.448,20.095l1.533,40.583     c0.583,15.429,13.614,27.504,29.038,26.924l46.819-1.769C885.031,940.978,885.094,940.977,885.157,940.977z M1027.93,961.217     c-5.513,0-11.063-0.62-16.571-1.875c-19.257-4.388-35.653-16.013-46.168-32.733c-10.514-16.72-13.888-36.534-9.499-55.792     c4.388-19.257,16.013-35.653,32.733-46.168c34.516-21.704,80.253-11.281,101.959,23.234c10.514,16.72,13.888,36.534,9.5,55.792     c-4.389,19.257-16.014,35.653-32.734,46.167C1055.212,957.349,1041.694,961.217,1027.93,961.217z M1027.685,823.318     c-11.628,0-23.386,3.162-33.936,9.796c-14.459,9.092-24.512,23.271-28.307,39.924c-3.795,16.653-0.877,33.788,8.215,48.247     s23.271,24.512,39.924,28.307c16.652,3.794,33.787,0.877,48.246-8.215l0,0c14.459-9.092,24.512-23.271,28.307-39.923     c3.794-16.653,0.877-33.788-8.215-48.247C1069.784,833.908,1048.956,823.318,1027.685,823.318z"/>
		</g>
	</g>
</g>

            </g>
        </g>
    </g>
    
    <!-- ITEM 5 -->
    <g>
        <defs>
            <clipPath id="clip-path-id-crop-item-5">
                
          <g transform="scale(1.144578313253012 1.1400537634408603)">
          <rect x="0.0" y="0.0" width="433.0" height="390.0"/>
          </g>
        
            </clipPath>
            
            <clipPath id="clip-path-id-viewbox-item-5">
                <rect x="0.0" y="0.0" width="475.0" height="424.1"/>
            </clipPath>
        </defs>
        <g clip-path="url(#clip-path-id-crop-item-5)" transform="translate(590.0 89.0) rotate(0.0 207.5 186.0) scale(0.8736842105263158 0.8771516151850978)">
            <g clip-path="url(#clip-path-id-viewbox-item-5)" transform="translate(-0.0 -0.0)">
                

<g>
	<g>
		<rect x="5" y="5" width="465" height="414.1" style="fill:#F3F6E6;"/>
		<path d="M470,424.1H5c-2.8,0-5-2.2-5-5V5c0-2.8,2.2-5,5-5h465c2.8,0,5,2.2,5,5v414.1C475,421.9,472.8,424.1,470,424.1    z M10,414.1h455V10H10V414.1z" style="fill:#383A48;"/>
	</g>
	<g>
		<rect x="5" y="5" width="465" height="123.2" style="fill:#7FD6C2;"/>
		<path d="M470,133.2H5c-2.8,0-5-2.2-5-5V5c0-2.8,2.2-5,5-5h465c2.8,0,5,2.2,5,5v123.2C475,131,472.8,133.2,470,133.2z     M10,123.2h455V10H10V123.2z" style="fill:#383A48;"/>
	</g>
	<g>
		<g>
			<g>
				
					<rect x="403.4" y="50.2" transform="matrix(0.7071 -0.7071 0.7071 0.7071 72.5036 308.3389)" width="10" height="33" style="fill:#383A48;"/>
			</g>
			<g>
				
					<rect x="392" y="61.7" transform="matrix(0.7072 -0.7071 0.7071 0.7072 72.4869 308.3157)" width="33" height="10" style="fill:#383A48;"/>
			</g>
		</g>
		<g>
			<path d="M377,84.4h-35.5V48.9H377V84.4z M351.5,74.4H367V58.9h-15.5V74.4z" style="fill:#383A48;"/>
		</g>
		<g>
			<rect x="295.9" y="74.4" width="25.4" height="10" style="fill:#383A48;"/>
		</g>
	</g>
</g>

            </g>
        </g>
    </g>
    
    <!-- ITEM 6 -->
    <g>
        <defs>
            <clipPath id="clip-path-id-viewbox-item-6">
                <rect x="0.0" y="0.0" width="266.412" height="266.412"/>
            </clipPath>
        </defs>
        <g transform="translate(489.0 556.0) rotate(0.0 27.0 27.0) scale(0.20269357236160535 0.20269357236160535)">
            <g clip-path="url(#clip-path-id-viewbox-item-6)" transform="translate(-0.0 -0.0)">
                <title>circle_2 copy</title><g id="Layer_2-i6" data-name="Layer 2"><g id="circle_2_copy-i6" data-name="circle_2 copy"><circle cx="133.206" cy="133.206" r="128.206" fill="#aac4fa"/><path d="M133.206,266.412C59.755,266.412,0,206.656,0,133.206S59.755,0,133.206,0,266.412,59.756,266.412,133.206,206.656,266.412,133.206,266.412Zm0-256.412A123.206,123.206,0,1,0,256.412,133.206,123.346,123.346,0,0,0,133.206,10Z" fill="#aac4fa"/></g></g>
            </g>
        </g>
    </g>
    
    <!-- ITEM 7 -->
    <g>
        <defs>
            <clipPath id="clip-path-id-viewbox-item-7">
                <rect x="0.0" y="0.0" width="266.412" height="266.412"/>
            </clipPath>
        </defs>
        <g transform="translate(543.0 524.0) rotate(0.0 25.5 25.5) scale(0.19143281834151615 0.19143281834151615)">
            <g clip-path="url(#clip-path-id-viewbox-item-7)" transform="translate(-0.0 -0.0)">
                <title>circle_2 copy</title><g id="Layer_2-i7" data-name="Layer 2"><g id="circle_2_copy-i7" data-name="circle_2 copy"><circle cx="133.206" cy="133.206" r="128.206" fill="#aac4fa"/><path d="M133.206,266.412C59.755,266.412,0,206.656,0,133.206S59.755,0,133.206,0,266.412,59.756,266.412,133.206,206.656,266.412,133.206,266.412Zm0-256.412A123.206,123.206,0,1,0,256.412,133.206,123.346,123.346,0,0,0,133.206,10Z" fill="#aac4fa"/></g></g>
            </g>
        </g>
    </g>
    
    <!-- ITEM 8 -->
    <g>
        <defs>
            <clipPath id="clip-path-id-crop-item-8">
                
          <g transform="scale(1.6278688524590164 1.6275555555555554)">
          <rect x="-19.0" y="0.0" width="202.0" height="255.0"/>
          </g>
        
            </clipPath>
            
            <clipPath id="clip-path-id-viewbox-item-8">
                <rect x="0.0" y="0.0" width="297.9" height="366.2"/>
            </clipPath>
        </defs>
        <g clip-path="url(#clip-path-id-crop-item-8)" transform="translate(658.0 384.0) rotate(0.0 -91.5 112.5) scale(-0.6143001007049346 0.6144183506280722)">
            <g clip-path="url(#clip-path-id-viewbox-item-8)" transform="translate(-0.0 -0.0)">
                

<g>
	<polygon points="292.9,173.9 5,5 97.2,325.8 149.9,250.4 234.5,361.2 286.8,320.6 202.6,210.2  " style="fill:#F3F6E6;"/>
	<path d="M234.5,366.2c-0.2,0-0.4,0-0.6,0c-1.3-0.2-2.5-0.9-3.3-1.9l-80.4-105.4l-48.8,69.8c-1.1,1.6-3,2.4-4.9,2.1   c-1.9-0.3-3.5-1.7-4-3.6L0.2,6.4c-0.6-2,0.1-4.1,1.7-5.3c1.6-1.3,3.8-1.4,5.6-0.4l287.9,168.9c1.6,1,2.6,2.8,2.5,4.7   c-0.1,1.9-1.4,3.6-3.1,4.3l-84.2,33.9l80.2,105.2c1.7,2.2,1.3,5.3-0.9,7l-52.3,40.6C236.7,365.8,235.6,366.2,234.5,366.2z    M149.9,245.4c1.6,0,3,0.7,4,2l81.5,106.8l44.4-34.5l-81.2-106.5c-0.9-1.2-1.3-2.9-0.8-4.4c0.4-1.5,1.5-2.7,3-3.3l80.9-32.5   L13.3,15.6l85.8,298.7l46.7-66.8c0.9-1.3,2.4-2.1,4-2.1C149.8,245.4,149.9,245.4,149.9,245.4z" style="fill:#383A48;"/>
</g>

            </g>
        </g>
    </g>
    
    <!-- ITEM 9 -->
    <g>
        <defs>
            <clipPath id="clip-path-id-crop-item-9">
                
          <g transform="scale(1.9426923076923077 1.9365079365079365)">
          <rect x="0.0" y="0.0" width="288.0" height="104.0"/>
          </g>
        
            </clipPath>
            
            <clipPath id="clip-path-id-viewbox-item-9">
                <rect x="0.0" y="0.0" width="505.1" height="122.0"/>
            </clipPath>
        </defs>
        <g clip-path="url(#clip-path-id-crop-item-9)" transform="translate(287.0 142.0) rotate(0.0 130.0 31.5) scale(0.5147495545436547 0.5163934426229508)">
            <g clip-path="url(#clip-path-id-viewbox-item-9)" transform="translate(-0.0 -0.0)">
                <path d="M444.1,0H61a61,61,0,0,0,0,122H444.1a61,61,0,0,0,0-122Z" fill="#7fd6c2"/><path d="M395.1,117h-78a56.036,56.036,0,0,1-56-56h0a56.036,56.036,0,0,1,56-56h78a56.036,56.036,0,0,1,56,56h0A56.036,56.036,0,0,1,395.1,117Z" fill="#f6e049"/><path d="M395.1,122h-78a61,61,0,0,1,0-122h78a61,61,0,0,1,0,122Zm-78-112a51,51,0,0,0,0,102h78a51,51,0,0,0,0-102Z" fill="#383a48"/>
            </g>
        </g>
    </g>
    
    <!-- ITEM 10 -->
    <g>
        <defs>
            <clipPath id="clip-path-id-crop-item-10">
                
          <g transform="scale(2.363137254901961 2.3645454545454547)">
          <rect x="0.0" y="0.0" width="272.0" height="132.0"/>
          </g>
        
            </clipPath>
            
            <clipPath id="clip-path-id-viewbox-item-10">
                <rect x="0.0" y="0.0" width="602.6" height="260.1"/>
            </clipPath>
        </defs>
        <g clip-path="url(#clip-path-id-crop-item-10)" transform="translate(660.0 273.0) rotate(0.0 127.5 55.0) scale(0.42316627945569196 0.4229142637447135)">
            <g clip-path="url(#clip-path-id-viewbox-item-10)" transform="translate(-0.0 -0.0)">
                

<g>
	<path d="M145.1,194.3l-13.8,65.8h-17.1l13.8-65.8H0l3.7-17.1L167.2,0h19.3l-38.1,178h26.8l-3.5,16.4h-26.6L145.1,194.3   L145.1,194.3z M22.3,178.3h109L164,23.6L22.3,178.3z" style="fill:#383A48;"/>
	<path d="M375.2,218.2l-50.7,41.9h-81.1l-33.1-41.8l37.4-176.5L298.3,0h81.1l33.3,41.8L375.2,218.2z M228.1,214.3   l23.2,29.8h66.8l41.8-34.6l29.8-139.9L228.1,214.3z M262.9,50.7l-29.8,139.7L394.5,45.7l-23.2-29.8h-66.6L262.9,50.7z" style="fill:#383A48;"/>
	<path d="M561.1,194.3l-13.7,65.8h-17.1l13.8-65.8h-128l3.7-17.1L583.3,0h19.3l-38.1,178h26.8l-3.5,16.4h-26.7V194.3z    M438.4,178.3h109l32.7-154.7L438.4,178.3z" style="fill:#383A48;"/>
</g>

            </g>
        </g>
    </g>
    
    <!-- ITEM 11 -->
    <g>
        <defs>
            <clipPath id="clip-path-id-crop-item-11">
                
          <g transform="scale(2.3745173745173744 2.379421221864952)">
          <rect x="0.0" y="0.0" width="293.0" height="331.0"/>
          </g>
        
            </clipPath>
            
            <clipPath id="clip-path-id-viewbox-item-11">
                <rect x="0.0" y="0.0" width="615.0" height="740.0"/>
            </clipPath>
        </defs>
        <g clip-path="url(#clip-path-id-crop-item-11)" transform="translate(133.0 306.0) rotate(0.0 129.5 155.5) scale(0.4211382113821138 0.42027027027027025)">
            <g clip-path="url(#clip-path-id-viewbox-item-11)" transform="translate(-0.0 -0.0)">
                
<g>
	<g>
		<path style="fill:#7FD7C3;" d="M610,695.5V735H5v-39.5c0-120.53,70.48-224.59,172.48-273.21c24.59-11.72,51.01-20.23,78.71-24.95    c16.68-2.86,33.82-4.34,51.31-4.34c17.15,0,33.96,1.43,50.33,4.17c28.06,4.69,54.82,13.26,79.69,25.12    C539.52,470.91,610,574.97,610,695.5z"/>
		<path style="fill:#383A47;" d="M610,740H5c-2.762,0-5-2.239-5-5v-39.5c0-59.221,16.87-116.719,48.786-166.278    c31.081-48.262,74.839-86.799,126.543-111.445c25.418-12.114,52.341-20.648,80.021-25.365    c33.759-5.789,69.319-5.861,103.306-0.172c28.059,4.689,55.317,13.282,81.017,25.538c51.703,24.646,95.461,63.183,126.542,111.445    C598.13,578.781,615,636.279,615,695.5V735C615,737.761,612.762,740,610,740z M10,730h595v-34.5    c0-114.107-66.584-219.577-169.632-268.696c-24.858-11.855-51.223-20.166-78.362-24.702c-32.889-5.505-67.303-5.434-99.972,0.167    c-26.775,4.563-52.816,12.817-77.402,24.536C76.584,475.923,10,581.393,10,695.5V730z"/>
	</g>
	<g>
		<path style="fill:#F3F6E7;" d="M437.52,422.29l-96.93,167.9L307.5,647.5l-33.97-58.83l-96.05-166.38    C216.86,403.51,260.95,393,307.5,393S398.14,403.51,437.52,422.29z"/>
		<path style="fill:#383A47;" d="M307.5,652.5c-1.786,0-3.437-0.953-4.33-2.5l-33.97-58.83l-96.05-166.38    c-0.697-1.208-0.858-2.651-0.445-3.983c0.414-1.332,1.364-2.43,2.623-3.03C216.759,398.019,261.228,388,307.5,388    s90.741,10.019,132.172,29.777c1.259,0.6,2.209,1.699,2.623,3.03c0.413,1.332,0.252,2.775-0.445,3.983L311.83,650    C310.937,651.547,309.286,652.5,307.5,652.5z M184.539,424.517L277.86,586.17L307.5,637.5l122.961-212.984    C391.789,406.919,350.448,398,307.5,398S223.211,406.919,184.539,424.517z"/>
	</g>
	<g>
		<path style="fill:#383A47;" d="M351.851,396.679C349.981,419.815,330.613,438,307.001,438c-23.568,0-42.891-18.106-44.832-41.171    c14.718-2.524,29.841-3.829,45.274-3.829C322.575,393,337.407,394.262,351.851,396.679z"/>
		<path style="fill:#383A47;" d="M307.001,443c-25.773,0-47.655-20.096-49.814-45.751c-0.218-2.586,1.579-4.909,4.138-5.348    c29.851-5.12,61.293-5.186,91.353-0.154c2.562,0.429,4.368,2.747,4.158,5.334C354.753,422.831,332.863,443,307.001,443z     M267.808,400.982C271.543,419.265,287.941,433,307.001,433c19.13,0,35.543-13.789,39.226-32.146    C320.338,397.017,293.532,397.071,267.808,400.982z"/>
	</g>
	<g>
		<polygon style="fill:#383A47;" points="340.59,590.19 307.5,647.5 273.53,588.67 287,419 327,419   "/>
		<path style="fill:#383A47;" d="M307.5,652.5c-1.786,0-3.437-0.953-4.33-2.5l-33.97-58.83c-0.506-0.877-0.734-1.887-0.654-2.896    l13.47-169.67c0.206-2.6,2.376-4.604,4.984-4.604h40c2.608,0,4.778,2.004,4.984,4.604l13.59,171.19    c0.08,1.009-0.148,2.019-0.654,2.896L311.83,650C310.937,651.547,309.286,652.5,307.5,652.5z M278.638,587.516L307.5,637.5    l27.982-48.464L322.381,424h-30.762L278.638,587.516z"/>
	</g>
	<g>
		<g>
			<path style="fill:#F6E258;" d="M502,200c0,107.7-87.3,195-195,195s-195-87.3-195-195c0-16.99,2.17-33.47,6.26-49.19     c11.17-43.02,36.67-80.27,71.1-106.34c14.92-11.31,31.51-20.51,49.35-27.18C259.96,9.34,282.97,5,307,5     c23.98,0,46.95,4.33,68.16,12.24c17.89,6.67,34.52,15.89,49.48,27.23c34.71,26.29,60.35,63.94,71.38,107.41     C499.92,167.27,502,183.39,502,200z"/>
			<path style="fill:#383A47;" d="M307,400c-110.28,0-200-89.72-200-200c0-17.099,2.16-34.072,6.421-50.449     c11.223-43.225,37.12-81.96,72.92-109.068c15.465-11.722,32.496-21.101,50.618-27.877C259.317,4.242,282.884,0,307,0     c24.048,0,47.568,4.224,69.907,12.556c18.159,6.77,35.235,16.167,50.754,27.929c36.124,27.362,62.122,66.487,73.205,110.166     C504.937,166.711,507,183.314,507,200C507,310.28,417.28,400,307,400z M307,10c-22.916,0-45.303,4.028-66.538,11.973     c-17.213,6.436-33.39,15.345-48.082,26.481c-34.017,25.757-58.62,62.553-69.28,103.612C119.052,167.624,117,183.75,117,200     c0,104.767,85.233,190,190,190s190-85.233,190-190c0-15.858-1.961-31.635-5.827-46.892     c-10.526-41.487-35.227-78.654-69.551-104.653c-14.743-11.175-30.962-20.1-48.209-26.53C352.195,14.012,329.852,10,307,10z"/>
		</g>
		<g>
			<path style="fill:#383A47;" d="M424.64,44.47c-9.46,10.55-20.32,19.82-32.28,27.51C367.74,87.82,338.44,97,307,97     c-31.61,0-61.06-9.28-85.76-25.28c-11.8-7.64-22.52-16.82-31.88-27.25c14.92-11.31,31.51-20.51,49.35-27.18     C259.96,9.34,282.97,5,307,5c23.98,0,46.95,4.33,68.16,12.24C393.05,23.91,409.68,33.13,424.64,44.47z"/>
			<path style="fill:#383A47;" d="M307,102c-31.541,0-62.136-9.02-88.479-26.084c-12.129-7.852-23.193-17.309-32.884-28.107     c-0.934-1.04-1.389-2.424-1.256-3.815c0.134-1.392,0.843-2.664,1.957-3.509c15.467-11.723,32.498-21.103,50.62-27.878     C259.317,4.242,282.884,0,307,0c24.048,0,47.568,4.224,69.907,12.555c18.159,6.771,35.235,16.167,50.754,27.93     c1.113,0.844,1.823,2.116,1.957,3.508c0.133,1.391-0.322,2.774-1.255,3.815c-9.793,10.92-20.996,20.468-33.3,28.378     C368.816,93.073,338.364,102,307,102z M196.842,45.173c8.166,8.471,17.267,15.973,27.115,22.349     C248.678,83.536,277.393,92,307,92c29.441,0,58.022-8.377,82.654-24.225c10.007-6.434,19.238-14.022,27.506-22.601     c-13.531-9.651-28.223-17.461-43.747-23.249C352.195,14.012,329.852,10,307,10c-22.916,0-45.303,4.028-66.538,11.973     C224.974,27.764,210.325,35.557,196.842,45.173z"/>
		</g>
		<g>
			<g>
				<path style="fill:#383A47;" d="M238.71,17.29c-2.5,19.48-8.54,37.84-17.47,54.43c-21.13,39.31-58.42,68.63-102.98,79.09      c11.17-43.02,36.67-80.27,71.1-106.34C204.28,33.16,220.87,23.96,238.71,17.29z"/>
				<path style="fill:#383A47;" d="M118.26,155.81c-1.331,0-2.625-0.532-3.577-1.506c-1.224-1.253-1.702-3.055-1.263-4.75      c11.224-43.227,37.121-81.962,72.921-109.07c15.465-11.722,32.496-21.101,50.618-27.877c1.642-0.613,3.485-0.322,4.857,0.766      c1.373,1.088,2.076,2.816,1.853,4.554c-2.535,19.755-8.6,38.651-18.026,56.163c-22.146,41.2-60.869,70.938-106.24,81.588      C119.023,155.767,118.64,155.81,118.26,155.81z M232.409,25.196c-14.218,6.073-27.65,13.875-40.029,23.258      c-31.697,24.001-55.221,57.585-66.906,95.274c38.959-11.518,71.945-38.254,91.362-74.376      C224.313,55.461,229.536,40.645,232.409,25.196z"/>
			</g>
			<g>
				<path style="fill:#383A47;" d="M496.02,151.88c-44.97-10.47-82.56-40.14-103.66-79.9c-8.87-16.69-14.82-35.16-17.2-54.74      c17.89,6.67,34.52,15.89,49.48,27.23C459.35,70.76,484.99,108.41,496.02,151.88z"/>
				<path style="fill:#383A47;" d="M496.02,156.88c-0.378,0-0.758-0.042-1.134-0.13c-45.826-10.669-84.806-40.712-106.943-82.426      c-9.36-17.615-15.332-36.619-17.746-56.48c-0.21-1.733,0.498-3.45,1.869-4.531c1.371-1.079,3.205-1.367,4.842-0.758      c18.159,6.771,35.235,16.167,50.754,27.93c36.124,27.362,62.122,66.487,73.205,110.166c0.429,1.691-0.055,3.484-1.276,4.73      C498.639,156.351,497.347,156.88,496.02,156.88z M381.393,25.109c2.78,15.575,7.938,30.518,15.382,44.524      c19.435,36.621,52.691,63.658,92.095,75.201c-11.574-38.142-35.222-72.121-67.247-96.379      C409.175,39.021,395.675,31.189,381.393,25.109z"/>
			</g>
		</g>
		<g>
			<path style="fill:#383A47;" d="M307,312.25c-29.776,0-55.672-16.956-67.583-44.25c-1.104-2.531,0.053-5.478,2.583-6.582     c2.536-1.105,5.479,0.053,6.583,2.583c10.295,23.593,32.679,38.25,58.417,38.25s48.122-14.656,58.417-38.25     c1.104-2.53,4.049-3.688,6.583-2.583c2.53,1.104,3.688,4.051,2.583,6.582C362.672,295.294,336.776,312.25,307,312.25z"/>
			<circle style="fill:#383A47;" cx="244" cy="199" r="19"/>
			<circle style="fill:#383A47;" cx="370" cy="199" r="19"/>
		</g>
	</g>
	<path style="fill:#383A47;" d="M308,740c-2.762,0-5-2.239-5-5v-87c0-2.761,2.238-5,5-5s5,2.239,5,5v87   C313,737.761,310.762,740,308,740z"/>
</g>

            </g>
        </g>
    </g>
    
    <!-- ITEM 12 -->
    <g>
        <defs>
            <clipPath id="clip-path-id-crop-item-12">
                
          <g transform="scale(2.676175510204082 2.667172588832487)">
          <rect x="0.0" y="0.0" width="273.0" height="227.0"/>
          </g>
        
            </clipPath>
            
            <clipPath id="clip-path-id-viewbox-item-12">
                <rect x="0.0" y="0.0" width="655.663" height="525.433"/>
            </clipPath>
        </defs>
        <g clip-path="url(#clip-path-id-crop-item-12)" transform="translate(139.0 274.0) rotate(0.0 122.5 98.5) scale(0.3736675700779211 0.3749288681906161)">
            <g clip-path="url(#clip-path-id-viewbox-item-12)" transform="translate(-0.0 -0.0)">
                
<g>
	<path style="fill:#383A47;" d="M588.904,269.058c-2.762,0-5-2.239-5-5C583.904,123.97,469.935,10,329.846,10   S75.786,123.97,75.786,264.058c0,2.761-2.238,5-5,5s-5-2.239-5-5c0-70.532,27.467-136.844,77.341-186.718S259.313,0,329.845,0   c70.533,0,136.845,27.467,186.719,77.341s77.341,116.185,77.341,186.718C593.904,266.82,591.666,269.058,588.904,269.058z"/>
	<path style="fill:#383A47;" d="M477.495,525.433c-32.238,0-62.968-13.877-84.31-38.073c-1.826-2.071-1.628-5.23,0.442-7.057   c2.073-1.826,5.231-1.629,7.058,0.442c19.443,22.045,47.439,34.688,76.81,34.688c56.453,0,102.382-45.928,102.382-102.382   c0-2.761,2.238-5,5-5s5,2.239,5,5C589.877,475.019,539.463,525.433,477.495,525.433z"/>
	<g>
		<g>
			<path style="fill:#AAC4FA;" d="M109.697,311.709c0-39.256,10.257-76.11,28.218-108.053h-24.862     C53.377,203.656,5,252.033,5,311.709l0,0c0,59.676,48.377,108.053,108.053,108.053h24.862     C119.955,387.819,109.697,350.965,109.697,311.709z"/>
			<path style="fill:#383A47;" d="M137.915,424.762h-24.862C50.715,424.762,0,374.047,0,311.709s50.715-113.053,113.053-113.053     h24.862c1.776,0,3.419,0.942,4.315,2.475c0.897,1.533,0.913,3.427,0.043,4.975c-18.04,32.085-27.576,68.601-27.576,105.603     c0,37.001,9.536,73.518,27.576,105.603c0.87,1.548,0.854,3.442-0.043,4.975C141.334,423.82,139.691,424.762,137.915,424.762z      M113.053,208.656C56.229,208.656,10,254.886,10,311.709s46.229,103.053,103.053,103.053h16.499     c-16.283-31.727-24.854-67.174-24.854-103.053c0-35.879,8.571-71.326,24.854-103.053H113.053z"/>
		</g>
		<g>
			<path style="fill:#AAC4FA;" d="M545.966,311.709c0-39.256-10.257-76.11-28.218-108.053h24.862     c59.676,0,108.053,48.377,108.053,108.053l0,0c0,59.676-48.377,108.053-108.053,108.053h-24.862     C535.709,387.819,545.966,350.965,545.966,311.709z"/>
			<path style="fill:#383A47;" d="M542.61,424.762h-24.862c-1.776,0-3.419-0.942-4.315-2.475c-0.897-1.533-0.913-3.427-0.043-4.975     c18.04-32.085,27.576-68.602,27.576-105.603c0-37.001-9.536-73.518-27.576-105.603c-0.87-1.548-0.854-3.442,0.043-4.975     c0.896-1.533,2.539-2.475,4.315-2.475h24.862c62.338,0,113.053,50.715,113.053,113.053S604.948,424.762,542.61,424.762z      M526.111,414.762h16.499c56.823,0,103.053-46.229,103.053-103.053S599.434,208.656,542.61,208.656h-16.499     c16.283,31.727,24.854,67.174,24.854,103.053C550.966,347.588,542.395,383.035,526.111,414.762z"/>
		</g>
	</g>
	<g>
		<circle style="fill:#AAC4FA;" cx="396.951" cy="484.191" r="36.241"/>
		<path style="fill:#383A47;" d="M396.951,525.433c-22.74,0-41.241-18.501-41.241-41.242c0-22.74,18.501-41.241,41.241-41.241    s41.241,18.501,41.241,41.241C438.192,506.932,419.691,525.433,396.951,525.433z M396.951,452.95    c-17.227,0-31.241,14.015-31.241,31.241s14.015,31.241,31.241,31.241s31.241-14.015,31.241-31.241S414.178,452.95,396.951,452.95z    "/>
	</g>
</g>

            </g>
        </g>
    </g>
    
    <!-- ITEM 13 -->
    <g>
        <defs>
            <clipPath id="clip-path-id-crop-item-13">
                
          <g transform="scale(1.52 1.52)">
          <rect x="0.0" y="0.0" width="47.0" height="35.0"/>
          </g>
        
            </clipPath>
            
            <clipPath id="clip-path-id-viewbox-item-13">
                <rect x="0.0" y="0.0" width="30.4" height="30.4"/>
            </clipPath>
        </defs>
        <g clip-path="url(#clip-path-id-crop-item-13)" transform="translate(177.0 117.0) rotate(0.0 10.0 10.0) scale(0.6578947368421053 0.6578947368421053)">
            <g clip-path="url(#clip-path-id-viewbox-item-13)" transform="translate(-0.0 -0.0)">
                

<g id="Layer_1_1_-i13">
	<g>
		<g>
			<rect x="-1.3" y="10.2" transform="matrix(0.7071 -0.7072 0.7072 0.7071 -6.2903 15.1875)" width="33" height="10" style="fill:#383A48;"/>
		</g>
		<g>
			<rect x="10.2" y="-1.3" transform="matrix(0.7071 -0.7071 0.7071 0.7071 -6.2903 15.1865)" width="10" height="33" style="fill:#383A48;"/>
		</g>
	</g>
</g>
<g id="Isolation_Mode-i13">
</g>

            </g>
        </g>
    </g>
    
    <!-- ITEM 14 -->
    <g>
        <defs>
            <clipPath id="clip-path-id-crop-item-14">
                
          <g transform="scale(1.52 1.52)">
          <rect x="0.0" y="0.0" width="30.0" height="30.0"/>
          </g>
        
            </clipPath>
            
            <clipPath id="clip-path-id-viewbox-item-14">
                <rect x="0.0" y="0.0" width="30.4" height="30.4"/>
            </clipPath>
        </defs>
        <g clip-path="url(#clip-path-id-crop-item-14)" transform="translate(831.0 582.0) rotate(0.0 10.0 10.0) scale(0.6578947368421053 0.6578947368421053)">
            <g clip-path="url(#clip-path-id-viewbox-item-14)" transform="translate(-0.0 -0.0)">
                

<g id="Layer_1_1_-i14">
	<g>
		<g>
			<rect x="-1.3" y="10.2" transform="matrix(0.7071 -0.7072 0.7072 0.7071 -6.2903 15.1875)" width="33" height="10" style="fill:#383A48;"/>
		</g>
		<g>
			<rect x="10.2" y="-1.3" transform="matrix(0.7071 -0.7071 0.7071 0.7071 -6.2903 15.1865)" width="10" height="33" style="fill:#383A48;"/>
		</g>
	</g>
</g>
<g id="Isolation_Mode-i14">
</g>

            </g>
        </g>
    </g>
    
    <!-- ITEM 15 -->
    <g>
        <defs>
            <clipPath id="clip-path-id-crop-item-15">
                
          <g transform="scale(1.155685618729097 1.1111111111111112)">
          <rect x="0.0" y="0.0" width="632.0" height="42.0"/>
          </g>
        
            </clipPath>
            
            <clipPath id="clip-path-id-viewbox-item-15">
                <rect x="0.0" y="0.0" width="691.1" height="10.0"/>
            </clipPath>
        </defs>
        <g clip-path="url(#clip-path-id-crop-item-15)" transform="translate(133.0 609.0) rotate(0.0 299.0 4.5) scale(0.865287223267255 0.9)">
            <g clip-path="url(#clip-path-id-viewbox-item-15)" transform="translate(-0.0 -0.0)">
                <path d="M686.1,10H5A4.951,4.951,0,0,1,0,5,4.951,4.951,0,0,1,5,0H686.1a4.951,4.951,0,0,1,5,5A5.015,5.015,0,0,1,686.1,10Z" fill="#383a48"/>
            </g>
        </g>
    </g>
    
</svg>