<svg xmlns="http://www.w3.org/2000/svg" version="1.1" viewBox="0 0 1080 1080" width="1080" height="1080">
<!--ITEM 1--><g><defs><clipPath id="clip-path-id-crop-item-1"><rect transform="scale(0.4053872180451128 0.4040972222222222)" x="39" y="0.0" width="227.0" height="216.0"/></clipPath><clipPath id="clip-path-id-viewbox-item-1"><rect x="0.0" y="0.0" width="107.833" height="87.285"/></clipPath></defs><g clip-path="url(#clip-path-id-crop-item-1)" transform="translate(520.0 221.0) rotate(27.730180941704905 133.0 108.0) scale(2.4667773316146264 2.4746520020622103)"><g clip-path="url(#clip-path-id-viewbox-item-1)" transform="translate(-0.0 -0.0)"><g>
	<path style="fill:#5e95ce;" d="M92.208,24.88c2.488-2.067,5.465-3.519,8.615-4.216c1.978-0.431,4.338-0.463,5.685,1.056   c0.88,0.973,1.094,2.408,0.864,3.705c-0.23,1.298-0.865,2.478-1.53,3.609c-3.841,6.551-9.766,9.103-16.451,14.571l-0.157,0.105   c6.679,9.65,11.066,23.522,10.354,35.229c-0.093,1.534-0.532,3.848-1.661,5.864c-1.469,2.656-4.713,3.236-4.838-0.832   c-2.646-21.059-12.181-41.646-28.331-55.418C48.598,14.781,25.549,8.634,5.262,14.899c0,0-1.912,0.629-2.924,0.23   c-1.023-0.409-1.794-1.396-1.937-2.482c-0.17-1.315,0.54-2.628,1.523-3.518C2.916,8.237,4.15,7.689,5.374,7.151   c20.578-7.894,45.468-4.034,62.057,10.044l0.107-0.083c8.321-6.958,15.037-11.756,24.538-15.459   c1.809-0.706,3.691-1.344,5.634-1.273c1.933,0.081,3.953,1.019,4.797,2.764c0.876,1.814,0.322,3.982-0.38,5.874   c-2.161,5.879-5.597,11.297-9.992,15.773L92.208,24.88z"/>
	<path d="M93.088,84.346c-0.187,0-0.349-0.139-0.372-0.328c-2.784-22.158-13.064-42.271-28.202-55.18   C47.854,14.64,24.642,9.307,5.372,15.257c-0.197,0.061-0.408-0.051-0.469-0.248s0.05-0.407,0.248-0.469   c19.504-6.023,42.998-0.636,59.85,13.728c15.279,13.029,25.652,33.315,28.46,55.656c0.025,0.206-0.12,0.394-0.325,0.419   C93.12,84.345,93.103,84.346,93.088,84.346z" fill="#000000"/>
	<path d="M92.135,25.167c-0.095,0-0.189-0.036-0.263-0.107c-0.147-0.146-0.15-0.383-0.005-0.53c4.35-4.431,7.775-9.839,9.907-15.64   c0.626-1.685,1.235-3.84,0.395-5.582c-0.709-1.467-2.466-2.469-4.475-2.553c-1.947-0.085-3.842,0.607-5.481,1.248   c-9.434,3.677-16.103,8.43-24.435,15.397c-0.16,0.131-0.396,0.11-0.528-0.048c-0.133-0.158-0.111-0.396,0.048-0.528   C75.689,9.808,82.412,5.018,91.941,1.304c1.71-0.668,3.693-1.372,5.783-1.299c2.284,0.096,4.293,1.264,5.121,2.977   c0.964,1.997,0.311,4.346-0.367,6.168c-2.168,5.898-5.651,11.399-10.075,15.905C92.33,25.13,92.232,25.167,92.135,25.167z" fill="#000000"/>
	<path d="M89.39,43.981c-0.108,0-0.216-0.047-0.29-0.138c-0.132-0.16-0.107-0.396,0.053-0.527c2.031-1.661,3.967-3.037,5.84-4.367   c4.231-3.007,7.887-5.604,10.525-10.104c0.6-1.019,1.258-2.212,1.484-3.484c0.235-1.326-0.054-2.593-0.772-3.389   c-1.292-1.456-3.61-1.316-5.327-0.941c-3.098,0.686-6.021,2.116-8.456,4.138c-0.069,0.049-0.099,0.073-0.135,0.104   c-0.157,0.134-0.395,0.113-0.528-0.046c-0.133-0.158-0.112-0.396,0.046-0.528c0.062-0.052,0.11-0.09,0.171-0.13   c2.493-2.073,5.527-3.558,8.741-4.27c1.915-0.415,4.518-0.55,6.047,1.174c0.871,0.964,1.228,2.468,0.952,4.02   c-0.248,1.396-0.943,2.659-1.576,3.733c-2.72,4.639-6.436,7.278-10.738,10.335c-1.861,1.323-3.787,2.691-5.799,4.336   C89.558,43.953,89.474,43.981,89.39,43.981z" fill="#000000"/>
	<path d="M67.431,17.57c-0.086,0-0.172-0.029-0.242-0.089C50.859,3.622,26.07-0.388,5.509,7.502C5.316,7.575,5.099,7.48,5.024,7.286   C4.951,7.093,5.046,6.875,5.24,6.801c20.814-7.984,45.903-3.92,62.434,10.108c0.158,0.134,0.178,0.371,0.044,0.528   C67.643,17.526,67.538,17.57,67.431,17.57z" fill="#000000"/>
	<path d="M3.198,15.637c-0.355,0-0.703-0.044-0.998-0.16c-1.157-0.463-2.01-1.554-2.172-2.781c-0.171-1.321,0.444-2.759,1.644-3.846   c1.053-0.943,2.381-1.526,3.553-2.042c0.188-0.081,0.41,0.004,0.494,0.193c0.083,0.189-0.003,0.41-0.193,0.494   c-1.175,0.516-2.39,1.05-3.352,1.912c-1.016,0.921-1.541,2.114-1.401,3.191c0.125,0.946,0.811,1.823,1.705,2.181   c0.721,0.287,2.17-0.075,2.667-0.237c0.195-0.065,0.409,0.041,0.474,0.239c0.064,0.197-0.043,0.408-0.239,0.474   C5.225,15.305,4.18,15.637,3.198,15.637z" fill="#000000"/>
	<path d="M95.068,87.285c-0.17,0-0.337-0.019-0.501-0.059c-0.66-0.159-1.778-0.794-1.854-3.244c-0.006-0.207,0.156-0.38,0.363-0.387   c0.172-0.004,0.38,0.156,0.387,0.363c0.044,1.448,0.499,2.35,1.28,2.539c0.918,0.215,2.141-0.586,2.854-1.877   c1.319-2.355,1.569-4.962,1.615-5.704c0.684-11.239-3.355-24.975-10.289-34.993c-0.149-0.144-0.156-0.386-0.014-0.536   c0.144-0.147,0.38-0.16,0.529-0.018c0.021,0.021,0.066,0.078,0.083,0.104c7.042,10.171,11.132,24.092,10.438,35.488   c-0.062,1.004-0.351,3.599-1.708,6.024C97.469,86.403,96.217,87.285,95.068,87.285z" fill="#000000"/>
</g>
</g></g></g><!--ITEM 2--><g><defs><clipPath id="clip-path-id-viewbox-item-2"><rect x="0.0" y="0.0" width="81.797" height="48.995"/></clipPath></defs><g transform="translate(446.0 70.0) rotate(29.53464536632991 168.0 99.5) scale(4.107730112351309 4.06163894274926)"><g clip-path="url(#clip-path-id-viewbox-item-2)" transform="translate(-0.0 -0.0)"><g>
	<path style="fill:#F46A3D;" d="M78.487,18.786c3.3,6.88,3.75,15,1.69,22.35c-0.22,0.79-0.48,1.59-0.81,2.36l-0.19-0.08   c-2.07-5.06-6.18-9.06-10.47-11.73c-4.29-2.67-9.11-4.42-14.02-5.6c-9.4-2.26-19.37-2.47-28.71,0.03s-19.51,9.05-23.47,16.8   c-1.3-0.84-1.81-2.49-1.99-4.03c-0.79-6.71,1.77-13.88,6.46-18.74c9.97-10.31,16.2-3.5,16.2-3.5c-0.64-2.29-1.3-4.68-0.9-7.03   c0.39-2.36,2.15-4.66,4.53-4.86c1.87-0.16,3.61,0.98,4.98,2.28c2.16,2.06,3.81,4.64,4.78,7.47c0-2.85,0.12-6.22,1.26-8.82   c1.14-2.61,3.43-4.87,6.25-5.25c3.63-0.5,6.96,2.15,9.22,5.04c3.66,4.68,5.89,10.46,6.32,16.38c1.1-2.82,2.65-5.74,5.07-7.56   c2.42-1.81,5.78-2.57,8.56-1.36C75.697,14.006,77.327,16.376,78.487,18.786z"/>
	<path style="fill:#E64337;" d="M79.177,43.416l0.19,0.08c-0.72,1.72-1.73,3.3-3.26,4.32c-2.22,1.48-4.59,0.85-6.25-1.35   c-5.67-7.31-13.77-12.76-22.75-14.96s-18.8-1.06-26.9,3.4c-4.19,2.31-7.9,5.46-12.2,7.55c-1.73,0.85-3.87,1.49-5.5,0.46   c3.96-7.75,14.13-14.3,23.47-16.8s19.31-2.29,28.71-0.03c4.91,1.18,9.73,2.93,14.02,5.6C72.997,34.356,77.107,38.356,79.177,43.416   z"/>
	<path d="M59.616,22.231c-0.195,0-0.359-0.15-0.374-0.348c-0.423-5.825-2.639-11.57-6.241-16.176   c-1.614-2.065-4.917-5.438-8.874-4.9c-2.465,0.332-4.748,2.26-5.958,5.029c-1.08,2.463-1.229,5.623-1.229,8.67   c0,0.207-0.168,0.375-0.375,0.375s-0.375-0.168-0.375-0.375c0-3.129,0.156-6.381,1.292-8.971c1.314-3.008,3.821-5.104,6.543-5.472   c4.333-0.584,7.853,2.989,9.566,5.181c3.692,4.723,5.965,10.612,6.398,16.584c0.015,0.207-0.14,0.387-0.347,0.401   C59.635,22.231,59.625,22.231,59.616,22.231z" fill="#000000"/>
	<path d="M23.177,17.021c-0.164,0-0.315-0.108-0.361-0.274c-0.621-2.224-1.325-4.744-0.908-7.192   c0.396-2.399,2.196-4.947,4.869-5.172c1.676-0.144,3.452,0.658,5.27,2.382c2.201,2.1,3.887,4.734,4.876,7.62   c0.067,0.196-0.037,0.409-0.233,0.477c-0.194,0.066-0.409-0.037-0.476-0.232c-0.951-2.773-2.571-5.305-4.684-7.32   c-1.655-1.57-3.236-2.311-4.689-2.178c-2.267,0.19-3.852,2.485-4.192,4.548c-0.389,2.284,0.262,4.614,0.891,6.867   c0.056,0.199-0.061,0.406-0.26,0.462C23.244,17.016,23.21,17.021,23.177,17.021z" fill="#000000"/>
	<path d="M73.628,48.998c-1.485,0-2.923-0.786-4.071-2.307c-0.125-0.165-0.092-0.4,0.073-0.525c0.166-0.125,0.4-0.092,0.525,0.074   c1.601,2.12,3.748,2.593,5.743,1.264c1.292-0.861,2.313-2.22,3.122-4.152c0.289-0.676,0.548-1.432,0.794-2.316   c2.093-7.466,1.485-15.517-1.667-22.087c-1.42-2.95-3.073-4.805-5.052-5.669c-2.468-1.075-5.68-0.559-8.186,1.317   c-1.961,1.475-3.58,3.895-4.946,7.396c-0.075,0.192-0.292,0.291-0.485,0.213c-0.193-0.075-0.289-0.293-0.213-0.486   c1.418-3.634,3.117-6.16,5.194-7.723c2.719-2.034,6.226-2.585,8.935-1.404c2.151,0.939,3.927,2.913,5.428,6.031   c3.23,6.733,3.854,14.976,1.713,22.614c-0.254,0.916-0.525,1.703-0.826,2.406c-0.867,2.071-1.978,3.539-3.396,4.484   C75.438,48.712,74.525,48.998,73.628,48.998z" fill="#000000"/>
	<path d="M69.857,46.841c-0.112,0-0.223-0.05-0.297-0.146c-5.745-7.406-13.751-12.671-22.543-14.825   c-9.026-2.211-18.731-0.984-26.63,3.364c-1.845,1.018-3.632,2.224-5.361,3.39c-2.184,1.473-4.441,2.996-6.856,4.169   c-2.45,1.204-4.423,1.349-5.864,0.44c-1.192-0.771-1.918-2.218-2.162-4.305c-0.792-6.729,1.722-14.027,6.563-19.044   c3.736-3.862,7.393-5.82,10.872-5.82c0.043,0,0.085,0,0.128,0.001c3.623,0.05,5.662,2.234,5.747,2.327   c0.14,0.152,0.129,0.389-0.023,0.528c-0.151,0.141-0.389,0.132-0.53-0.021c-0.019-0.021-1.924-2.046-5.221-2.084   c-3.321-0.076-6.808,1.843-10.433,5.591C2.558,25.265,0.122,32.329,0.89,38.842c0.216,1.854,0.829,3.118,1.821,3.759   c1.203,0.763,2.93,0.6,5.131-0.481c2.369-1.15,4.604-2.659,6.766-4.117c1.742-1.176,3.544-2.391,5.418-3.424   c8.063-4.438,17.964-5.693,27.17-3.437c8.956,2.194,17.109,7.555,22.957,15.095c0.127,0.163,0.097,0.398-0.066,0.525   C70.018,46.816,69.937,46.841,69.857,46.841z" fill="#000000"/>
	<path d="M79.177,43.541c-0.049,0-0.096-0.029-0.116-0.078c-1.835-4.486-5.536-8.632-10.42-11.671   c-3.917-2.438-8.492-4.265-13.983-5.585c-9.836-2.363-19.742-2.354-28.648,0.03c-10.122,2.709-19.74,9.591-23.391,16.735   c-0.031,0.063-0.107,0.087-0.168,0.055c-0.062-0.031-0.086-0.106-0.055-0.168c3.681-7.203,13.364-14.138,23.549-16.864   c8.946-2.394,18.896-2.406,28.771-0.03c5.518,1.325,10.116,3.162,14.057,5.614c4.929,3.067,8.665,7.255,10.52,11.79   c0.026,0.063-0.004,0.137-0.068,0.162C79.208,43.538,79.192,43.541,79.177,43.541z" fill="#000000"/>
</g>
</g></g></g><!--ITEM 3--><g><defs><clipPath id="clip-path-id-crop-item-3"><rect transform="scale(0.37671641791044774 0.37434944237918216)" x="0.0" y="0.0" width="133.0" height="221.0"/></clipPath><clipPath id="clip-path-id-viewbox-item-3"><rect x="0.0" y="0.0" width="50.48" height="100.7"/></clipPath></defs><g clip-path="url(#clip-path-id-crop-item-3)" transform="translate(668.0 75.0) rotate(25.488811689778597 67.0 134.5) scale(2.654516640253566 2.671300893743793)"><g clip-path="url(#clip-path-id-viewbox-item-3)" transform="translate(-0.0 -0.0)"><g>
    <polygon points="49.73 39.02 0.75 99.95 16.08 51.29 3.42 58.52 15.74 15.85 48.72 0.75 31.47 40.4 49.73 39.02" style="         fill: #ffd14a;       "/>
    <path d="M.74945,100.7a.74013.74013,0,0,1-.35327-.08887.74956.74956,0,0,1-.36157-.88671l14.75464-46.834L3.79218,59.17169a.74988.74988,0,0,1-1.09253-.85937L15.01947,15.64239a.74917.74917,0,0,1,.40821-.47363L48.40766.06818a.74982.74982,0,0,1,1,.98046L32.654,39.55841l17.01928-1.28613a.76156.76156,0,0,1,.72022.39843.74964.74964,0,0,1-.0791.81934l-48.98,60.92969A.74848.74848,0,0,1,.74945,100.7ZM16.08,50.53986a.74995.74995,0,0,1,.71533.97558L2.66327,96.37286,48.06171,39.89825l-16.53516,1.25a.75.75,0,0,1-.74438-1.04687L47.25043,2.24786l-30.8855,14.1416L4.65351,56.952,15.708,50.63849A.74684.74684,0,0,1,16.08,50.53986Z" fill="#000000"/>
  </g>
</g></g></g><!--ITEM 4--><g><defs><clipPath id="clip-path-id-crop-item-4"><rect transform="scale(0.7186012307692308 0.7184620069204153)" x="0.0" y="0.0" width="844.0" height="288.0"/></clipPath><clipPath id="clip-path-id-viewbox-item-4"><rect x="0.0" y="0.0" width="700.6362" height="207.63552"/></clipPath></defs><g clip-path="url(#clip-path-id-crop-item-4)" transform="translate(72.0 734.0) rotate(0.0 487.5 144.5) scale(1.3915923841788362 1.3918620474955343)"><g clip-path="url(#clip-path-id-viewbox-item-4)" transform="translate(-0.0 -0.0)"><g>
    <g>
      <path d="M687.24113,33.35c13.67,13.66,15.81,36.55,8.57,43.78-7.25,7.25-17.13,2.97-24.21-9.71a38.42568,38.42568,0,0,0-6.16-8.33c12.15,0,21.28-11.22,17.48-29.24A28.21,28.21,0,0,1,687.24113,33.35Z" style="         fill: #38798f;       "/>
      <path d="M619.18113,47.6c-18.6,2.23-21.32,13.07-21.32,28.71,0,17.62,13.66,63.05,2.8,78.86-10.87,15.8-22.72,24.36-45.44,24.36h-135.24a72.80617,72.80617,0,0,0,12.13-11.92c16.99,0,112.47.28,122.78-1.47,10.32-1.76,30.14-6.3,30.14-29.38s-3.14-46.57-4.46-59.52S586.27113,47.61,619.18113,47.6Z" style="         fill: #334a5a;       "/>
      <path d="M682.92113,29.85c3.8,18.02-5.33,29.24-17.48,29.24-7.52-7.59-19.04-11.92-38.45-11.92a63.43941,63.43941,0,0,0-7.79.43h-.02c-32.91.01-39.93,16.69-38.61,29.64s4.46,36.44,4.46,59.52-19.82,27.62-30.14,29.38c-10.31,1.75-105.79,1.47-122.78,1.47a62.03482,62.03482,0,0,0,9.43-16.3h83.07c15.14,0,39.17-1.58,44.77-14.91s-5.75-59.38-5.75-76.27c0-16.9,15.96-40.28,46.9-40.28C638.58113,19.85,667.57113,19.71,682.92113,29.85Z" style="         fill: #1a4d81;       "/>
      <path d="M393.42113,43.49c-11.76,5.15-26.26,8.51-42.12,9.39-.57-13.11-4.53-21.86-13.87-24.26,1.03-.04,2.07-.05,3.13-.05C359.04113,28.57,377.37113,34.08,393.42113,43.49Z" style="         fill: #2768ab;       "/>
      <path d="M337.43113,28.62c9.34,2.4,13.3,11.15,13.87,24.26-2.71.15-5.44.22-8.21.22-21.32,0-40.68-4.49-55.06-11.85a108.90821,108.90821,0,0,1,49.39-12.63Z" style="         fill: #38798f;       "/>
      <path d="M402.34113,190.23a10.9982,10.9982,0,0,1,.77,4.2c0,8.06-11.85,11.43-24.69,11.43h-50.7c-14.34,0-55.37,1.56-77.76.83a50.98535,50.98535,0,0,1,4.67-12.26c6.57-12.2,28.64-12.93,47.41-12.93h74.19C387.63113,181.5,399.28113,182.78,402.34113,190.23Z" style="         fill: #334a5a;       "/>
      <path d="M393.42113,43.49c30.28,17.72,52.49,49.27,52.49,83.69a65.8102,65.8102,0,0,1-4.37,24.13,62.03482,62.03482,0,0,1-9.43,16.3,72.80617,72.80617,0,0,1-12.13,11.92,89.84651,89.84651,0,0,1-17.64,10.7c-3.06-7.45-14.71-8.73-26.11-8.73h-74.19c-18.77,0-40.84.73-47.41,12.93a50.98535,50.98535,0,0,0-4.67,12.26,100.59232,100.59232,0,0,1-11.46-.83c-8.63-1.34-9.55-6.47-6.28-12.29,2.34-4.17,6.84-8.68,12.2-12.4,12.85-8.89,41.16-6.91,51.36-6.91h32.27s-38.85-3.62-38.85-36.55,36.72-41.66,50.71-46.75c13.98-5.09,11.46-19.42,11.46-34.56,0-1.21-.03-2.38-.07-3.52C367.16113,52,381.66113,48.64,393.42113,43.49Z" style="         fill: #1a4d81;       "/>
      <path d="M32.78113,183.88a4.115,4.115,0,1,1-4.11,4.12A4.11414,4.11414,0,0,1,32.78113,183.88Z" style="         fill: #fe9b19;       "/>
      <path d="M17.59113,177.22a4.11521,4.11521,0,1,1-4.11,4.12A4.11414,4.11414,0,0,1,17.59113,177.22Z" style="         fill: #fe9b19;       "/>
      <path d="M4.61113,168.22c-4.53-9,2.9-19.02,17.91-24.25,16.41-5.71,68.48-7.45,81.85-7.45a67.46535,67.46535,0,0,0,19.64,14.18h-52.43c-10.54,0-29.05,3.48-44.13,11.7a69.40319,69.40319,0,0,0-16.63,12.69,19.45112,19.45112,0,0,1-6.21-6.86Z" style="         fill: #1a4d81;       "/>
      <path d="M15.09113,184.6a4.11521,4.11521,0,1,0-1.61-3.26A4.12137,4.12137,0,0,0,15.09113,184.6Zm7.95,21.54a22.82313,22.82313,0,0,1-12.38-.3,20.166,20.166,0,0,1-2.35-.89c-12.25-5.42-8.31-18.53,2.51-29.86a69.40319,69.40319,0,0,1,16.63-12.69c15.08-8.22,33.59-11.7,44.13-11.7h52.43c21.62,10.66,46.91,11.71,54.9,11.71,14.81,0,81.32-7.25,81.32-61.57a60.41028,60.41028,0,0,0-8.18-30.27c5.34-5.34,16.64-19.01,35.98-29.32,14.38,7.36,33.74,11.85,55.06,11.85,2.77,0,5.5-.07,8.21-.22.04,1.14.07,2.31.07,3.52,0,15.14,2.52,29.47-11.46,34.56-13.99,5.09-50.71,13.82-50.71,46.75s38.85,36.55,38.85,36.55h-32.27c-10.2,0-38.51-1.98-51.36,6.91-5.36,3.72-9.86,8.23-12.2,12.4h-175.79C45.36113,193.57,34.77113,203.4,23.04113,206.14Zm5.63-18.14a4.115,4.115,0,1,0,4.11-4.12A4.10986,4.10986,0,0,0,28.67113,188Z" style="         fill: #334a5a;       "/>
      <path d="M159.81113,118.97c1.98-5.38,12.84-9.06,12.84-4.53,0,2.64-4.79,6.71-9.71,11.9C160.53113,123.74,159.02113,121.14,159.81113,118.97Z" style="         fill: #db968e;       "/>
      <path d="M220.47113,80.64a14.60954,14.60954,0,0,1-6.02,11.83,14.62848,14.62848,0,0,1-3.06-20.65,38.53141,38.53141,0,0,1,6.84,1.05A14.4978,14.4978,0,0,1,220.47113,80.64Z" style="         fill: #2768ab;       "/>
      <path d="M218.23113,72.87a38.71305,38.71305,0,0,1,21.93,14.77,38.63539,38.63539,0,0,1-62.49,0,38.57847,38.57847,0,0,1,31.24-15.9c.83,0,1.66.03,2.48.08a14.62848,14.62848,0,0,0,3.06,20.65,14.62008,14.62008,0,0,0,3.78-19.6Z" style="         fill: #ffd14a;       "/>
      <polygon points="221.051 19.52 221.051 39.6 207.471 34.88 221.051 19.52" style="         fill: #db968e;       "/>
      <polygon points="143.021 19.52 143.021 34.88 128.741 37.63 143.021 19.52" style="         fill: #db968e;       "/>
      <path d="M141.74113,80.64a14.60954,14.60954,0,0,1-6.02,11.83,14.61284,14.61284,0,0,1-3.05-20.65,38.30929,38.30929,0,0,1,6.82,1.05h.01A14.4978,14.4978,0,0,1,141.74113,80.64Z" style="         fill: #2768ab;       "/>
      <path d="M139.50113,72.87a38.68921,38.68921,0,0,1,21.92,14.77,38.62557,38.62557,0,0,1-62.48,0,38.56438,38.56438,0,0,1,31.24-15.9c.84,0,1.67.03,2.49.08a14.61284,14.61284,0,0,0,3.05,20.65,14.62008,14.62008,0,0,0,3.78-19.6Z" style="         fill: #ffd14a;       "/>
      <path d="M162.94113,126.34c4.92-5.19,9.71-9.26,9.71-11.9,0-4.53-10.86-.85-12.84,4.53C159.02113,121.14,160.53113,123.74,162.94113,126.34Zm89.11-55.77a60.41028,60.41028,0,0,1,8.18,30.27c0,54.32-66.51,61.57-81.32,61.57-7.99,0-33.28-1.05-54.9-11.71a67.46535,67.46535,0,0,1-19.64-14.18c-8.8-9.41-14.69-22.21-14.69-39.61,0-61.87,62.23-96.16,62.23-96.16V34.88c16.58-6.03,37.48-2.25,43.79,0,11.63-21.73,32.92-31.82,32.92-31.82V45.53A76.08817,76.08817,0,0,1,252.05113,70.57Zm-11.89,17.07a38.50851,38.50851,0,0,0-28.77-15.82c-.82-.05-1.65-.08-2.48-.08a38.57847,38.57847,0,0,0-31.24,15.9,38.63539,38.63539,0,0,0,62.49,0Zm-19.11-48.04V19.52l-13.58,15.36Zm-59.63,48.04a38.68921,38.68921,0,0,0-21.92-14.77h-.01a38.30929,38.30929,0,0,0-6.82-1.05c-.82-.05-1.65-.08-2.49-.08a38.56438,38.56438,0,0,0-31.24,15.9,38.62557,38.62557,0,0,0,62.48,0Zm-18.4-52.76V19.52l-14.28,18.11Z" style="         fill: #334a5a;       "/>
      <path d="M197.984,76.7016a5.76,5.76,0,0,1,2.55074-.13958,2.63337,2.63337,0,0,1,1.94121,1.58057,2.83254,2.83254,0,0,1-.349,2.36779,6.7813,6.7813,0,0,1-1.69166,1.73547,29.08373,29.08373,0,0,1-7.51975,4.25746,7.19366,7.19366,0,0,1-2.70708.60372,2.975,2.975,0,0,1-2.42107-1.20156c-1.38871-2.07543,1.77439-4.52983,3.10445-5.638A17.29044,17.29044,0,0,1,197.984,76.7016Z" style="         fill: #ffedc5;       "/>
      <path d="M118.69935,76.67862c1.61705-.37043,3.67854-.36867,4.51162,1.06592a2.82277,2.82277,0,0,1,.0457,2.47784,6.53757,6.53757,0,0,1-1.52642,2.04561,20.05983,20.05983,0,0,1-10.26784,5.3686,5.47163,5.47163,0,0,1-3.85278-.34727C102.034,83.90079,116.26171,77.237,118.69935,76.67862Z" style="         fill: #ffedc5;       "/>
    </g>
    <g>
      <path d="M178.9111,163.15993c-7.34863,0-33.0498-.8501-55.23168-11.78711A68.19551,68.19551,0,0,1,103.8237,137.033c-9.88208-10.56738-14.89258-24.06641-14.89258-40.12305,0-32.20849,17.03321-56.82226,31.32227-71.79883A147.23,147.23,0,0,1,151.549.09353a.7502.7502,0,0,1,1.11206.65673V33.823c15.79-5.32178,35.29712-2.28028,42.68238.14258,11.678-21.314,32.74316-31.48243,32.9563-31.5835a.75013.75013,0,0,1,1.07129.67773V45.12038a78.092,78.092,0,0,1,23.33178,25.07813l-.00049-.00049a61.10173,61.10173,0,0,1,8.27881,30.64209c0,23.08691-12.28955,41.01074-35.53979,51.835C207.66233,160.95144,187.8281,163.15993,178.9111,163.15993ZM151.1611,2.054a149.214,149.214,0,0,0-29.85351,24.12548c-14.08569,14.773-30.87647,39.03565-30.87647,70.73047,0,15.66358,4.87427,28.81836,14.4878,39.09815a66.696,66.696,0,0,0,19.42309,14.019c21.8916,10.79395,47.30249,11.63281,54.56909,11.63281,8.79346,0,28.356-2.17871,45.89722-10.34472,23.00733-10.71094,34.67285-27.69288,34.67285-50.4751a59.6232,59.6232,0,0,0-8.08105-29.89795l-.00049-.00049A76.0108,76.0108,0,0,0,228.229,46.1697a.75154.75154,0,0,1-.35791-.63965V4.28933c-4.44117,2.37744-21.61646,12.46142-31.50879,30.94482a.75083.75083,0,0,1-.91309.35254c-6.84692-2.44189-27.25171-5.832-43.28174-.002a.74986.74986,0,0,1-1.00635-.70459Z" fill="#000000"/>
      <path d="M130.18112,104.30007A39.5233,39.5233,0,0,1,98.33493,88.08132a.74963.74963,0,0,1,0-.88281A39.51906,39.51906,0,0,1,130.18112,70.99c.80347,0,1.63282.02686,2.5354.08154a39.33539,39.33539,0,0,1,6.906,1.05811c.01978.00342.03955.00732.05933.01221A39.49068,39.49068,0,0,1,162.02732,87.198a.75036.75036,0,0,1-.00025.88379A39.55322,39.55322,0,0,1,130.18112,104.30007ZM99.874,87.63991a37.87378,37.87378,0,0,0,60.614,0,37.98149,37.98149,0,0,0-21.11865-14.02978c-.01978-.00342-.03955-.00733-.05933-.01221a37.75228,37.75228,0,0,0-6.68677-1.0293c-.86963-.05273-1.66919-.07861-2.44214-.07861A38.01534,38.01534,0,0,0,99.874,87.63991Z" fill="#000000"/>
      <path d="M135.72116,92.72a.25108.25108,0,0,1-.14721-.04785,14.93609,14.93609,0,0,1-6.12281-12.03223,14.66472,14.66472,0,0,1,3.02124-8.97168.25011.25011,0,0,1,.39746.30371,14.16661,14.16661,0,0,0-2.9187,8.668,14.43424,14.43424,0,0,0,5.77,11.519,14.43631,14.43631,0,0,0,5.77-11.519,14.28393,14.28393,0,0,0-2.18384-7.6084.24831.24831,0,0,1,.18384-.41162h.01a.25.25,0,0,1,.21143.1167,14.78362,14.78362,0,0,1,2.27856,7.90332,14.93747,14.93747,0,0,1-6.1228,12.03223A.25111.25111,0,0,1,135.72116,92.72Z" fill="#000000"/>
      <path d="M208.9111,104.30007a39.55322,39.55322,0,0,1-31.84594-16.21826.74958.74958,0,0,1,0-.88379A39.54861,39.54861,0,0,1,208.9111,70.99c.79688,0,1.62281.02686,2.5254.08154h.00244A39.25394,39.25394,0,0,1,240.76731,87.198a.75036.75036,0,0,1-.00025.88379A39.563,39.563,0,0,1,208.9111,104.30007ZM178.60422,87.63991a37.88354,37.88354,0,0,0,60.62378,0,37.75211,37.75211,0,0,0-27.88477-15.07129c-.87109-.05273-1.66674-.07861-2.43213-.07861A38.0478,38.0478,0,0,0,178.60422,87.63991Z" fill="#000000"/>
      <path d="M214.45114,92.72a.25108.25108,0,0,1-.14721-.04785,14.93745,14.93745,0,0,1-6.12281-12.03223,14.71824,14.71824,0,0,1,3.01075-8.97119.2502.2502,0,0,1,.39843.30274,14.21816,14.21816,0,0,0-2.90918,8.66845,14.43562,14.43562,0,0,0,5.77,11.519,14.43562,14.43562,0,0,0,5.77-11.519,14.28705,14.28705,0,0,0-2.20141-7.63672.24994.24994,0,0,1,.42285-.2666,14.78362,14.78362,0,0,1,2.27856,7.90332,14.93747,14.93747,0,0,1-6.1228,12.03223A.25109.25109,0,0,1,214.45114,92.72Z" fill="#000000"/>
      <path d="M153.88083,139.84011a.74973.74973,0,0,1-.69482-1.03174c2.05371-5.06982,6.00146-9.60254,9.21118-12.98438a.74983.74983,0,1,1,1.08789,1.03223c-3.11865,3.28662-6.94971,7.67871-8.90894,12.51563A.75014.75014,0,0,1,153.88083,139.84011Z" fill="#000000"/>
      <path d="M162.94113,127.09011a.83094.83094,0,0,1-.55-.24024c-3.01807-3.25634-4.09253-5.91748-3.28467-8.13623,1.55981-4.23828,8.22363-7.63769,11.87817-6.98486a2.63966,2.63966,0,0,1,2.4165,2.71143c0,2.35449-2.80175,5.1831-6.67968,9.09863-1.03687,1.04687-2.13306,2.15381-3.23609,3.31738A.74959.74959,0,0,1,162.94113,127.09011Zm7.09009-13.94092c-2.9707,0-8.25122,2.64307-9.51611,6.08008-.54517,1.49707.27637,3.5166,2.44263,6.00732.92016-.958,1.82983-1.87646,2.698-2.75293,3.35108-3.38379,6.24536-6.30615,6.24536-8.04345,0-.477-.134-1.04834-1.17968-1.23487A3.96035,3.96035,0,0,0,170.03122,113.14919Z" fill="#000000"/>
      <path d="M174.96091,137.32985a.74872.74872,0,0,1-.488-.18066c-.87085-.74658-2.02441-1.65234-3.24609-2.61084a77.93641,77.93641,0,0,1-8.83692-7.68945.75018.75018,0,0,1,1.10254-1.01758,76.80087,76.80087,0,0,0,8.66065,7.52685c1.23462.96924,2.40063,1.88428,3.29638,2.65235a.75.75,0,0,1-.48852,1.31933Z" fill="#000000"/>
      <path d="M128.74118,37.88015a.25.25,0,0,1-.19629-.40479l14.28-18.10986a.24991.24991,0,0,1,.44629.15478V34.88015a.25045.25045,0,0,1-.20263.2456l-14.28,2.75A.2611.2611,0,0,1,128.74118,37.88015Zm14.03-17.63916-13.418,17.0166,13.418-2.584Z" fill="#000000"/>
      <path d="M221.05124,39.84987a.24922.24922,0,0,1-.082-.01367l-13.58008-4.71972a.24994.24994,0,0,1-.10522-.40186L220.864,19.35476a.24988.24988,0,0,1,.43725.16552V39.59987a.25039.25039,0,0,1-.25.25Zm-13.14575-5.08349,12.89575,4.48193V20.18044Z" fill="#000000"/>
      <path d="M10.82028,175.84011a.74888.74888,0,0,1-.43872-.14209,20.21446,20.21446,0,0,1-6.4414-7.13233A.75008.75008,0,1,1,5.282,167.8948a18.74709,18.74709,0,0,0,5.97852,6.5874.75012.75012,0,0,1-.44019,1.35791Z" fill="#000000"/>
      <path d="M4.61154,168.97a.74973.74973,0,0,1-.67041-.4126,12.53688,12.53688,0,0,1-.41162-10.61572C5.9697,151.91286,12.802,146.56228,22.27439,143.262c17.55957-6.11035,72.68408-7.4917,82.09668-7.4917a.75.75,0,0,1,0,1.5c-13.30054,0-65.41211,1.77393-81.60328,7.40821-9.06445,3.1582-15.56982,8.19775-17.8479,13.82568a10.93376,10.93376,0,0,0,.36109,9.37842.75011.75011,0,0,1-.66944,1.0874Z" fill="#000000"/>
      <path d="M17.22653,207.60134a22.46563,22.46563,0,0,1-6.79-1.0459,20.98085,20.98085,0,0,1-2.43433-.92187c-4.3794-1.938-6.99536-4.89942-7.76953-8.79981-1.22632-6.17822,2.4353-14.292,10.0459-22.26172a69.76743,69.76743,0,0,1,16.812-12.82959C41.95481,153.63991,60.57248,149.95,71.581,149.95H124.0112a.75.75,0,1,1,0,1.5H71.581c-10.82447,0-29.13892,3.63281-43.771,11.60889a68.23914,68.23914,0,0,0-16.4458,12.54834C4.09494,183.2195.574,190.84939,1.70383,196.54177c.67358,3.39306,2.99878,5.99121,6.91089,7.72217a19.57828,19.57828,0,0,0,2.26831.85986,22.03641,22.03641,0,0,0,11.98535.28613c4.98413-1.16406,9.84106-3.67334,14.53809-6.10058,6.459-3.33692,12.55957-6.48926,19.02465-6.48926h175.79a.75.75,0,0,1,0,1.5h-175.79c-6.10034,0-12.0437,3.0708-18.33618,6.32226-4.77832,2.46875-9.71948,5.022-14.883,6.228A25.91739,25.91739,0,0,1,17.22653,207.60134Z" fill="#000000"/>
      <path d="M252.05124,71.32009a.75.75,0,0,1-.53027-1.28027c.779-.7793,1.68579-1.73682,2.72656-2.83594,6.29077-6.64258,16.81958-17.76074,33.43091-26.61524a110.18639,110.18639,0,0,1,49.72461-12.71875.75806.75806,0,0,1,.76782.73194.75035.75035,0,0,1-.73169.76806,108.70264,108.70264,0,0,0-49.05493,12.542c-16.396,8.74023-26.81958,19.74707-33.04761,26.32373-1.05151,1.11035-1.96777,2.07763-2.75513,2.86474A.74753.74753,0,0,1,252.05124,71.32009Z" fill="#000000"/>
      <path d="M402.34152,190.98024a.75.75,0,0,1-.31445-1.43115,88.36087,88.36087,0,0,0,17.4917-10.60937,72.20975,72.20975,0,0,0,12.00586-11.79688,61.5066,61.5066,0,0,0,9.31763-16.10449A65.34886,65.34886,0,0,0,445.1611,127.18c0-32.40918-19.9707-64.229-52.11889-83.04248-16.53345-9.69385-34.68091-14.81738-52.481-14.81738-1.05029,0-2.08057.00976-3.10107.04932a.75008.75008,0,1,1-.05811-1.499c1.03955-.04053,2.08936-.05029,3.15918-.05029,18.06641,0,36.47632,5.19482,53.23926,15.023C426.406,61.92409,446.6611,94.24,446.6611,127.18A66.83834,66.83834,0,0,1,442.24,151.5823a62.98916,62.98916,0,0,1-9.543,16.49609,73.68388,73.68388,0,0,1-12.2539,12.04248A89.84973,89.84973,0,0,1,402.655,190.9114.74755.74755,0,0,1,402.34152,190.98024Z" fill="#000000"/>
      <path d="M328.05149,174.51l-.02344-.001a60.14171,60.14171,0,0,1-19.5166-5.95312c-8.92334-4.61328-19.56031-13.70947-19.56031-30.8457,0-29.8667,30.01612-39.94385,46.14185-45.35743,1.72681-.57959,3.35767-1.12744,4.73267-1.62744,11.92675-4.34277,11.67627-15.42724,11.38623-28.26172-.04468-1.97607-.09082-4.01953-.09082-6.06347,0-1.04785-.02149-2.13086-.06958-3.51123-.60669-13.94727-5.07642-21.80616-13.665-24.02246a.2566.2566,0,0,1-.05811-.01465c-.08569-.02686-.11816-.03662-.15039-.04981a.25.25,0,1,1,.18652-.46386c.05567.01757.08887.02783.114.03662l.01489.00293c8.84155,2.27246,13.4397,10.28369,14.05762,24.4917.04858,1.38867.07007,2.477.07007,3.53076,0,2.03808.04614,4.07861.09082,6.05224.29443,13.02686.54858,24.27735-11.71534,28.74268-1.38086.50244-3.01464,1.05078-4.74438,1.63183-16.00659,5.37354-45.801,15.37647-45.801,44.88331,0,16.87841,10.48291,25.84521,19.27686,30.39453a59.581,59.581,0,0,0,19.34643,5.90625.25.25,0,0,1-.02294.499Z" fill="#000000"/>
      <path d="M264.42844,207.63552c-5.28931,0-10.218-.05615-14.4917-.1958a99.6096,99.6096,0,0,1-11.55347-.83887c-4.16089-.646-6.86352-2.19043-8.02978-4.58936-1.1333-2.33251-.71363-5.37841,1.21386-8.80859,2.35108-4.18945,6.88013-8.7998,12.42627-12.64892,11.35425-7.856,34.47486-7.374,46.895-7.11768,1.894.03906,3.55054.07373,4.89258.07373h32.27a.75.75,0,0,1,0,1.5h-32.27c-1.35058,0-3.01758-.03467-4.92383-.07422-12.25048-.25439-35.05517-.728-46.00952,6.85108-5.36474,3.72314-9.72876,8.15185-11.97265,12.15039-1.169,2.08007-2.32105,5.05566-1.17261,7.41845.93848,1.93067,3.26465,3.19678,6.91357,3.76319a98.44334,98.44334,0,0,0,11.36817.82177c14.78808.48145,37.489-.03027,55.72924-.44336,9.19874-.20751,17.14283-.3872,22.00757-.3872h50.7c11.57325,0,23.94-2.80567,23.94-10.68018a10.28524,10.28524,0,0,0-.71387-3.915.75.75,0,0,1,1.38769-.56933,11.77193,11.77193,0,0,1,.82618,4.48437c0,8.98047-13.14136,12.18018-25.44,12.18018H327.72116c-4.84765,0-12.78418.1792-21.97363.3872C292.751,207.29079,277.49167,207.63552,264.42844,207.63552Z" fill="#000000"/>
      <path d="M249.9614,206.94021a.24169.24169,0,0,1-.0586-.00684.25034.25034,0,0,1-.18481-.30176,51.22991,51.22991,0,0,1,4.69287-12.32031c6.49048-12.05176,27.989-13.061,47.63037-13.061h74.18994c10.56494,0,23.10669,1.00977,26.34107,8.88477a.25.25,0,1,1-.4624.19043c-3.12159-7.60059-15.46973-8.5752-25.87867-8.5752H302.04123c-19.49682,0-40.83032.98877-47.18994,12.79834a50.70774,50.70774,0,0,0-4.647,12.2002A.25047.25047,0,0,1,249.9614,206.94021Z" fill="#000000"/>
      <path d="M343.091,53.34987c-20.615,0-40.20923-4.21826-55.17383-11.877a.25015.25015,0,0,1,.228-.44531c14.895,7.62353,34.40869,11.82226,54.9458,11.82226,2.80737,0,5.56494-.07373,8.19629-.21923,15.46-.85791,29.99487-4.09766,42.03344-9.36963a.25.25,0,0,1,.20069.458c-12.09278,5.29541-26.6875,8.54981-42.2063,9.41065C348.67453,53.27566,345.90744,53.34987,343.091,53.34987Z" fill="#000000"/>
      <path d="M17.591,186.2a4.865,4.865,0,1,1,4.87011-4.85986A4.8583,4.8583,0,0,1,17.591,186.2Zm0-8.23a3.36881,3.36881,0,0,0-3.35987,3.37012,3.32943,3.32943,0,0,0,1.31568,2.66406A3.36506,3.36506,0,1,0,17.591,177.97Z" fill="#000000"/>
      <path d="M32.78122,192.86013a4.865,4.865,0,1,1,4.86987-4.85987A4.86549,4.86549,0,0,1,32.78122,192.86013Zm0-8.23a3.365,3.365,0,1,0,3.36987,3.37011A3.36886,3.36886,0,0,0,32.78122,184.63015Z" fill="#000000"/>
      <path d="M8.31052,205.7a.74981.74981,0,0,1-.7356-.60791c-1.81762-9.41894.56617-16.52,7.08472-21.10547a.74989.74989,0,1,1,.863,1.22657c-5.99195,4.21533-8.17041,10.80761-6.4751,19.59472a.75033.75033,0,0,1-.73706.89209Z" fill="#000000"/>
      <path d="M23.0405,206.88991a.75011.75011,0,0,1-.73511-.60547c-1.80444-9.187,2.48267-13.17724,5.31983-15.81787.36816-.34277.71826-.66845,1.03466-.98584a.74992.74992,0,0,1,1.0625,1.0586c-.32885.33008-.69238.66894-1.07519,1.02539-2.749,2.55859-6.51343,6.0625-4.87012,14.43066a.74976.74976,0,0,1-.59131.88037A.73914.73914,0,0,1,23.0405,206.88991Z" fill="#000000"/>
      <path d="M555.22116,180.28005h-135.24a.75.75,0,0,1,0-1.5h135.24c23.47632,0,34.89673-9.6084,44.822-24.03516,7.2522-10.55713,3.21558-35.22607-.02783-55.04785-1.55835-9.52441-2.90429-17.74951-2.90429-23.38721,0-16.98584,3.59668-27.25048,21.98071-29.45459a.75.75,0,0,1,.17871,1.48926c-17.36719,2.082-20.65942,11.43506-20.65942,27.96533,0,5.51563,1.33667,13.68555,2.88476,23.145,3.28662,20.08692,7.37695,45.08545-.21655,56.14014C591.08542,170.41189,579.352,180.28005,555.22116,180.28005Z" fill="#000000"/>
      <path d="M524.61106,152.05983H441.54123a.75.75,0,0,1,0-1.5h83.06983c25.22045,0,40.05053-4.86181,44.07861-14.45019,3.46582-8.25.23291-29.68213-2.61939-48.59082-1.64013-10.87256-3.1892-21.1416-3.1892-27.38867,0-17.20166,16.55908-41.03028,47.65014-41.03028h1.12793c27.68848-.01513,56.34278-.00439,71.67529,10.124a29.11668,29.11668,0,0,1,4.437,3.5957A45.582,45.582,0,0,1,700.6362,63.93c-.001,6.08985-1.52636,10.96582-4.29492,13.731a11.45427,11.45427,0,0,1-9.88257,3.63525c-5.571-.77441-11.08008-5.57226-15.51245-13.51025a37.48961,37.48961,0,0,0-6.03857-8.169c-7.90674-7.97949-19.95508-11.69677-37.91651-11.69677a62.26327,62.26327,0,0,0-7.69751.42382.74987.74987,0,1,1-.18506-1.48828,63.70364,63.70364,0,0,1,7.88257-.43554c18.38819,0,30.77515,3.85839,38.98267,12.14209a38.96186,38.96186,0,0,1,6.28174,8.4917c4.1372,7.40918,9.38916,12.05859,14.40967,12.75634a9.88878,9.88878,0,0,0,8.61572-3.21045c2.44922-2.4458,3.85449-7.064,3.85522-12.66992a44.02992,44.02992,0,0,0-12.42505-30.0498,27.62542,27.62542,0,0,0-4.20605-3.40625c-14.95361-9.87744-43.36548-9.88086-70.846-9.874h-1.12793c-30.1123,0-46.15014,22.95752-46.15014,39.53028,0,6.13427,1.541,16.34961,3.17236,27.165,2.88183,19.104,6.14819,40.75683,2.519,49.3955C565.7883,146.88894,550.49289,152.05983,524.61106,152.05983Z" fill="#000000"/>
      <path d="M4.61106,168.97487a.74547.74547,0,0,1-.75-.74463V168.22a.74722.74722,0,0,1,.05175-.27344c1.57227-4.01367,6.21314-13.55761,15.32276-15.49023a.75018.75018,0,0,1,.311,1.46777c-8.3789,1.77735-12.73608,10.7461-14.22827,14.54688A.75234.75234,0,0,1,4.61106,168.97487Z" fill="#000000"/>
      <path d="M455.54465,167.87624c-6.72119,0-12.53174-.00635-16.88355-.01074-2.7622-.00293-4.98779-.00537-6.55-.00537a.25.25,0,0,1,0-.5c1.56225,0,3.78808.00244,6.55053.00537,26.42725.02734,106.84644.11328,116.18775-1.47217,12.84912-2.19092,29.93188-7.59473,29.93188-29.1333,0-19.04443-2.09741-37.98828-3.6289-51.82031-.31446-2.83936-.59986-5.417-.83008-7.67432a24.38416,24.38416,0,0,1,5.834-19.12549c6.4607-7.15478,17.572-10.78515,33.0249-10.79l.02.5c-15.32544.00489-26.31176,3.57959-32.67382,10.625a23.8909,23.8909,0,0,0-5.70752,18.73975c.23,2.25635.51513,4.832.82934,7.66992,1.53272,13.84375,3.63208,32.80371,3.63208,51.87549,0,21.9165-17.32007,27.40479-30.34814,29.62646C547.09445,167.71706,489.654,167.87624,455.54465,167.87624Z" fill="#000000"/>
      <path d="M665.44113,59.34011a.25.25,0,0,1,0-.5,16.95433,16.95433,0,0,0,13.44117-6.28467c4.387-5.4082,5.73437-13.45361,3.79419-22.65381a.25.25,0,0,1,.48925-.10351c1.97193,9.35058.58863,17.54443-3.895,23.07226A17.44669,17.44669,0,0,1,665.44113,59.34011Z" fill="#000000"/>
    </g>
  </g>
</g></g></g><!--ITEM 5--><g><defs><clipPath id="clip-path-id-viewbox-item-5"><rect x="0.0" y="0.0" width="258.05" height="205.812"/></clipPath></defs><g transform="translate(292.0 381.0) rotate(-50.91966274490305 207.5 165.0) scale(1.6082154621197442 1.603405049268264)"><g clip-path="url(#clip-path-id-viewbox-item-5)" transform="translate(-0.0 -0.0)"><g>
	<path d="M141.381,195.56c-0.222,0-0.448-0.033-0.671-0.103c-39.357-12.295-74.435-39.412-96.239-74.397   C22.663,86.096,13.761,42.666,20.046,1.907c0.189-1.228,1.338-2.067,2.567-1.881c1.228,0.189,2.07,1.338,1.881,2.566   c-6.124,39.71,2.55,82.022,23.795,116.086c21.243,34.085,55.418,60.504,93.762,72.483c1.186,0.37,1.847,1.632,1.477,2.818   C143.227,194.944,142.339,195.56,141.381,195.56z" fill="#000000"/>
	<path d="M205.773,205.849c-8.1,0-16.729-0.942-26.164-2.781c-1.22-0.238-2.016-1.419-1.778-2.639s1.422-2.014,2.639-1.778   c30.034,5.852,51.503,2.276,74.108-12.341c1.042-0.675,2.436-0.376,3.111,0.667c0.675,1.043,0.376,2.437-0.667,3.111   C240.475,200.789,224.543,205.849,205.773,205.849z" fill="#000000"/>
	<path d="M5.849,85.601c-0.575,0-1.109-0.371-1.289-0.949C1.595,75.122,0.061,65.257,0,55.328c-0.005-0.746,0.596-1.354,1.342-1.358   c0.73-0.001,1.354,0.596,1.358,1.342c0.059,9.662,1.553,19.263,4.439,28.537c0.221,0.712-0.176,1.469-0.888,1.69   C6.117,85.581,5.982,85.601,5.849,85.601z" fill="#000000"/>
	<path d="M98.759,200.81c-0.22,0-0.442-0.054-0.648-0.167c-38.43-21.102-69.04-54.948-86.193-95.306   c-0.292-0.686,0.028-1.479,0.714-1.771c0.687-0.288,1.479,0.028,1.771,0.715c16.917,39.802,47.106,73.183,85.007,93.995   c0.654,0.358,0.893,1.179,0.534,1.833C99.698,200.557,99.236,200.81,98.759,200.81z" fill="#000000"/>
</g>
</g></g></g><!--ITEM 6--><g><defs><clipPath id="clip-path-id-crop-item-6"><rect transform="scale(0.39071625344352623 0.39137231503579956)" x="0.0" y="187" width="640.0" height="651.0"/></clipPath><clipPath id="clip-path-id-viewbox-item-6"><rect x="0.0" y="0.0" width="283.66" height="327.97"/></clipPath></defs><g clip-path="url(#clip-path-id-crop-item-6)" transform="translate(306.0 64.0) rotate(82.72237964830784 363.0 419.0) scale(2.5594021011069588 2.555111748025734)"><g clip-path="url(#clip-path-id-viewbox-item-6)" transform="translate(-0.0 -0.0)"><g>
	<g>
		<path style="fill:#E64337;" d="M92.83,316.415c30.1-0.09,56.34-16.56,70.29-40.95c6.8-11.87,10.68-25.62,10.68-40.28    c0-44.56-35.85-80.73-80.29-81.23c-0.31-0.01-0.63-0.01-0.94-0.01c-20.3,0-38.87,7.45-53.11,19.77    c-17.22,14.89-28.12,36.91-28.12,61.47c0,19.34,6.76,37.1,18.05,51.05c14.88,18.41,37.66,30.18,63.18,30.18    C92.66,316.415,92.74,316.415,92.83,316.415z M154.05,167.535c18.4,16.68,29.96,40.77,29.96,67.56c0,14.11-3.21,27.47-8.93,39.39    c-7.22,15.05-18.46,27.81-32.33,36.89c-14.33,9.39-31.46,14.85-49.87,14.85c-0.99,0-1.97-0.02-2.95-0.05    c-22.27-0.71-42.53-9.41-58-23.33c-18.53-16.68-30.18-40.85-30.18-67.75c0-32.11,16.61-60.34,41.71-76.57    c14.24-9.22,31.21-14.56,49.42-14.56c20.67,0,39.74,6.88,55.03,18.48C150.03,164.055,152.08,165.755,154.05,167.535z"/>
		<path style="fill:#E64337;" d="M275.53,1.005c-2.27,0-4.28,1.06-5.59,2.71l-0.01-0.01l-16.29,21.45l-47.82,61.96    c-0.07-0.01-0.15-0.02-0.22-0.03l-0.04,0.37l-39.86,51.85l-17.49,22.75l-0.3,0.39c2.12,1.61,4.17,3.31,6.14,5.09l0.36-0.41    c0,0,10.57-12.05,25.97-30.04c8.93-10.44,19.49-22.89,30.55-36.14c0.06-0.07,0.11-0.13,0.17-0.2l53.32-67.25    c1.69-2.16,3.28-4.12,4.78-5.94c4.49-5.46,8.18-9.68,11.38-14.19c0.81-1.15,2.08-3.43,2.08-5.23    C282.66,4.205,279.46,1.005,275.53,1.005z"/>
	</g>
	<g>
		<path d="M92.88,327.97c-1.009,0-2.006-0.02-3.004-0.051c-21.856-0.696-42.851-9.142-59.117-23.778    C11.211,286.545,0,261.377,0,235.09c0-31.654,15.892-60.827,42.51-78.039c14.994-9.709,32.412-14.841,50.37-14.841    c20.451,0,39.846,6.514,56.088,18.836c2.146,1.629,4.25,3.374,6.256,5.187c0,0,0.001,0.001,0.002,0.001    c19.404,17.591,30.534,42.688,30.534,68.856c0,14.054-3.063,27.562-9.102,40.147c-7.333,15.285-18.727,28.286-32.949,37.597    C128.598,322.736,111.021,327.97,92.88,327.97z M92.88,145.71c-17.281,0-34.042,4.938-48.469,14.279    C18.794,176.554,3.5,204.629,3.5,235.09c0,25.297,10.789,49.517,29.601,66.449c15.653,14.085,35.855,22.211,56.885,22.882    c0.961,0.029,1.923,0.049,2.895,0.049c17.457,0,34.371-5.036,48.911-14.563c13.689-8.962,24.655-21.474,31.711-36.183    c5.812-12.11,8.758-25.108,8.758-38.634c0-25.181-10.711-49.333-29.384-66.262l0,0c-1.931-1.745-3.958-3.426-6.023-4.994    C131.224,151.977,112.561,145.71,92.88,145.71z" fill="#000000"/>
		<path d="M92.832,317.16H92.57c-24.877,0-48.118-11.102-63.764-30.458C17.06,272.187,10.59,253.89,10.59,235.18    c0-23.829,10.344-46.44,28.38-62.037c14.871-12.866,33.907-19.952,53.601-19.952c0.314,0,0.641,0,0.955,0.01    c21.7,0.246,42.06,8.881,57.328,24.314c15.28,15.447,23.696,35.927,23.696,57.665c0,14.286-3.728,28.344-10.779,40.653    C149.241,301.237,122.059,317.073,92.832,317.16z M92.595,154.69c-0.009,0-0.017,0-0.024,0c-19.333,0-38.021,6.956-52.62,19.587    c-17.705,15.311-27.86,37.509-27.86,60.902c0,18.367,6.351,36.33,17.883,50.579c15.359,19.003,38.176,29.901,62.598,29.901h0.26    c28.689-0.086,55.374-15.632,69.639-40.572c6.923-12.084,10.581-25.884,10.581-39.908c0-43.883-35.686-79.986-79.549-80.479    c-0.005,0-0.01,0-0.015,0C93.192,154.69,92.889,154.69,92.595,154.69z" fill="#000000"/>
		<path d="M154.41,168.12c-0.234,0-0.47-0.082-0.659-0.248c-0.415-0.364-0.457-0.996-0.093-1.411    c0.105-0.121,10.742-12.252,25.962-30.031c10.586-12.376,20.861-24.532,30.542-36.13l0.123-0.145l53.352-67.286    c1.479-1.891,3.003-3.784,4.792-5.955c1.087-1.323,2.129-2.574,3.128-3.773c3.115-3.741,5.805-6.973,8.208-10.359    c0.942-1.339,1.896-3.299,1.896-4.651c0-3.38-2.75-6.13-6.13-6.13c-1.878,0-3.63,0.85-4.808,2.332    c-0.03,0.038-0.063,0.073-0.098,0.105l-16.189,21.317l-48.083,62.304l-57.35,74.601c-0.338,0.437-0.965,0.519-1.402,0.184    c-0.438-0.337-0.521-0.965-0.184-1.402l57.61-74.938l47.82-61.963l16.286-21.443c0.04-0.054,0.085-0.103,0.135-0.146    C270.826,1.073,273.098,0,275.53,0c4.482,0,8.13,3.647,8.13,8.13c0,2.467-1.885,5.27-2.263,5.806    c-2.449,3.453-5.162,6.711-8.304,10.484c-0.997,1.197-2.035,2.444-3.121,3.765c-1.778,2.158-3.293,4.04-4.766,5.922    l-53.324,67.255c-0.006,0.008-0.063,0.076-0.069,0.084l-0.126,0.147c-9.676,11.592-19.957,23.755-30.548,36.138    c-15.229,17.789-25.872,29.929-25.978,30.049C154.964,168.005,154.688,168.12,154.41,168.12z" fill="#000000"/>
	</g>
</g>
</g></g></g><!--ITEM 7--><g><defs><clipPath id="clip-path-id-viewbox-item-7"><rect x="0.0" y="0.0" width="48.6" height="116.58"/></clipPath></defs><g transform="translate(126.0 81.0) rotate(89.60488121847922 39.5 94.5) scale(1.625514403292181 1.6212043232115285)"><g clip-path="url(#clip-path-id-viewbox-item-7)" transform="translate(-0.0 -0.0)"><g>
	<path style="fill:#FF564F;" d="M0.375,105.425c15.95-35.01,31.9-70.03,47.85-105.05c-4.03,38.66-6.87,77.18-10.9,115.83   C25.285,112.905,12.415,108.735,0.375,105.425z"/>
	<path d="M37.325,116.58c-0.013,0-0.025,0-0.039-0.002c-0.206-0.021-0.355-0.206-0.334-0.412c2.016-19.33,3.763-38.952,5.452-57.928   c1.688-18.965,3.434-38.577,5.448-57.902c0.022-0.205,0.198-0.361,0.412-0.334c0.206,0.021,0.355,0.206,0.334,0.412   c-2.014,19.32-3.76,38.928-5.447,57.891c-1.69,18.979-3.437,38.604-5.453,57.939C37.677,116.436,37.515,116.58,37.325,116.58z" fill="#000000"/>
	<path d="M0.375,105.8c-0.052,0-0.105-0.011-0.155-0.034c-0.188-0.086-0.271-0.308-0.186-0.497   C15.984,70.26,31.934,35.24,47.884,0.22c0.085-0.188,0.309-0.273,0.496-0.186c0.188,0.086,0.271,0.308,0.186,0.497   c-15.95,35.02-31.9,70.04-47.85,105.05C0.654,105.718,0.518,105.8,0.375,105.8z" fill="#000000"/>
	<path d="M37.325,116.58c-0.032,0-0.066-0.004-0.099-0.013c-6.075-1.665-12.462-3.582-18.639-5.436   c-6.069-1.821-12.346-3.705-18.312-5.345c-0.199-0.055-0.316-0.262-0.262-0.461c0.055-0.199,0.255-0.317,0.461-0.262   c5.974,1.643,12.254,3.527,18.327,5.35c6.173,1.853,12.556,3.768,18.621,5.43c0.2,0.055,0.317,0.261,0.263,0.461   C37.641,116.471,37.49,116.58,37.325,116.58z" fill="#000000"/>
</g>
</g></g></g><!--ITEM 8--><g><defs><clipPath id="clip-path-id-viewbox-item-8"><rect x="0.0" y="0.0" width="72.66" height="74.25"/></clipPath></defs><g transform="translate(178.0 52.0) rotate(-6.042530917956092 70.5 73.0) scale(1.9405450041288193 1.9663299663299663)"><g clip-path="url(#clip-path-id-viewbox-item-8)" transform="translate(-0.0 -0.0)"><g>
	<path style="fill:#FF564F;" d="M69.161,53.571c-1.408,0-2.735-0.855-3.27-2.249c-1.337-3.491-3.022-8.291-4.973-13.848   c-3.561-10.142-7.991-22.763-12.171-32.606c-0.756-1.779,0.074-3.834,1.854-4.59c1.778-0.758,3.833,0.073,4.59,1.854   c4.267,10.05,8.739,22.788,12.332,33.024c1.934,5.507,3.603,10.263,4.905,13.662c0.691,1.805-0.212,3.829-2.017,4.521   C70,53.496,69.577,53.571,69.161,53.571z"/>
	<path style="fill:#FF564F;" d="M47.523,74.25c-1.066,0-2.118-0.484-2.806-1.404c-7.359-9.842-14.597-19.599-21.596-29.034   C15.856,34.014,8.343,23.884,0.697,13.667c-1.157-1.548-0.842-3.741,0.706-4.899c1.548-1.154,3.741-0.841,4.899,0.706   c7.653,10.229,15.172,20.365,22.442,30.167c6.994,9.431,14.228,19.183,21.578,29.014c1.158,1.548,0.842,3.741-0.707,4.898   C48.987,74.023,48.252,74.25,47.523,74.25z"/>
</g>
</g></g></g><!--ITEM 9--><g><defs><clipPath id="clip-path-id-crop-item-9"><rect transform="scale(1.2775444444444446 1.2774089456869009)" x="0.0" y="0.0" width="270.0" height="116.0"/></clipPath><clipPath id="clip-path-id-viewbox-item-9"><rect x="0.0" y="0.0" width="344.937" height="399.829"/></clipPath></defs><g clip-path="url(#clip-path-id-crop-item-9)" transform="translate(936.0 564.0) rotate(62.439872652677494 -135.0 156.5) scale(-0.7827516329068787 0.7828346618179272)"><g clip-path="url(#clip-path-id-viewbox-item-9)" transform="translate(-0.0 -0.0)"><g>
	<path style="fill:#1a4d81;" d="M340.855,71.109c-7.15-23.98-25.79-43.55-48-55.08c-22.2-11.53-47.69-15.6-72.71-15.26   c-61.09,0.81-121.36,28.13-162.26,73.51c-40.89,45.39-61.79,108.18-56.26,169.03c5.24,57.69,32.4,112.52,76.47,149.82   c2.41,2.04,4.86,4.02,7.37,5.95l40.56-59.81c0,0-44.91-24.43-60.57-52.46c-0.01-0.02-0.02-0.04-0.03-0.06   c-24.44-52.29-19.98-118.1,11.86-166.24c31.84-48.14,90.98-77.88,148.66-75.86l0.11,0.09c-9.19,11.72-14.78,26.23-16.03,41.07   c5.97-1.5,12.7,0.62,16.74,5.26c4.08,4.7,5.21,11.76,2.8,17.5c-2.4,5.73-8.23,9.87-14.44,10.25l-0.17,0.08   c2.25,5.37,5.31,10.36,9.29,14.58c0.46,0.5,0.94,0.98,1.43,1.45c7.79,7.5,19.04,11.78,29.65,9.7c4.1-0.8,8.13-2.6,10.92-5.72   c1.9-2.13,3.12-4.95,3.27-7.77c0.07-1.31-0.1-2.62-0.54-3.87c-1.38-3.95-5.64-4.66-9.34-6.11c-10.48-4.68-17.89-15.58-18.4-27.05   c-0.51-11.47,5.92-22.97,15.94-28.57c10.03-5.59,23.2-5,32.69,1.46c8.7,5.92,13.93,16.52,13.58,27.01   c-0.03,0.96-0.11,1.91-0.24,2.86c-1.52,11.38-8.88,22.03-18.55,24.74c-2.08,0.62-5.22,1.09-7.25,1.18   c-0.34,0.02-0.66,0.05-0.98,0.1c-4.8,0.83-6.71,5.89-6.83,8.25c-0.01,0.13-0.01,0.25-0.01,0.36c0.92,7.77,7.72,9.93,13.18,10.66   c5.47,0.73,10.88-1.07,16.02-3.07c3.92-1.52,7.29-3.53,10.22-5.92l0.03,0.04c2.38,3.53,7.07,5.05,11.28,4.37   c4.2-0.69,7.9-3.28,10.72-6.47s4.87-6.97,6.9-10.72c4.08-8.47,6.07-17.28,6.24-26.25C344.315,86.54,343.145,78.819,340.855,71.109z   "/>
	<path style="fill:#DB968E;" d="M226.76,91.069c4.08,4.7,5.21,11.76,2.8,17.5c-2.4,5.73-8.23,9.87-14.44,10.25l-0.17,0.08h-0.01   c-1.68-3.99-2.93-8.19-3.78-12.42c-1.37-6.8-1.72-13.77-1.14-20.67C215.99,84.309,222.72,86.429,226.76,91.069z"/>
	<g>
		<path d="M85.465,399.829c-0.164,0-0.325-0.054-0.457-0.155c-2.481-1.907-4.97-3.917-7.397-5.972    C34.185,356.947,6.217,302.155,0.879,243.377c-5.528-60.824,15.575-124.226,56.45-169.6C98.224,28.401,159.087,0.829,220.135,0.02    c28.144-0.366,52.725,4.78,73.066,15.344c23.922,12.42,41.553,32.66,48.373,55.532c2.361,7.95,3.489,15.775,3.351,23.258    c-0.176,9.294-2.3,18.23-6.314,26.562c-0.18,0.373-0.629,0.53-1.001,0.351c-0.373-0.18-0.53-0.628-0.35-1.001    c3.919-8.136,5.994-16.863,6.166-25.939c0.135-7.328-0.971-15-3.289-22.802c-6.704-22.484-24.063-42.396-47.627-54.628    C272.391,6.247,248.041,1.164,220.155,1.52C159.517,2.323,99.064,29.711,58.443,74.781c-40.6,45.068-61.561,108.045-56.07,168.46    c5.303,58.39,33.08,112.813,76.208,149.316c2.204,1.865,4.459,3.693,6.712,5.44l39.653-58.472    c-5.863-3.305-45.65-26.407-60.145-52.351c-0.009-0.017-0.047-0.092-0.055-0.108c-12.069-25.822-17.341-55.231-15.244-85.047    c2.104-29.914,11.495-58.243,27.158-81.925c15.643-23.65,38.094-43.359,64.926-56.995c26.684-13.559,55.863-20.189,84.386-19.201    c0.414,0.015,0.738,0.362,0.723,0.776c-0.014,0.415-0.345,0.756-0.776,0.724C167.7,43.328,109.603,73.006,77.911,120.924    c-31.737,47.984-36.372,112.95-11.806,165.509c15.382,27.533,59.832,51.935,60.279,52.178c0.186,0.102,0.32,0.276,0.37,0.482    c0.05,0.205,0.011,0.423-0.108,0.598l-40.56,59.81c-0.116,0.171-0.298,0.287-0.501,0.319    C85.545,399.826,85.505,399.829,85.465,399.829z" fill="#000000"/>
	</g>
	<path d="M318.296,138.49c-4.033,0-7.835-1.818-9.888-4.862c-0.232-0.343-0.141-0.81,0.202-1.041   c0.342-0.231,0.81-0.141,1.041,0.203c2.092,3.101,6.328,4.725,10.539,4.049c4.616-0.759,8.137-3.806,10.277-6.228   c2.772-3.134,4.821-6.919,6.803-10.58c0.197-0.364,0.653-0.5,1.017-0.302c0.364,0.197,0.5,0.652,0.303,1.017   c-2.022,3.734-4.113,7.597-6.998,10.859c-2.302,2.604-6.106,5.883-11.16,6.714C319.719,138.435,319.004,138.49,318.296,138.49z" fill="#000000"/>
	<path d="M284.65,122.358c-0.328,0-0.629-0.217-0.722-0.548c-0.112-0.398,0.121-0.813,0.52-0.925   c9.046-2.534,16.451-12.452,18.01-24.117c0.126-0.923,0.205-1.859,0.233-2.783c0.344-10.306-4.858-20.654-13.252-26.366   c-9.279-6.317-22.1-6.89-31.903-1.425c-9.802,5.478-16.054,16.683-15.556,27.881c0.499,11.216,7.715,21.825,17.957,26.398   c0.378,0.169,0.548,0.612,0.379,0.99c-0.169,0.379-0.612,0.551-0.991,0.379c-10.747-4.799-18.32-15.932-18.843-27.701   c-0.522-11.751,6.037-23.509,16.323-29.257c10.288-5.735,23.741-5.134,33.478,1.494c8.809,5.994,14.268,16.85,13.907,27.655   c-0.03,0.975-0.113,1.963-0.246,2.936c-1.635,12.239-9.485,22.669-19.091,25.361C284.785,122.35,284.717,122.358,284.65,122.358z" fill="#000000"/>
	<path d="M285.286,143.072c-0.872,0-1.748-0.054-2.625-0.171c-8.418-1.124-13.07-4.932-13.825-11.314   c-0.049-0.411,0.245-0.784,0.657-0.833c0.407-0.052,0.784,0.245,0.833,0.657c0.674,5.694,4.774,8.967,12.534,10.004   c5.41,0.728,10.914-1.183,15.648-3.025c3.674-1.425,7.044-3.377,10.018-5.802c5.516-4.486,10.009-10.815,13.737-19.349   c4.556-10.413,6-22.45,4.175-34.812c-0.06-0.41,0.223-0.791,0.633-0.852c0.405-0.052,0.791,0.222,0.852,0.633   c1.865,12.64,0.383,24.961-4.285,35.631c-3.825,8.758-8.458,15.271-14.164,19.911c-3.095,2.524-6.602,4.556-10.422,6.037   C294.891,141.407,290.145,143.072,285.286,143.072z" fill="#000000"/>
	<path d="M249.898,145.896c-8.722,0-17.813-3.75-24.748-10.428c-0.5-0.479-0.991-0.971-1.462-1.482   c-3.831-4.062-6.99-9.007-9.386-14.695c-0.02-0.032-0.038-0.066-0.053-0.102c-1.65-3.919-2.937-8.146-3.824-12.563   c-1.361-6.756-1.749-13.781-1.152-20.88c1.267-15.047,7.016-29.774,16.187-41.471c1.717-2.196,3.552-4.29,5.456-6.223   c0.291-0.296,0.765-0.3,1.061-0.008c0.295,0.29,0.299,0.766,0.008,1.061c-1.863,1.892-3.661,3.942-5.344,6.095   c-8.993,11.47-14.63,25.913-15.874,40.671c-0.585,6.958-0.205,13.842,1.128,20.459c0.86,4.282,2.103,8.378,3.693,12.176   c0.02,0.032,0.038,0.066,0.053,0.103c2.332,5.564,5.408,10.395,9.144,14.355c0.456,0.495,0.925,0.965,1.403,1.424   c8.085,7.783,19.19,11.427,28.987,9.505c3.095-0.604,7.43-2.045,10.505-5.484c1.819-2.038,2.941-4.703,3.08-7.31   c0.067-1.247-0.101-2.451-0.499-3.581c-1.011-2.896-3.842-3.876-6.839-4.914c-0.694-0.24-1.39-0.481-2.068-0.747   c-0.386-0.151-0.576-0.586-0.425-0.972s0.586-0.576,0.972-0.425c0.659,0.258,1.336,0.492,2.011,0.727   c3.202,1.108,6.513,2.255,7.763,5.835c0.463,1.313,0.658,2.713,0.581,4.157c-0.157,2.94-1.417,5.939-3.459,8.229   c-3.354,3.751-8.016,5.311-11.336,5.958C253.643,145.722,251.779,145.896,249.898,145.896z" fill="#000000"/>
	<path d="M269.581,132.249c-0.414,0-0.75-0.336-0.75-0.75c0-0.128,0.001-0.268,0.012-0.418c0.127-2.503,2.117-8.009,7.45-8.932   c0.356-0.056,0.7-0.088,1.065-0.109c1.841-0.082,4.941-0.513,7.079-1.15c0.399-0.116,0.815,0.108,0.933,0.505   c0.118,0.396-0.107,0.814-0.504,0.933c-2.252,0.672-5.51,1.125-7.431,1.211c-0.305,0.018-0.602,0.046-0.898,0.092   c-4.385,0.758-6.092,5.5-6.196,7.547c-0.01,0.129-0.009,0.229-0.009,0.322C270.331,131.913,269.995,132.249,269.581,132.249z" fill="#000000"/>
	<path d="M215.12,119.068c-0.131,0-0.241-0.103-0.249-0.234c-0.009-0.138,0.096-0.257,0.234-0.266   c6.136-0.375,11.853-4.433,14.225-10.097c2.38-5.669,1.272-12.597-2.758-17.239c-3.985-4.575-10.613-6.654-16.49-5.182   c-0.068,0.013-0.116,0.021-0.163,0.035c-0.131,0.049-0.272-0.028-0.315-0.16c-0.043-0.131,0.029-0.271,0.16-0.314   c0.072-0.024,0.145-0.038,0.218-0.05c6.036-1.519,12.863,0.628,16.969,5.343c4.152,4.783,5.294,11.921,2.842,17.761   c-2.444,5.836-8.334,10.017-14.655,10.403C215.13,119.068,215.125,119.068,215.12,119.068z" fill="#000000"/>
</g>
</g></g></g><!--ITEM 10--><g><defs><clipPath id="clip-path-id-viewbox-item-10"><rect x="0.0" y="0.0" width="74.035" height="67.342"/></clipPath></defs><g transform="translate(127.0 144.0) rotate(-31.05316226940445 300.0 272.5) scale(8.104275005065173 8.093017730391137)"><g clip-path="url(#clip-path-id-viewbox-item-10)" transform="translate(-0.0 -0.0)"><g>
	<path style="fill:#000000;" d="M24.917,2.732c0.825-2.057-2.382-3.46-3.495-1.602c-1.904,3.178-4.61,8.571-6.099,11.823   c-2.578,5.631-3.812,6.561-6.659,9.629c-0.512,0.552-3.061,2.693-3.586,2.071c-0.572-0.678,1.104-6.053,1.365-7.137   c1.026-4.254,3.767-7.745,5.37-11.832c1.733-4.418-2.221-5.748-3.474-3.192C6.687,5.866,4.62,9.275,3.288,12.853   c-1.223,3.285-2.289,6.677-3.007,10.111c-0.785,3.753-0.15,8.5,4.867,7.967c0.841-0.089,4.652-1.753,5.494-2.187   c-2.515,8.891-7.09,14.758-5.521,16.241c1.72,1.626,3.211,1.885,4.888,0.394c2.638-2.344,3.372-5.326,4.627-8.559   c1.44-3.709,2.692-7.427,3.836-11.237C20.731,18.059,23.512,10.471,24.917,2.732z"/>
	<path style="fill:#000000;" d="M50.007,5.108c-0.957-3.409-4.39-5.242-7.735-5.1c-9.89,0.419-13.7,14.528-16.776,21.876   c-2.396,5.724-4.73,11.517-6.772,17.379c-1.549,4.447-2.076,8.821,3.05,10.715c1.099,0.406,4.126-0.109,7.106-2.62   c6.621-5.579,12.326-18.505,17.529-29.87C48.021,13.966,51.144,9.156,50.007,5.108z M45.182,8.37   c-0.288,3.12-3.404,7.592-4.868,10.422c-1.606,3.105-3.185,6.229-4.874,9.29c-3.006,5.447-6.05,10.819-9.64,15.873   c-0.883,1.049-2.157,0.078-1.925-0.84c0.156-0.619,6.088-17.368,7.066-19.549c1.519-3.391,2.633-6.96,4.091-10.378   c0.723-1.696,1.458-3.48,2.554-4.987C39.267,5.892,45.757,2.148,45.182,8.37z"/>
	<path style="fill:#000000;" d="M69.995,17.573c-2.895,5.166-5.881,10.278-8.884,15.379c-2.881,3.295-10.446,12.485-11.797,8.185   c-1.621-5.16,5.118-22.142,10.523-32.283c1.06-1.988-1.512-5.488-4.244-1.663c-8.31,11.635-11.761,20.697-12.215,35.488   c-0.172,5.596,3.836,8.046,5.907,6.765c1.216-0.752,2.393-1.556,3.545-2.392c-2.861,4.916-5.682,9.854-8.393,14.857   c-2.15,3.968,3.801,7.717,5.959,3.734c6.192-11.426,11.815-23.139,17.639-34.754c2.332-3.62,4.303-7.484,5.863-11.527   C74.778,17.078,71.191,15.44,69.995,17.573z"/>
</g>
</g></g></g><!--ITEM 11--><g><defs><clipPath id="clip-path-id-viewbox-item-11"><rect x="0.0" y="0.0" width="74.035" height="67.342"/></clipPath></defs><g transform="translate(136.0 139.0) rotate(-31.05316226940445 296.5 269.0) scale(8.009725130006078 7.989070713670518)"><g clip-path="url(#clip-path-id-viewbox-item-11)" transform="translate(-0.0 -0.0)"><g>
	<path style="fill:#2d9759;" d="M24.917,2.732c0.825-2.057-2.382-3.46-3.495-1.602c-1.904,3.178-4.61,8.571-6.099,11.823   c-2.578,5.631-3.812,6.561-6.659,9.629c-0.512,0.552-3.061,2.693-3.586,2.071c-0.572-0.678,1.104-6.053,1.365-7.137   c1.026-4.254,3.767-7.745,5.37-11.832c1.733-4.418-2.221-5.748-3.474-3.192C6.687,5.866,4.62,9.275,3.288,12.853   c-1.223,3.285-2.289,6.677-3.007,10.111c-0.785,3.753-0.15,8.5,4.867,7.967c0.841-0.089,4.652-1.753,5.494-2.187   c-2.515,8.891-7.09,14.758-5.521,16.241c1.72,1.626,3.211,1.885,4.888,0.394c2.638-2.344,3.372-5.326,4.627-8.559   c1.44-3.709,2.692-7.427,3.836-11.237C20.731,18.059,23.512,10.471,24.917,2.732z"/>
	<path style="fill:#2d9759;" d="M50.007,5.108c-0.957-3.409-4.39-5.242-7.735-5.1c-9.89,0.419-13.7,14.528-16.776,21.876   c-2.396,5.724-4.73,11.517-6.772,17.379c-1.549,4.447-2.076,8.821,3.05,10.715c1.099,0.406,4.126-0.109,7.106-2.62   c6.621-5.579,12.326-18.505,17.529-29.87C48.021,13.966,51.144,9.156,50.007,5.108z M45.182,8.37   c-0.288,3.12-3.404,7.592-4.868,10.422c-1.606,3.105-3.185,6.229-4.874,9.29c-3.006,5.447-6.05,10.819-9.64,15.873   c-0.883,1.049-2.157,0.078-1.925-0.84c0.156-0.619,6.088-17.368,7.066-19.549c1.519-3.391,2.633-6.96,4.091-10.378   c0.723-1.696,1.458-3.48,2.554-4.987C39.267,5.892,45.757,2.148,45.182,8.37z"/>
	<path style="fill:#2d9759;" d="M69.995,17.573c-2.895,5.166-5.881,10.278-8.884,15.379c-2.881,3.295-10.446,12.485-11.797,8.185   c-1.621-5.16,5.118-22.142,10.523-32.283c1.06-1.988-1.512-5.488-4.244-1.663c-8.31,11.635-11.761,20.697-12.215,35.488   c-0.172,5.596,3.836,8.046,5.907,6.765c1.216-0.752,2.393-1.556,3.545-2.392c-2.861,4.916-5.682,9.854-8.393,14.857   c-2.15,3.968,3.801,7.717,5.959,3.734c6.192-11.426,11.815-23.139,17.639-34.754c2.332-3.62,4.303-7.484,5.863-11.527   C74.778,17.078,71.191,15.44,69.995,17.573z"/>
</g>
</g></g></g><!--ITEM 12--><g><defs><clipPath id="clip-path-id-crop-item-12"><rect transform="scale(0.39071625344352623 0.39137231503579956)" x="277" y="333" width="220" height="437"/></clipPath><clipPath id="clip-path-id-viewbox-item-12"><rect x="0.0" y="0.0" width="283.66" height="327.97"/></clipPath></defs><g clip-path="url(#clip-path-id-crop-item-12)" transform="translate(306.0 64.0) rotate(82.72237964830784 363.0 419.0) scale(2.5594021011069588 2.555111748025734)"><g clip-path="url(#clip-path-id-viewbox-item-12)" transform="translate(-0.0 -0.0)"><g>
	<g>
		<path style="fill:#E64337;" d="M92.83,316.415c30.1-0.09,56.34-16.56,70.29-40.95c6.8-11.87,10.68-25.62,10.68-40.28    c0-44.56-35.85-80.73-80.29-81.23c-0.31-0.01-0.63-0.01-0.94-0.01c-20.3,0-38.87,7.45-53.11,19.77    c-17.22,14.89-28.12,36.91-28.12,61.47c0,19.34,6.76,37.1,18.05,51.05c14.88,18.41,37.66,30.18,63.18,30.18    C92.66,316.415,92.74,316.415,92.83,316.415z M154.05,167.535c18.4,16.68,29.96,40.77,29.96,67.56c0,14.11-3.21,27.47-8.93,39.39    c-7.22,15.05-18.46,27.81-32.33,36.89c-14.33,9.39-31.46,14.85-49.87,14.85c-0.99,0-1.97-0.02-2.95-0.05    c-22.27-0.71-42.53-9.41-58-23.33c-18.53-16.68-30.18-40.85-30.18-67.75c0-32.11,16.61-60.34,41.71-76.57    c14.24-9.22,31.21-14.56,49.42-14.56c20.67,0,39.74,6.88,55.03,18.48C150.03,164.055,152.08,165.755,154.05,167.535z"/>
		<path style="fill:#E64337;" d="M275.53,1.005c-2.27,0-4.28,1.06-5.59,2.71l-0.01-0.01l-16.29,21.45l-47.82,61.96    c-0.07-0.01-0.15-0.02-0.22-0.03l-0.04,0.37l-39.86,51.85l-17.49,22.75l-0.3,0.39c2.12,1.61,4.17,3.31,6.14,5.09l0.36-0.41    c0,0,10.57-12.05,25.97-30.04c8.93-10.44,19.49-22.89,30.55-36.14c0.06-0.07,0.11-0.13,0.17-0.2l53.32-67.25    c1.69-2.16,3.28-4.12,4.78-5.94c4.49-5.46,8.18-9.68,11.38-14.19c0.81-1.15,2.08-3.43,2.08-5.23    C282.66,4.205,279.46,1.005,275.53,1.005z"/>
	</g>
	<g>
		<path d="M92.88,327.97c-1.009,0-2.006-0.02-3.004-0.051c-21.856-0.696-42.851-9.142-59.117-23.778    C11.211,286.545,0,261.377,0,235.09c0-31.654,15.892-60.827,42.51-78.039c14.994-9.709,32.412-14.841,50.37-14.841    c20.451,0,39.846,6.514,56.088,18.836c2.146,1.629,4.25,3.374,6.256,5.187c0,0,0.001,0.001,0.002,0.001    c19.404,17.591,30.534,42.688,30.534,68.856c0,14.054-3.063,27.562-9.102,40.147c-7.333,15.285-18.727,28.286-32.949,37.597    C128.598,322.736,111.021,327.97,92.88,327.97z M92.88,145.71c-17.281,0-34.042,4.938-48.469,14.279    C18.794,176.554,3.5,204.629,3.5,235.09c0,25.297,10.789,49.517,29.601,66.449c15.653,14.085,35.855,22.211,56.885,22.882    c0.961,0.029,1.923,0.049,2.895,0.049c17.457,0,34.371-5.036,48.911-14.563c13.689-8.962,24.655-21.474,31.711-36.183    c5.812-12.11,8.758-25.108,8.758-38.634c0-25.181-10.711-49.333-29.384-66.262l0,0c-1.931-1.745-3.958-3.426-6.023-4.994    C131.224,151.977,112.561,145.71,92.88,145.71z" fill="#000000"/>
		<path d="M92.832,317.16H92.57c-24.877,0-48.118-11.102-63.764-30.458C17.06,272.187,10.59,253.89,10.59,235.18    c0-23.829,10.344-46.44,28.38-62.037c14.871-12.866,33.907-19.952,53.601-19.952c0.314,0,0.641,0,0.955,0.01    c21.7,0.246,42.06,8.881,57.328,24.314c15.28,15.447,23.696,35.927,23.696,57.665c0,14.286-3.728,28.344-10.779,40.653    C149.241,301.237,122.059,317.073,92.832,317.16z M92.595,154.69c-0.009,0-0.017,0-0.024,0c-19.333,0-38.021,6.956-52.62,19.587    c-17.705,15.311-27.86,37.509-27.86,60.902c0,18.367,6.351,36.33,17.883,50.579c15.359,19.003,38.176,29.901,62.598,29.901h0.26    c28.689-0.086,55.374-15.632,69.639-40.572c6.923-12.084,10.581-25.884,10.581-39.908c0-43.883-35.686-79.986-79.549-80.479    c-0.005,0-0.01,0-0.015,0C93.192,154.69,92.889,154.69,92.595,154.69z" fill="#000000"/>
		<path d="M154.41,168.12c-0.234,0-0.47-0.082-0.659-0.248c-0.415-0.364-0.457-0.996-0.093-1.411    c0.105-0.121,10.742-12.252,25.962-30.031c10.586-12.376,20.861-24.532,30.542-36.13l0.123-0.145l53.352-67.286    c1.479-1.891,3.003-3.784,4.792-5.955c1.087-1.323,2.129-2.574,3.128-3.773c3.115-3.741,5.805-6.973,8.208-10.359    c0.942-1.339,1.896-3.299,1.896-4.651c0-3.38-2.75-6.13-6.13-6.13c-1.878,0-3.63,0.85-4.808,2.332    c-0.03,0.038-0.063,0.073-0.098,0.105l-16.189,21.317l-48.083,62.304l-57.35,74.601c-0.338,0.437-0.965,0.519-1.402,0.184    c-0.438-0.337-0.521-0.965-0.184-1.402l57.61-74.938l47.82-61.963l16.286-21.443c0.04-0.054,0.085-0.103,0.135-0.146    C270.826,1.073,273.098,0,275.53,0c4.482,0,8.13,3.647,8.13,8.13c0,2.467-1.885,5.27-2.263,5.806    c-2.449,3.453-5.162,6.711-8.304,10.484c-0.997,1.197-2.035,2.444-3.121,3.765c-1.778,2.158-3.293,4.04-4.766,5.922    l-53.324,67.255c-0.006,0.008-0.063,0.076-0.069,0.084l-0.126,0.147c-9.676,11.592-19.957,23.755-30.548,36.138    c-15.229,17.789-25.872,29.929-25.978,30.049C154.964,168.005,154.688,168.12,154.41,168.12z" fill="#000000"/>
	</g>
</g>
</g></g></g><!--ITEM 13--><g><defs><clipPath id="clip-path-id-crop-item-13"><rect transform="scale(1.0449574468085105 1.0527676767676768)" x="28" y="0.0" width="66.0" height="95.0"/></clipPath><clipPath id="clip-path-id-viewbox-item-13"><rect x="0.0" y="0.0" width="98.226" height="104.224"/></clipPath></defs><g clip-path="url(#clip-path-id-crop-item-13)" transform="translate(862.0 744.0) rotate(0.0 47.0 49.5) scale(0.9569767678618696 0.9498771875959472)"><g clip-path="url(#clip-path-id-viewbox-item-13)" transform="translate(-0.0 -0.0)"><g>
	<path style="fill:#334a5a;" d="M97.041,5.331c1.89,4.22-0.4,9.21-3.58,12.57c-3.18,3.35-7.25,5.84-10.08,9.49   c-2.83,3.66-4.04,9.29-0.97,12.74c1.83,2.07,4.8,2.91,6.51,5.08c2.72,3.43,0.99,8.85-2.48,11.52c-3.47,2.66-7.05,1.26-11.41,1.65   c-3.34,0.3-7.65,1.44-7.83,4.79c-0.09,1.71,0.81,3.31,1.66,4.79c3.53,6.09,1.47,11.63-6.06,13.13c-5.17,1.03-19.66-3.66-15.87,2.75   c4.9,8.32-1.15,17.66-15.89,13.09c-11.72-3.63-6.26,5.33-16.84,6.52c-3.64,0.4-10.37,0.87-12.8-2.64   c-3.43-4.98,3.78-7.02,7.49-9.62c8.98-6.27,16.66-14.13,24.39-21.87c16.83-16.87,28.12-37.82,38.54-55.14   c2.85-4.74,5.93-9.72,10.82-12.3C87.541-0.709,94.771,0.291,97.041,5.331z"/>
	<path d="M9.89,104.228c-3.242,0-7.123-0.565-8.9-3.132c-0.856-1.244-1.158-2.436-0.897-3.544c0.527-2.24,3.18-3.706,5.744-5.123   c1.014-0.56,1.972-1.089,2.768-1.647c8.443-5.896,15.858-13.329,23.03-20.518l1.293-1.295   c14.457-14.492,24.881-32.116,34.077-47.666c1.487-2.515,2.946-4.982,4.388-7.378v0C74.01,9.569,77.268,4.15,82.408,1.439   c2.977-1.574,6.778-1.881,9.923-0.802c2.434,0.835,4.22,2.388,5.166,4.489c2.071,4.624-0.539,9.809-3.673,13.119   c-1.362,1.435-2.898,2.726-4.384,3.974c-1.997,1.677-4.062,3.412-5.664,5.479c-2.65,3.428-3.899,8.834-0.992,12.101   c0.829,0.937,1.902,1.607,3.038,2.315c1.252,0.781,2.546,1.588,3.491,2.788c1.155,1.456,1.633,3.311,1.381,5.363   c-0.319,2.605-1.833,5.235-3.948,6.863c-2.539,1.946-5.136,1.842-7.886,1.732c-1.213-0.048-2.467-0.098-3.784,0.019   c-2.158,0.194-7.198,1.003-7.376,4.319c-0.084,1.594,0.808,3.146,1.595,4.514c1.844,3.181,2.236,6.316,1.103,8.825   c-1.153,2.553-3.747,4.297-7.499,5.045c-1.837,0.366-4.762,0.044-7.588-0.267c-3.405-0.375-7.643-0.841-8.388,0.314   c-0.31,0.48,0.067,1.33,0.439,1.958c2.34,3.973,2.312,8.312-0.073,11.323c-3.063,3.87-9.04,4.779-16.396,2.499   c-6.072-1.881-7.173-0.323-8.698,1.832c-1.305,1.846-2.93,4.144-7.938,4.707C13.324,104.05,11.707,104.228,9.89,104.228z    M88.374,0.997c-1.909,0-3.842,0.45-5.499,1.326C77.981,4.905,74.936,9.97,72.25,14.438v0c-1.441,2.395-2.898,4.859-4.385,7.372   c-9.227,15.601-19.684,33.282-34.23,47.864l-1.292,1.295c-7.202,7.22-14.649,14.686-23.165,20.631   c-0.839,0.588-1.819,1.13-2.856,1.703c-2.374,1.312-4.829,2.668-5.255,4.477c-0.196,0.833,0.048,1.731,0.747,2.746   c2.433,3.514,9.885,2.696,12.333,2.427c4.561-0.513,5.979-2.52,7.231-4.29c1.635-2.31,3.044-4.306,9.811-2.21   c6.843,2.121,12.565,1.311,15.317-2.164c2.121-2.68,2.119-6.587-0.005-10.195c-0.759-1.284-0.896-2.268-0.418-3.009   c1.08-1.675,4.909-1.253,9.337-0.766c2.753,0.303,5.598,0.616,7.283,0.28c3.422-0.682,5.768-2.229,6.783-4.475   c0.997-2.207,0.621-5.017-1.058-7.914c-0.814-1.417-1.826-3.177-1.727-5.067c0.212-3.95,5.281-4.992,8.284-5.262   c1.384-0.124,2.67-0.072,3.914-0.022c2.674,0.107,4.987,0.199,7.236-1.526c1.91-1.47,3.276-3.843,3.565-6.192   c0.152-1.241,0.072-3.051-1.173-4.621c-0.839-1.064-2.003-1.791-3.236-2.56c-1.146-0.715-2.333-1.455-3.257-2.5   c-3.265-3.668-1.947-9.631,0.949-13.377c1.669-2.152,3.774-3.921,5.812-5.632c1.465-1.23,2.979-2.502,4.302-3.896   c2.777-2.934,5.357-7.844,3.486-12.021c-1.049-2.327-3.068-3.434-4.578-3.953C90.862,1.19,89.623,0.997,88.374,0.997z    M71.821,14.181h0.01H71.821z" fill="#000000"/>
</g>
</g></g></g><!--ITEM 14--><g><defs><clipPath id="clip-path-id-crop-item-14"><rect transform="scale(0.4147076023391813 0.41515189873417724)" x="478" y="0.0" width="205" height="198.0"/></clipPath><clipPath id="clip-path-id-viewbox-item-14"><rect x="0.0" y="0.0" width="283.66" height="327.97"/></clipPath></defs><g clip-path="url(#clip-path-id-crop-item-14)" transform="translate(278.0 60.0) rotate(82.72237964830784 342.0 395.0) scale(2.4113375167453994 2.4087568984968137)"><g clip-path="url(#clip-path-id-viewbox-item-14)" transform="translate(-0.0 -0.0)"><g>
	<g>
		<path style="fill:#E64337;" d="M92.83,316.415c30.1-0.09,56.34-16.56,70.29-40.95c6.8-11.87,10.68-25.62,10.68-40.28    c0-44.56-35.85-80.73-80.29-81.23c-0.31-0.01-0.63-0.01-0.94-0.01c-20.3,0-38.87,7.45-53.11,19.77    c-17.22,14.89-28.12,36.91-28.12,61.47c0,19.34,6.76,37.1,18.05,51.05c14.88,18.41,37.66,30.18,63.18,30.18    C92.66,316.415,92.74,316.415,92.83,316.415z M154.05,167.535c18.4,16.68,29.96,40.77,29.96,67.56c0,14.11-3.21,27.47-8.93,39.39    c-7.22,15.05-18.46,27.81-32.33,36.89c-14.33,9.39-31.46,14.85-49.87,14.85c-0.99,0-1.97-0.02-2.95-0.05    c-22.27-0.71-42.53-9.41-58-23.33c-18.53-16.68-30.18-40.85-30.18-67.75c0-32.11,16.61-60.34,41.71-76.57    c14.24-9.22,31.21-14.56,49.42-14.56c20.67,0,39.74,6.88,55.03,18.48C150.03,164.055,152.08,165.755,154.05,167.535z"/>
		<path style="fill:#E64337;" d="M275.53,1.005c-2.27,0-4.28,1.06-5.59,2.71l-0.01-0.01l-16.29,21.45l-47.82,61.96    c-0.07-0.01-0.15-0.02-0.22-0.03l-0.04,0.37l-39.86,51.85l-17.49,22.75l-0.3,0.39c2.12,1.61,4.17,3.31,6.14,5.09l0.36-0.41    c0,0,10.57-12.05,25.97-30.04c8.93-10.44,19.49-22.89,30.55-36.14c0.06-0.07,0.11-0.13,0.17-0.2l53.32-67.25    c1.69-2.16,3.28-4.12,4.78-5.94c4.49-5.46,8.18-9.68,11.38-14.19c0.81-1.15,2.08-3.43,2.08-5.23    C282.66,4.205,279.46,1.005,275.53,1.005z"/>
	</g>
	<g>
		<path d="M92.88,327.97c-1.009,0-2.006-0.02-3.004-0.051c-21.856-0.696-42.851-9.142-59.117-23.778    C11.211,286.545,0,261.377,0,235.09c0-31.654,15.892-60.827,42.51-78.039c14.994-9.709,32.412-14.841,50.37-14.841    c20.451,0,39.846,6.514,56.088,18.836c2.146,1.629,4.25,3.374,6.256,5.187c0,0,0.001,0.001,0.002,0.001    c19.404,17.591,30.534,42.688,30.534,68.856c0,14.054-3.063,27.562-9.102,40.147c-7.333,15.285-18.727,28.286-32.949,37.597    C128.598,322.736,111.021,327.97,92.88,327.97z M92.88,145.71c-17.281,0-34.042,4.938-48.469,14.279    C18.794,176.554,3.5,204.629,3.5,235.09c0,25.297,10.789,49.517,29.601,66.449c15.653,14.085,35.855,22.211,56.885,22.882    c0.961,0.029,1.923,0.049,2.895,0.049c17.457,0,34.371-5.036,48.911-14.563c13.689-8.962,24.655-21.474,31.711-36.183    c5.812-12.11,8.758-25.108,8.758-38.634c0-25.181-10.711-49.333-29.384-66.262l0,0c-1.931-1.745-3.958-3.426-6.023-4.994    C131.224,151.977,112.561,145.71,92.88,145.71z" fill="#000000"/>
		<path d="M92.832,317.16H92.57c-24.877,0-48.118-11.102-63.764-30.458C17.06,272.187,10.59,253.89,10.59,235.18    c0-23.829,10.344-46.44,28.38-62.037c14.871-12.866,33.907-19.952,53.601-19.952c0.314,0,0.641,0,0.955,0.01    c21.7,0.246,42.06,8.881,57.328,24.314c15.28,15.447,23.696,35.927,23.696,57.665c0,14.286-3.728,28.344-10.779,40.653    C149.241,301.237,122.059,317.073,92.832,317.16z M92.595,154.69c-0.009,0-0.017,0-0.024,0c-19.333,0-38.021,6.956-52.62,19.587    c-17.705,15.311-27.86,37.509-27.86,60.902c0,18.367,6.351,36.33,17.883,50.579c15.359,19.003,38.176,29.901,62.598,29.901h0.26    c28.689-0.086,55.374-15.632,69.639-40.572c6.923-12.084,10.581-25.884,10.581-39.908c0-43.883-35.686-79.986-79.549-80.479    c-0.005,0-0.01,0-0.015,0C93.192,154.69,92.889,154.69,92.595,154.69z" fill="#000000"/>
		<path d="M154.41,168.12c-0.234,0-0.47-0.082-0.659-0.248c-0.415-0.364-0.457-0.996-0.093-1.411    c0.105-0.121,10.742-12.252,25.962-30.031c10.586-12.376,20.861-24.532,30.542-36.13l0.123-0.145l53.352-67.286    c1.479-1.891,3.003-3.784,4.792-5.955c1.087-1.323,2.129-2.574,3.128-3.773c3.115-3.741,5.805-6.973,8.208-10.359    c0.942-1.339,1.896-3.299,1.896-4.651c0-3.38-2.75-6.13-6.13-6.13c-1.878,0-3.63,0.85-4.808,2.332    c-0.03,0.038-0.063,0.073-0.098,0.105l-16.189,21.317l-48.083,62.304l-57.35,74.601c-0.338,0.437-0.965,0.519-1.402,0.184    c-0.438-0.337-0.521-0.965-0.184-1.402l57.61-74.938l47.82-61.963l16.286-21.443c0.04-0.054,0.085-0.103,0.135-0.146    C270.826,1.073,273.098,0,275.53,0c4.482,0,8.13,3.647,8.13,8.13c0,2.467-1.885,5.27-2.263,5.806    c-2.449,3.453-5.162,6.711-8.304,10.484c-0.997,1.197-2.035,2.444-3.121,3.765c-1.778,2.158-3.293,4.04-4.766,5.922    l-53.324,67.255c-0.006,0.008-0.063,0.076-0.069,0.084l-0.126,0.147c-9.676,11.592-19.957,23.755-30.548,36.138    c-15.229,17.789-25.872,29.929-25.978,30.049C154.964,168.005,154.688,168.12,154.41,168.12z" fill="#000000"/>
	</g>
</g>
</g></g></g></svg>