<svg xmlns="http://www.w3.org/2000/svg" xmlns:xlink="http://www.w3.org/1999/xlink" width="1600" height="1200" x="0" y="0" version="1.1" viewBox="0 0 1600 1200"><g><defs><clipPath id="clip-path-id-viewbox-item-0"><rect width="885.24" height="787.42" x="0" y="0"/></clipPath></defs><g><g clip-path="url(#clip-path-id-viewbox-item-0)" transform="translate(414.0 152.0) rotate(0.0 478.5 425.5) scale(1.0810627626406397 1.0807447105737726) translate(-0.0 -0.0)"><g><g><g><g><g><path style="fill:#262103" d="M403.03,750.878V197.123h46.281v553.755c0,12.78-10.36,23.14-23.14,23.14h0 C413.391,774.018,403.03,763.658,403.03,750.878z"/></g></g></g></g><g><g><g><path style="fill:#09936f" d="M604.653,787.42H247.689v-49.174c0-39.938,32.376-72.314,72.314-72.314h212.336 c39.938,0,72.314,32.376,72.314,72.314V787.42z"/></g></g></g><g><g><g><path style="fill:#262103" d="M604.653,787.42H247.689v-49.174c0-39.938,32.376-72.314,72.314-72.314h212.336 c39.938,0,72.314,32.376,72.314,72.314V787.42z"/></g></g></g><g><g><g><path style="fill:#2654a4" d="M852.342,512.948H129.201C57.845,512.948,0,455.102,0,383.747V0h723.141 c71.356,0,129.201,57.845,129.201,129.201V512.948z"/></g></g></g><g><g><g><circle style="fill:#e9e7db" cx="786.804" cy="456.382" r="22.524"/></g></g></g><g><g><g><polygon style="fill:#262103" points="885.241 543.677 740.095 543.677 740.095 531.07 872.634 531.07 872.634 413.005 885.241 413.005"/></g></g></g></g></g></g></g><g><defs><clipPath id="clip-path-id-crop-item-1"><g transform="scale(0.3256822222222222 0.3243630769230769)"><rect width="384" height="703" x="71" y="306"/></g></clipPath><clipPath id="clip-path-id-viewbox-item-1"><rect width="146.557" height="316.254" x="0" y="0"/></clipPath></defs><g clip-path="url(#clip-path-id-crop-item-1)" transform="translate(804.0 -112.0) rotate(89.99999999999955 225.0 487.5) scale(3.0704776980969863 3.0829649585459786)"><g clip-path="url(#clip-path-id-viewbox-item-1)" transform="translate(-0.0 -0.0)"><g><g><g><path style="fill:#fff" d="M104.775,316.254H0V0h102.204c24.495,0,44.353,19.857,44.353,44.353v230.119 C146.557,297.547,127.85,316.254,104.775,316.254z"/></g></g></g></g></g></g><g><defs><clipPath id="clip-path-id-viewbox-item-2"><rect width="1154.773" height="12" x="0" y="0"/></clipPath></defs><g><g clip-path="url(#clip-path-id-viewbox-item-2)" transform="translate(150.0 996.0) rotate(0.0 594.5 5.0) scale(1.0296395915041312 0.8333333333333334) translate(-0.0 -0.0)"><g><g><g><rect style="fill:#262103" width="1154.773" height="12" x="0" y="0"/></g></g></g></g></g></g><g><defs><clipPath id="clip-path-id-viewbox-item-3"><rect width="38.041" height="37.399" x="0" y="0"/></clipPath></defs><g><g clip-path="url(#clip-path-id-viewbox-item-3)" transform="translate(1155.0 809.0) rotate(0.0 96.0 93.0) scale(5.047185930969218 4.97339501056178) translate(-0.0 -0.0)"><g><g><g><polygon style="fill:#2654a4" points="38.041 28.498 27.922 18.378 37.398 8.902 28.497 0 19.021 9.477 9.544 0 .643 8.902 10.119 18.378 0 28.498 8.901 37.399 19.021 27.28 29.14 37.399"/></g></g></g></g></g></g><g><defs><clipPath id="clip-path-id-viewbox-item-4"><rect width="219.337" height="332.972" x="0" y="0"/></clipPath></defs><g><g clip-path="url(#clip-path-id-viewbox-item-4)" transform="translate(813.0 297.0) rotate(0.0 72.0 109.5) scale(0.6565239790824166 0.657712960849561) translate(-0.0 -0.0)"><g><path style="fill:#2654a4" d="M92.205,332.973H22.659c-12.514,0-22.658-10.145-22.658-22.659s10.145-22.658,22.658-22.658h69.546 c45.113,0,81.815-36.702,81.815-81.815V22.658C174.02,10.145,184.165,0,196.678,0s22.658,10.145,22.658,22.658V205.84 C219.337,275.941,162.305,332.973,92.205,332.973z"/></g><g><path style="fill:#09936f" d="M22.659,332.973c-12.514,0-22.658-10.145-22.658-22.659V127.132C0.001,57.031,57.031,0,127.132,0 h69.547c12.514,0,22.658,10.145,22.658,22.658s-10.145,22.658-22.658,22.658h-69.547c-45.112,0-81.814,36.702-81.814,81.815 v183.182C45.317,322.828,35.173,332.973,22.659,332.973z"/></g></g></g></g><g><defs><clipPath id="clip-path-id-crop-item-5"><g transform="scale(0.5045591397849463 0.4952117346938775)"><rect width="93" height="217" x="0" y="173"/></g></clipPath><clipPath id="clip-path-id-viewbox-item-5"><rect width="46.924" height="194.123" x="0" y="0"/></clipPath></defs><g clip-path="url(#clip-path-id-crop-item-5)" transform="translate(263.0 643.0) rotate(42.05472886602556 46.5 196.0) scale(1.9819282243627994 2.019338254611767)"><g clip-path="url(#clip-path-id-viewbox-item-5)" transform="translate(-0.0 -0.0)"><g><g><g><path style="fill:#2654a4" d="M23.462,194.123L23.462,194.123C10.504,194.123,0,183.619,0,170.661V23.462 C0,10.504,10.504,0,23.462,0h0C36.42,0,46.924,10.504,46.924,23.462v147.199C46.924,183.619,36.42,194.123,23.462,194.123z"/></g></g></g></g></g></g><g><defs><clipPath id="clip-path-id-viewbox-item-6"><rect width="215.8" height="332.48" x="0" y="0"/></clipPath></defs><g><g clip-path="url(#clip-path-id-viewbox-item-6)" transform="translate(985.0 295.0) rotate(0.0 71.0 110.0) scale(0.6580166821130676 0.6616939364773821) translate(-0.0 -0.0)"><title>4</title><path d="M163.63,332.41A22.66,22.66,0,0,1,141,309.75V23a22.66,22.66,0,1,1,45.31,0V309.75A22.66,22.66,0,0,1,163.63,332.41Z" style="fill:#2654a4"/><path d="M8.38,214.09a22.66,22.66,0,0,1,14.93-39.68l169.8-.16a22.66,22.66,0,1,1,.06,45.32l-169.8.16A22.66,22.66,0,0,1,8.38,214.09Z" style="fill:#09936f"/><path d="M5.93,8.22A22.65,22.65,0,0,1,45.61,23.14l.16,173.38a22.66,22.66,0,1,1-45.32.06L.29,23.2A22.51,22.51,0,0,1,5.93,8.22Z" style="fill:#2654a4"/></g></g></g><g><defs><clipPath id="clip-path-id-viewbox-item-7"><rect width="237.39" height="237.39" x="0" y="0"/></clipPath></defs><g><g clip-path="url(#clip-path-id-viewbox-item-7)" transform="translate(180.0 472.0) rotate(0.0 261.0 261.0) scale(2.198913180841653 2.198913180841653) translate(-0.0 -0.0)"><g><g><g><path style="fill:#ffcc51" d="M118.695,237.39C53.246,237.39,0,184.143,0,118.695S53.246-0.001,118.695-0.001 S237.39,53.246,237.39,118.695S184.144,237.39,118.695,237.39z M118.695,63.581c-30.39,0-55.113,24.724-55.113,55.113 s24.724,55.113,55.113,55.113s55.113-24.724,55.113-55.113S149.085,63.581,118.695,63.581z"/></g></g></g></g></g></g><g><defs><clipPath id="clip-path-id-viewbox-item-8"><rect width="215.8" height="332.48" x="0" y="0"/></clipPath></defs><g><g clip-path="url(#clip-path-id-viewbox-item-8)" transform="translate(648.0 300.0) rotate(0.0 71.0 110.0) scale(0.6580166821130676 0.6616939364773821) translate(-0.0 -0.0)"><title>4</title><path d="M163.63,332.41A22.66,22.66,0,0,1,141,309.75V23a22.66,22.66,0,1,1,45.31,0V309.75A22.66,22.66,0,0,1,163.63,332.41Z" style="fill:#2654a4"/><path d="M8.38,214.09a22.66,22.66,0,0,1,14.93-39.68l169.8-.16a22.66,22.66,0,1,1,.06,45.32l-169.8.16A22.66,22.66,0,0,1,8.38,214.09Z" style="fill:#09936f"/><path d="M5.93,8.22A22.65,22.65,0,0,1,45.61,23.14l.16,173.38a22.66,22.66,0,1,1-45.32.06L.29,23.2A22.51,22.51,0,0,1,5.93,8.22Z" style="fill:#2654a4"/></g></g></g></svg>