<svg xmlns="http://www.w3.org/2000/svg"  viewBox="0 0 48 48" width="25px" height="25px"><path fill="#d6e5e5" d="M39.485,10.625c-10.569,0.452-18.649,0.858-29.218,1.311c-1.232,0.053-4.018-0.06-5.103,0.528 c-2.333,1.264-1.363,4.517-1.506,7.172c-0.261,4.841-0.103,9.716,0.471,14.529c0.101,0.849,0.225,1.724,0.671,2.453 c0.608,0.994,1.717,1.557,2.807,1.961c3.099,1.149,5.448,0.393,8.747,0.572c7.775,0.422,14.569,0.48,22.349,0.175 c2.058-0.081,4.512-0.439,5.384-2.309c0.365-0.782,0.359-1.68,0.346-2.544c-0.098-6.547-0.196-12.094-0.295-18.64 c-0.022-1.468-0.113-3.103-1.171-4.118C41.954,10.74,40.889,10.631,39.485,10.625z"/><path fill="#74cccf" d="M41.534,6.226c-2.529-1.811-6.216-2.08-9.091-1.274c-1.086,0.305-2.601,1.498-3.388,2.33 c-0.878,0.93-1.3,2.238-1.409,3.532c-0.282,3.33,0.034,7.175,2.748,8.994c3.008,2.016,8.916,2.572,11.652,0.176 C49.277,13.653,42.552,6.955,41.534,6.226z"/><path fill="#010101" d="M36.555,19.008c-0.258,0-0.516-0.014-0.771-0.04c-2.355-0.244-4.663-1.996-5.485-4.165 c-0.865-2.281-0.193-4.837,1.635-6.218c0.763-0.575,2.322-1.538,4.025-1.522c1.727,0.018,3.317,0.775,4.255,2.027 c0.721,0.963,0.972,2.272,0.768,4.003c-0.085,0.722-0.44,1.796-1.159,2.45c-0.43,0.39-1.059,0.568-1.64,0.472 c-0.484-0.083-0.869-0.347-1.083-0.743c-0.01-0.019-0.02-0.037-0.029-0.056c-0.316,0.366-0.643,0.61-1,0.747 c-0.615,0.232-1.346,0.149-2.006-0.235c-0.626-0.365-1.08-1.695-1.08-2.413c0-1.3,0.086-2.341,1.168-2.926 c0.834-0.452,1.902-0.456,2.856-0.026c0.002-0.051,0.005-0.099,0.008-0.143c0.015-0.249,0.212-0.449,0.461-0.469 c0.246-0.019,0.474,0.149,0.526,0.395c0.146,0.683,0.13,1.809-0.062,2.862c-0.01,0.406-0.021,0.768-0.036,1.017 c-0.02,0.326-0.027,0.59,0.071,0.771c0.084,0.155,0.249,0.213,0.372,0.233c0.277,0.051,0.6-0.043,0.8-0.226 c0.417-0.38,0.754-1.114,0.838-1.827c0.173-1.464-0.016-2.539-0.576-3.286c-0.741-0.99-2.068-1.613-3.464-1.627 c-1.449-0.037-2.751,0.821-3.413,1.321c-1.476,1.113-2.011,3.196-1.303,5.063c0.685,1.806,2.686,3.321,4.654,3.526 c2.033,0.211,4.282-0.597,5.604-2.011c0.188-0.202,0.505-0.212,0.707-0.023s0.212,0.505,0.024,0.707 C40.841,18.123,38.681,19.008,36.555,19.008z M35.559,11.048c-0.336,0-0.658,0.072-0.931,0.22 c-0.512,0.276-0.644,0.697-0.644,2.047c0,0.534,0.387,1.418,0.586,1.551c0.389,0.227,0.817,0.288,1.143,0.164 c0.204-0.078,0.406-0.238,0.618-0.489c0.27-0.317,0.479-0.924,0.613-1.603c0.006-0.263,0.012-0.544,0.018-0.825 c0.004-0.228,0.009-0.455,0.014-0.673c-0.055-0.009-0.11-0.028-0.162-0.057C36.417,11.16,35.977,11.048,35.559,11.048z"/><path fill="#010101" d="M44.79,25.14c-0.044-2.434-0.081-4.876-0.124-7.443c0.854-1.399,1.255-2.883,1.179-4.439 c-0.19-3.886-3.268-6.9-4.02-7.438c-2.449-1.754-6.186-2.283-9.517-1.349c-1.275,0.357-2.895,1.704-3.616,2.468 c-1.075,1.139-1.428,2.639-1.533,3.734c-0.77,0.038-1.54,0.074-2.309,0.107c-4.66,0.22-9.32,0.43-14.6,0.66 c-0.25,0.01-0.56,0.01-0.91,0.01c-1.45,0.02-3.44,0.05-4.41,0.57c-2.02,1.1-1.91,3.36-1.81,5.55c0.04,0.69,0.07,1.39,0.04,2.04 c-0.26,4.86-0.1,9.78,0.47,14.61c0.12,0.95,0.26,1.86,0.74,2.66c0.73,1.19,2.02,1.78,3.06,2.17c2.16,0.8,3.97,0.71,5.88,0.63 c0.95-0.04,1.94-0.09,3.02-0.03c4.52,0.24,8.74,0.37,12.98,0.37c3.08,0,6.18-0.07,9.41-0.19c2.02-0.08,4.81-0.44,5.82-2.6 c0.42-0.9,0.41-1.94,0.39-2.77C44.88,31.19,44.83,28.17,44.79,25.14z M28.145,10.857c0.08-0.942,0.366-2.269,1.275-3.231 c0.806-0.854,2.243-1.935,3.159-2.191c1.011-0.284,2.061-0.422,3.093-0.422c2.082,0,4.092,0.562,5.572,1.62 c0.559,0.4,3.432,3.169,3.604,6.675c0.111,2.266-0.942,4.386-3.13,6.302c-2.503,2.191-8.166,1.713-11.044-0.216 C28.631,18.025,27.78,15.153,28.145,10.857z M9.35,12.45c0.36,0,0.68,0,0.94-0.01c5.28-0.23,9.95-0.45,14.61-0.66 c0.734-0.033,1.469-0.065,2.203-0.098c-0.195,4.181,0.806,7.063,3.013,8.542c1.159,0.777,2.716,1.336,4.365,1.619 c-2.686,3.146-5.371,5.455-8.602,7.418c-0.75,0.45-1.73,0.95-2.64,0.77c-0.67-0.14-1.28-0.65-1.81-1.1c-3-2.54-5.65-5.33-8.21-8.03 c-2.499-2.635-5.089-5.358-8.011-7.862C5.274,12.993,5.327,12.94,5.4,12.9C6.16,12.49,8.08,12.47,9.35,12.45z M4.16,19.66 c0.03-0.69,0-1.43-0.04-2.14c-0.072-1.485-0.126-2.818,0.4-3.747c2.899,2.474,5.48,5.181,7.97,7.817 c1.746,1.84,3.543,3.717,5.458,5.538c-2.054,1.544-4.107,3.088-6.161,4.633c-1.014,0.762-2.027,1.525-3.041,2.287 c-0.975,0.733-2.27,2.122-3.512,2.317c-0.001-0.002-0.003-0.003-0.004-0.005c-0.39-0.63-0.5-1.39-0.6-2.25 C4.06,29.33,3.9,24.47,4.16,19.66z M38.68,38.83c-7.65,0.3-14.53,0.24-22.3-0.18c-0.39-0.02-0.77-0.03-1.14-0.03 c-0.69,0-1.34,0.03-1.97,0.06c-1.89,0.08-3.52,0.16-5.49-0.57c-0.568-0.211-1.211-0.506-1.755-0.921 c1.945-0.611,3.988-2.851,5.507-3.993c2.382-1.791,4.764-3.582,7.146-5.373c0.683,0.633,1.381,1.258,2.103,1.867 c0.6,0.5,1.34,1.13,2.27,1.32c0.2,0.04,0.4,0.06,0.6,0.06c1.02,0,1.99-0.5,2.74-0.96c1.266-0.766,2.446-1.586,3.579-2.479 c5.196,2.044,8.523,6.837,12.895,10.108C41.781,38.583,40.038,38.776,38.68,38.83z M43.63,36.81 c-0.03,0.066-0.079,0.116-0.114,0.177c-4.379-3.22-7.639-7.832-12.683-10.065c1.672-1.411,3.251-3.022,4.831-4.927 c0.395,0.034,0.79,0.058,1.184,0.058c2.131,0,4.184-0.516,5.528-1.692c0.496-0.434,0.926-0.882,1.316-1.338 c0.034,2.093,0.062,4.124,0.098,6.137c0.04,3.02,0.09,6.05,0.14,9.32C43.94,35.24,43.96,36.11,43.63,36.81z"/></svg>